<svg width="213" height="26" viewBox="0 0 213 26" fill="none" xmlns="http://www.w3.org/2000/svg">
<path d="M13.1562 5.5L11.0469 17.9687C10.8125 19.4219 11.75 20.5 13.25 20.5H23V25H13.25C8.98437 25 5.93749 21.4375 6.64062 17.2187L8.60937 5.5H-1V1H23V5.5H13.1562ZM33 1H37.6V25H33V1ZM50.7875 25H46.2406L49.3812 6.20312C49.9437 2.92187 52.6156 0.625 55.9437 0.625C59.225 0.625 61.9437 2.92187 62.5062 6.20312L64.6625 19.0469C64.85 20.125 65.7406 20.875 66.8187 20.875C67.8969 20.875 68.7875 20.125 68.975 19.0469L71.1312 6.20312C71.6937 2.92187 74.4125 0.625 77.6937 0.625C81.0218 0.625 83.6937 2.92187 84.2562 6.20312L87.3968 25H82.85L79.85 6.95312C79.6625 5.875 78.8187 5.125 77.6937 5.125C76.6156 5.125 75.725 5.875 75.5375 6.95312L73.3812 19.7969C72.8187 23.0781 70.1 25.375 66.8187 25.375C63.5375 25.375 60.8187 23.0781 60.2562 19.7969L58.1 6.95312C57.9125 5.875 57.0219 5.125 55.9437 5.125C54.8187 5.125 53.975 5.875 53.7875 6.95312L50.7875 25ZM102.406 5.5C100.625 5.5 99.5 6.62499 99.5 8.31249C99.5 9.24999 99.875 10.0469 100.484 10.5625C100.906 10.4687 101.281 10.4219 101.703 10.375L109.156 9.81249L109.531 14.3125L102.031 14.875C100.531 14.9687 99.5 16.0937 99.5 17.6875C99.5 19.375 100.625 20.5 102.406 20.5H119V25H102.406C98.1875 25 95 21.8594 95 17.6875C95 15.8594 95.6094 14.2656 96.6406 13C95.6094 11.7344 95 10.0937 95 8.31249C95 4.14062 98.1875 1 102.406 1H119V5.5H102.406ZM143.675 1C147.894 1 151.081 4.14062 151.081 8.31249C151.081 12.25 148.222 15.3437 144.378 15.625L131.581 16.6094V25H127.081V1H143.675ZM144.05 11.125C145.55 11.0312 146.581 9.90624 146.581 8.31249C146.581 6.62499 145.456 5.5 143.675 5.5H131.581V12.0625L144.05 11.125ZM177.136 25L174.558 17.5H161.855L159.324 25H154.636L161.105 5.73437C162.089 2.78125 164.996 0.625 168.23 0.625C171.417 0.625 174.277 2.73437 175.308 5.73437L181.824 25H177.136ZM163.402 13H173.058L171.042 7.14062C170.667 6.06249 169.636 5.125 168.277 5.125C167.105 5.125 165.792 5.87499 165.371 7.14062L163.402 13ZM201 1C207.984 1 213 6.01562 213 13C213 19.9844 207.984 25 201 25H189V1H201ZM201 20.5C205.5 20.5 208.5 17.5 208.5 13C208.5 8.49999 205.5 5.5 201 5.5H193.5V20.5H201Z"/>
</svg>
