<?xml version="1.0" encoding="UTF-8"?>
<svg width="107px" height="14px" viewBox="0 0 107 14" version="1.1" xmlns="http://www.w3.org/2000/svg" xmlns:xlink="http://www.w3.org/1999/xlink">
    <!-- Generator: Sketch 56.1 (81669) - https://sketch.com -->
    <title>↳🎨  Color</title>
    <desc>Created with Sketch.</desc>
    <defs>
        <path d="M7.07811825,20.2500093 L6.02343176,26.4843784 C5.90624437,27.2109402 6.37499392,27.7500021 7.12499321,27.7500021 L11.9999886,27.7500021 L11.9999886,30 L7.12499321,30 C4.99218274,30 3.46874669,28.2187517 3.82030886,26.1093787 L4.80468292,20.2500093 L0,20.2500093 L0,18.0000114 L11.9999886,18.0000114 L11.9999886,20.2500093 L7.07811825,20.2500093 Z M17,18.0000114 L19.3,18.0000114 L19.3,30 L17,30 L17,18.0000114 Z M25.8937467,30 L23.6203113,30 L25.1906223,20.6015715 C25.4718721,18.960948 26.8078083,17.8125116 28.4718692,17.8125116 C30.1124926,17.8125116 31.4718663,18.960948 31.7531161,20.6015715 L32.83124,27.0234403 C32.92499,27.5625023 33.370302,27.937502 33.909364,27.937502 C34.448426,27.937502 34.8937381,27.5625023 34.987488,27.0234403 L36.065612,20.6015715 C36.3468617,18.960948 37.7062354,17.8125116 39.3468588,17.8125116 C41.0109197,17.8125116 42.346856,18.960948 42.6281057,20.6015715 L44.1984167,30 L41.9249814,30 L40.4249828,20.9765711 C40.3312329,20.4375091 39.9093583,20.0625095 39.3468588,20.0625095 C38.8077968,20.0625095 38.3624848,20.4375091 38.2687349,20.9765711 L37.1906109,27.39844 C36.9093612,29.0390634 35.5499874,30.1874998 33.909364,30.1874998 C32.2687406,30.1874998 30.9093669,29.0390634 30.6281171,27.39844 L29.5499932,20.9765711 C29.4562433,20.4375091 29.0109312,20.0625095 28.4718692,20.0625095 C27.9093697,20.0625095 27.4874951,20.4375091 27.3937452,20.9765711 L25.8937467,30 Z M51.7031215,20.2500093 C50.8124973,20.2500093 50.2499979,20.8125088 50.2499979,21.656258 C50.2499979,22.1250075 50.4374977,22.5234446 50.7421849,22.7812569 C50.9531222,22.7343819 51.140622,22.7109445 51.3515593,22.687507 L55.0781182,22.4062572 L55.2656181,24.6562551 L51.5156216,24.9375048 C50.7656224,24.9843798 50.2499979,25.5468792 50.2499979,26.3437535 C50.2499979,27.1875027 50.8124973,27.7500021 51.7031215,27.7500021 L59.9999886,27.7500021 L59.9999886,30 L51.7031215,30 C49.5937485,30 48,28.429689 48,26.3437535 C48,25.4296919 48.3046872,24.6328176 48.8203117,24.0000114 C48.3046872,23.3671938 48,22.5468821 48,21.656258 C48,19.5703224 49.5937485,18.0000114 51.7031215,18.0000114 L59.9999886,18.0000114 L59.9999886,20.2500093 L51.7031215,20.2500093 Z M72.3374912,18.0000114 C74.4468642,18.0000114 76.0406127,19.5703224 76.0406127,21.656258 C76.0406127,23.6250061 74.6109266,25.1718796 72.6890534,25.3125045 L66.290622,25.8046915 L66.290622,30 L64.0406242,30 L64.0406242,18.0000114 L72.3374912,18.0000114 Z M72.5249911,23.0625066 C73.2749903,23.0156317 73.790622,22.4531322 73.790622,21.656258 C73.790622,20.8125088 73.2281154,20.2500093 72.3374912,20.2500093 L66.290622,20.2500093 L66.290622,23.5312562 L72.5249911,23.0625066 Z M89.0681151,30 L87.7790538,26.2500036 L81.4274973,26.2500036 L80.1618735,30 L77.8181258,30 L81.0524977,20.3671967 C81.5446847,18.8906356 82.9978083,17.8125116 84.6149943,17.8125116 C86.2087428,17.8125116 87.6384289,18.8671981 88.1540534,20.3671967 L91.4118628,30 L89.0681151,30 Z M82.2009341,24.0000057 L87.0290545,24.0000057 L86.021243,21.070321 C85.8337431,20.531259 85.3181186,20.0625095 84.6384318,20.0625095 C84.0524948,20.0625095 83.3962455,20.4375091 83.1853082,21.070321 L82.2009341,24.0000057 Z M101,18.0000114 C104.492178,18.0000114 106.999989,20.5078216 106.999989,24.0000114 C106.999989,27.4921899 104.492178,30 101,30 L95,30 L95,18.0000114 L101,18.0000114 Z M100.999994,27.7500093 C103.249998,27.7500093 104.749998,26.2500093 104.749998,24.0000057 C104.749998,21.7500093 103.249998,20.2500093 100.999994,20.2500093 L97.2499979,20.2500093 L97.2499979,27.7500093 L100.999994,27.7500093 Z" id="path-1"></path>
    </defs>
    <g id="Symbols" stroke="none" stroke-width="1" fill="none" fill-rule="evenodd">
        <g id="Logo/12" transform="translate(0.000000, -17.000000)">
            <mask id="mask-2" fill="white">
                <use xlink:href="#path-1"></use>
            </mask>
            <use id="↳🎨--Color" fill="" fill-rule="nonzero" xlink:href="#path-1"></use>
        </g>
    </g>
</svg>