<svg width="106" height="32" viewBox="0 0 106 32" fill="none" xmlns="http://www.w3.org/2000/svg">
    <g clip-path="url(#clip0_1337_24582)">
        <path fill-rule="evenodd" clip-rule="evenodd" d="M4.94844 18.911C4.94844 19.118 5.11653 19.2857 5.3238 19.2857H9.02143C9.22872 19.2857 9.39679 19.118 9.39679 18.911V17.0633H11.2458C11.453 17.0633 11.6211 16.925 11.6211 16.718V15.2159C11.6211 15.009 11.453 14.8411 11.2458 14.8411H5.3238C5.11653 14.8411 4.94844 15.009 4.94844 15.2159V18.911ZM4.94835 10.7709C4.94835 10.5639 4.78026 10.3961 4.57299 10.3961H0.875355C0.668083 10.3961 0.5 10.5639 0.5 10.7709V14.466C0.5 14.6729 0.668083 14.8408 0.875355 14.8408H2.3465C2.55379 14.8408 2.72423 14.6729 2.72423 14.466V12.6183H4.57299C4.78026 12.6183 4.94835 12.4782 4.94835 12.2712V10.7709ZM7.17267 24.1059C7.17267 23.8989 7.00392 23.7311 6.79665 23.7311L5.3223 23.7312C5.11501 23.7312 4.94844 23.8991 4.94844 24.106V25.5734C4.94844 25.7804 5.11501 25.9534 5.3223 25.9534L6.79665 25.9532C7.00392 25.9532 7.17267 25.7803 7.17267 25.5733V24.1059ZM33.488 10.3961H29.7904C29.583 10.3961 29.415 10.5639 29.415 10.7709V12.2435C29.415 12.4504 29.583 12.6183 29.7904 12.6183H31.6392V14.466C31.6392 14.6729 31.8073 14.8408 32.0146 14.8408H33.488C33.6952 14.8408 33.8634 14.6729 33.8634 14.466V10.7709C33.8634 10.5639 33.6952 10.3961 33.488 10.3961ZM29.0395 14.8411H23.1177C22.9103 14.8411 22.7423 15.009 22.7423 15.2159V16.6885C22.7423 16.8954 22.9103 17.0633 23.1177 17.0633H24.9664V18.911C24.9664 19.118 25.0931 19.2857 25.3003 19.2857H29.0395C29.2468 19.2857 29.4149 19.118 29.4149 18.911V15.2159C29.4149 15.009 29.2468 14.8411 29.0395 14.8411ZM26.8152 25.9534H24.9664V24.1186C24.9664 23.9117 24.757 23.7308 24.5497 23.7308H22.7423V19.661C22.7423 19.454 22.5366 19.2861 22.3294 19.2861H20.518V15.2505C20.518 15.0436 20.3164 14.8408 20.109 14.8408H14.1988C13.9916 14.8408 13.8454 15.0436 13.8454 15.2505V19.2857H11.9785C11.7712 19.2857 11.6211 19.4776 11.6211 19.6846V23.7308H9.75818C9.55091 23.7308 9.3969 23.9117 9.3969 24.1186V25.9534H7.53786C7.33058 25.9534 7.17267 26.1287 7.17267 26.3356V27.8031C7.17267 28.0101 7.33058 28.1758 7.53786 28.1758H11.2278C11.4351 28.1758 11.6211 28.0101 11.6211 27.8031V25.9534H13.4699C13.6771 25.9534 13.8452 25.793 13.8452 25.586V21.5083H20.518V25.5785C20.518 25.7855 20.6525 25.9534 20.8598 25.9534H22.7423V27.801C22.7423 28.008 22.8729 28.1758 23.0801 28.1758H26.8152C27.0225 28.1758 27.1906 28.008 27.1906 27.801V26.3356C27.1906 26.1287 27.0225 25.9534 26.8152 25.9534ZM29.0356 23.7312H27.566C27.3587 23.7312 27.1907 23.8991 27.1907 24.106V25.5781C27.1907 25.7851 27.3587 25.9534 27.566 25.9534H29.0356C29.243 25.9534 29.4149 25.7851 29.4149 25.5781V24.106C29.4149 23.8991 29.243 23.7312 29.0356 23.7312Z" fill="#666665"/>
        <path fill-rule="evenodd" clip-rule="evenodd" d="M9.77233 10.3958H24.5911C24.7984 10.3958 24.9664 10.2636 24.9664 10.0565V8.54844C24.9664 8.34126 24.7984 8.17338 24.5911 8.17338H22.7422V6.32593C22.7422 6.11882 22.5741 5.95085 22.3668 5.95085L20.518 5.95096V4.10332C20.518 3.8962 20.35 3.72825 20.1427 3.72825L14.2208 3.72815C14.0135 3.72815 13.8454 3.8961 13.8454 4.10321V5.95085H11.9965C11.7893 5.95085 11.6212 6.11882 11.6212 6.32593V8.17338H9.77233C9.56505 8.17338 9.39697 8.34126 9.39697 8.54844V10.0565C9.39697 10.2636 9.56505 10.3958 9.77233 10.3958Z" fill="#666665"/>
        <path fill-rule="evenodd" clip-rule="evenodd" d="M70.2547 14.6452C69.0866 14.6452 68.0315 15.1253 67.2891 15.8953C66.5637 15.1223 65.5305 14.6392 64.3854 14.6392C63.7429 14.6392 63.0874 14.8743 62.5819 15.2139V15.1257C62.5819 14.9634 62.4469 14.8399 62.29 14.8399H60.6611C60.5052 14.8399 60.3694 14.9634 60.3694 15.1257V23.2741C60.3694 23.4364 60.5043 23.5599 60.6611 23.5599H62.294C62.45 23.5599 62.5858 23.4364 62.5858 23.2741V18.6059C62.5858 17.6136 63.3922 16.8108 64.3854 16.8108C65.3796 16.8108 66.1849 17.6147 66.1849 18.6059V23.2741C66.1849 23.4364 66.3199 23.5599 66.4767 23.5599H68.0715C68.0755 23.5599 68.0785 23.5599 68.0805 23.5599H68.1164C68.2723 23.5599 68.4082 23.4364 68.4082 23.2741V18.6088C68.4082 17.6216 69.2315 16.8148 70.2547 16.8148C71.278 16.8148 72.1013 17.6216 72.1013 18.6088V23.273C72.1013 23.4354 72.2362 23.5589 72.3931 23.5589H74.0318C74.1887 23.5589 74.3236 23.4354 74.3236 23.273V18.6088C74.3226 16.4163 72.4979 14.6452 70.2547 14.6452ZM82.4711 19.0003C81.8486 18.6228 81.0502 18.4414 80.3547 18.2841L80.3408 18.281C79.8351 18.1666 79.3914 18.0649 79.0717 17.9155C78.755 17.7681 78.611 17.5987 78.611 17.3656C78.611 17.1644 78.687 16.9861 78.8668 16.8456C79.0518 16.7012 79.3574 16.5896 79.8301 16.5617C80.6354 16.5617 81.259 16.5807 81.6807 16.5996C81.8925 16.6086 82.0533 16.6185 82.1603 16.6255C82.2142 16.6295 82.2552 16.6315 82.2822 16.6335C82.2961 16.6345 82.3061 16.6355 82.3121 16.6355L82.3191 16.6364H82.3212L82.3282 16.6374H82.3351C82.4601 16.6374 82.574 16.6135 82.652 16.5328C82.7209 16.4611 82.7348 16.3695 82.7408 16.3247C82.7408 16.3217 82.7419 16.3187 82.7419 16.3167C82.7449 16.2978 82.7468 16.2838 82.7499 16.2709L82.7538 16.2539V15.2548C82.7538 15.1333 82.7458 15.0217 82.6988 14.936C82.6409 14.8294 82.5439 14.7956 82.4661 14.7786L82.459 14.7776L82.4521 14.7766H82.449L82.441 14.7756C82.4341 14.7746 82.4241 14.7737 82.4111 14.7727C82.3841 14.7697 82.3442 14.7657 82.2911 14.7607C82.1843 14.7507 82.0244 14.7378 81.8085 14.7248C81.3769 14.6989 80.7214 14.673 79.8242 14.673H79.8212H79.8181C78.669 14.7159 77.7977 15.0346 77.2111 15.5387C76.6226 16.0437 76.3329 16.7251 76.3329 17.4623C76.3329 17.9474 76.4447 18.3448 76.6427 18.6726C76.8394 18.9994 77.1162 19.2473 77.432 19.4416C78.0545 19.8231 78.8519 20.0074 79.5463 20.1678L79.5604 20.1708C80.067 20.2873 80.5115 20.3909 80.8314 20.5423C81.147 20.6917 81.2939 20.864 81.2939 21.1042C81.2939 21.3044 81.201 21.4827 80.9762 21.6191C80.7424 21.7606 80.3637 21.8552 79.8062 21.8552C79.1726 21.8552 78.4812 21.7875 77.9456 21.7187C77.6778 21.6849 77.451 21.6501 77.2901 21.6241C77.2102 21.6112 77.1463 21.6002 77.1032 21.5933C77.0913 21.5913 77.0813 21.5893 77.0723 21.5883C77.0653 21.5874 77.0583 21.5863 77.0534 21.5853L77.0413 21.5833L77.0373 21.5824L77.0233 21.5794H77.0094C76.8955 21.5794 76.7874 21.6002 76.7116 21.677C76.6446 21.7437 76.6297 21.8324 76.6236 21.8732C76.6226 21.8762 76.6226 21.8791 76.6226 21.8811C76.6187 21.903 76.6156 21.9171 76.6126 21.931L76.6087 21.9469L76.5457 23.0746V23.0785C76.5457 23.1523 76.5567 23.2399 76.5966 23.3185C76.6377 23.4023 76.7116 23.477 76.8245 23.5058L76.8285 23.5069L76.8325 23.5078L76.8374 23.482C76.8325 23.5078 76.8325 23.5078 76.8325 23.5078H76.8335L76.8365 23.5089C76.8385 23.5099 76.8424 23.5099 76.8474 23.5108C76.8565 23.5128 76.8704 23.5149 76.8884 23.5188C76.9243 23.5258 76.9763 23.5347 77.0454 23.5457C77.1832 23.5677 77.384 23.5965 77.6439 23.6265C78.1614 23.6851 78.9088 23.743 79.8281 23.743H79.8351C79.9481 23.7439 80.8663 23.7509 81.7626 23.4153C82.2123 23.2469 82.6659 22.9888 83.0076 22.5925C83.3523 22.1929 83.5752 21.6601 83.5752 20.9608C83.5752 20.4805 83.4623 20.0861 83.2644 19.7614C83.0646 19.4366 82.7878 19.1915 82.4711 19.0003ZM100.886 14.6651C99.9734 14.6651 99.1167 14.988 98.4047 15.4629V11.795C98.4047 11.6327 98.2698 11.5092 98.1129 11.5092H96.478C96.3222 11.5092 96.1863 11.6327 96.1863 11.795V23.275C96.1863 23.4373 96.3211 23.5608 96.478 23.5608H98.1129C98.2689 23.5608 98.4047 23.4373 98.4047 23.275V22.9331C99.0551 23.3889 99.9755 23.7325 100.886 23.7325C103.522 23.7325 105.5 21.6509 105.5 19.2717C105.5 16.6169 103.461 14.6651 100.886 14.6651ZM100.886 21.4989C99.7013 21.4989 98.6605 20.4446 98.6605 19.2717C98.6605 17.8469 99.7775 16.8971 100.886 16.8971C102.211 16.8971 103.28 17.7899 103.28 19.2717C103.28 20.3497 102.415 21.4989 100.886 21.4989ZM93.6712 14.8408H92.0325C91.8757 14.8408 91.7408 14.9643 91.7408 15.1267V19.8126C91.7408 20.7858 90.9194 21.5838 89.8942 21.5838C89.8892 21.5838 89.8853 21.5838 89.8802 21.5838C89.8752 21.5838 89.8712 21.5838 89.8662 21.5838C88.841 21.5838 88.0197 20.7858 88.0197 19.8126V15.1267C88.0197 14.9643 87.8848 14.8408 87.7279 14.8408H86.0893C85.9323 14.8408 85.7975 14.9643 85.7975 15.1267V19.8126C85.7975 21.9823 87.624 23.7315 89.8662 23.7315C89.8712 23.7315 89.8752 23.7315 89.8802 23.7315C89.8853 23.7315 89.8892 23.7315 89.8942 23.7315C92.1354 23.7315 93.963 21.9823 93.963 19.8126V15.1267C93.963 14.9643 93.8282 14.8408 93.6712 14.8408ZM46.6637 19.0003C46.0412 18.6228 45.2428 18.4414 44.5475 18.2841L44.5334 18.281C44.0278 18.1666 43.5842 18.0649 43.2645 17.9155C42.9477 17.7681 42.8038 17.5987 42.8038 17.3656C42.8038 17.1644 42.8798 16.9861 43.0596 16.8456C43.2444 16.7012 43.5502 16.5896 44.0228 16.5617C44.8282 16.5617 45.4518 16.5807 45.8733 16.5996C46.0852 16.6086 46.2461 16.6185 46.3531 16.6255C46.407 16.6295 46.448 16.6315 46.4749 16.6335C46.4889 16.6345 46.4989 16.6355 46.5049 16.6355L46.5119 16.6364H46.5138L46.5209 16.6374H46.5279C46.6528 16.6374 46.7666 16.6135 46.8446 16.5328C46.9136 16.4611 46.9275 16.3695 46.9336 16.3247C46.9336 16.3217 46.9345 16.3187 46.9345 16.3167C46.9375 16.2978 46.9395 16.2838 46.9425 16.2709L46.9466 16.2539V15.2548C46.9466 15.1333 46.9386 15.0217 46.8916 14.936C46.8336 14.8294 46.7367 14.7956 46.6587 14.7786L46.6518 14.7776L46.6448 14.7766H46.6418L46.6338 14.7756C46.6268 14.7746 46.6167 14.7737 46.6037 14.7727C46.5768 14.7697 46.5368 14.7657 46.4839 14.7607C46.3769 14.7507 46.2171 14.7378 46.0013 14.7248C45.5696 14.6989 44.9142 14.673 44.0168 14.673H44.0138H44.0109C42.8618 14.7159 41.9904 15.0346 41.4039 15.5387C40.8164 16.0437 40.5266 16.7251 40.5266 17.4623C40.5266 17.9474 40.6386 18.3448 40.8364 18.6726C41.0332 18.9994 41.31 19.2473 41.6257 19.4416C42.2482 19.8231 43.0456 20.0074 43.74 20.1678L43.754 20.1708C44.2607 20.2873 44.7054 20.3909 45.0251 20.5423C45.3409 20.6917 45.4877 20.864 45.4877 21.1042C45.4877 21.3044 45.3948 21.4827 45.17 21.6191C44.9361 21.7606 44.5574 21.8552 43.9999 21.8552C43.3663 21.8552 42.6749 21.7875 42.1393 21.7187C41.8715 21.6849 41.6447 21.6501 41.4838 21.6241C41.4039 21.6112 41.34 21.6002 41.2971 21.5933C41.285 21.5913 41.275 21.5893 41.2661 21.5883C41.259 21.5874 41.252 21.5863 41.247 21.5853L41.2351 21.5833L41.231 21.5824L41.217 21.5794H41.202C41.0881 21.5794 40.9802 21.6002 40.9044 21.677C40.8374 21.7437 40.8223 21.8324 40.8164 21.8732C40.8154 21.8762 40.8154 21.8791 40.8154 21.8811C40.8114 21.903 40.8084 21.9171 40.8054 21.931L40.8013 21.9469L40.7365 23.0735V23.0776C40.7365 23.1512 40.7474 23.2389 40.7874 23.3176C40.8284 23.4012 40.9023 23.476 41.0153 23.5049L41.0192 23.5058L41.0233 23.5069L41.0283 23.481C41.0233 23.5069 41.0233 23.5069 41.0233 23.5069H41.0242L41.0272 23.5078C41.0292 23.5089 41.0332 23.5089 41.0382 23.5099C41.0472 23.5119 41.0612 23.5138 41.0792 23.5178C41.1151 23.5247 41.1671 23.5338 41.236 23.5447C41.374 23.5666 41.5748 23.5955 41.8345 23.6254C42.3522 23.6842 43.0995 23.742 44.0188 23.742H44.0259C44.1387 23.743 45.057 23.75 45.9533 23.4142C46.4029 23.2458 46.8567 22.9879 47.1983 22.5914C47.5431 22.1919 47.7658 21.659 47.7658 20.9597C47.7658 20.4796 47.653 20.0851 47.4552 19.7604C47.2572 19.4366 46.9806 19.1915 46.6637 19.0003ZM57.8577 14.8408H56.2189C56.062 14.8408 55.9271 14.9643 55.9271 15.1267V19.813C55.9271 20.7862 55.1057 21.5841 54.0805 21.5841C54.0755 21.5841 54.0716 21.5841 54.0666 21.5841C54.0616 21.5841 54.0576 21.5841 54.0526 21.5841C53.0274 21.5841 52.206 20.7862 52.206 19.813V15.1267C52.206 14.9643 52.0711 14.8408 51.9143 14.8408H50.2756C50.1186 14.8408 49.9838 14.9643 49.9838 15.1267V19.813C49.9838 21.9826 51.8103 23.7318 54.0526 23.7318C54.0576 23.7318 54.0616 23.7318 54.0666 23.7318C54.0716 23.7318 54.0755 23.7318 54.0805 23.7318C56.3218 23.7318 58.1494 21.9826 58.1494 19.813V15.1267C58.1494 14.9643 58.0145 14.8408 57.8577 14.8408Z" fill="#666665"/>
    </g>
    <defs>
        <clipPath id="clip0_1337_24582">
            <rect width="105" height="32" fill="white" transform="translate(0.5)"/>
        </clipPath>
    </defs>
</svg>
