<?xml version="1.0" encoding="UTF-8"?>
<svg width="32px" height="32px" viewBox="0 0 32 32" version="1.1" xmlns="http://www.w3.org/2000/svg" xmlns:xlink="http://www.w3.org/1999/xlink">
    <!-- Generator: Sketch 59.1 (86144) - https://sketch.com -->
    <title>Icons/24/icon-search-24</title>
    <desc>Created with Sketch.</desc>
    <g id="Icons/24/icon-search-24" stroke="none" stroke-width="1" fill="none" fill-rule="evenodd">
        <path d="M21.5364272,17.4448218 C21.8616386,16.5761747 22,15.9418558 22,15.1214719 C22,11.1719058 18.9137431,8 15,8 C11.0862569,8 8,11.1719058 8,15.1214719 C8,19.0360939 11.0511605,22 15,22 C15.8570581,22 16.8480943,21.7776248 17.986586,21.3442569 C18.6972379,21.0737356 19.4998089,21.2296098 20.0575372,21.7464671 L23.8202789,25.2334707 L25.1797211,23.7665293 L21.4169794,20.2795257 C20.3015221,19.2458105 18.6963688,18.93406 17.2750749,19.4750989 C16.3458067,19.8288256 15.5829517,20 15,20 C12.1429523,20 10,17.91833 10,15.1214719 C10,12.2644085 12.2032642,10 15,10 C17.7967358,10 20,12.2644085 20,15.1214719 C20,15.6742622 19.9110362,16.0821173 19.6633925,16.7435796 L21.5364272,17.4448218 Z" id="Path-Copy" fill="currentColor" fill-rule="nonzero"></path>
    </g>
</svg>