<?xml version="1.0" encoding="UTF-8"?>
<svg width="32px" height="32px" viewBox="0 0 32 32" version="1.1" xmlns="http://www.w3.org/2000/svg" xmlns:xlink="http://www.w3.org/1999/xlink">
    <!-- Generator: Sketch 59.1 (86144) - https://sketch.com -->
    <title>Icons/24/icon-login-right-24</title>
    <desc>Created with Sketch.</desc>
    <g id="Icons/24/icon-login-right-24" stroke="none" stroke-width="1" fill="none" fill-rule="evenodd">
        <path d="M21,7 C22.6568542,7 24,8.34314575 24,10 L24,22 C24,23.6568542 22.6568542,25 21,25 L13,25 C11.4023191,25 10.0912464,23.5748072 10,22 L10,20 L12,20 L12,22 C12,22.5128358 12.3860402,22.9355072 12.8833789,22.9932723 L13,23 L21,23 C21.5522847,23 22,22.5522847 22,22 L22,10 C22,9.44771525 21.5522847,9 21,9 L13,9 C12.4477153,9 12,9.44771525 12,10 L12,12 L10,12 L10,10 C10,8.34314575 11.3431458,7 13,7 L21,7 Z M15.671534,11.6568542 L20.014214,16 L15.685534,20.3282136 L14.271534,18.9142136 L16.5,16.9995339 L7,17 L7,14.9951404 L16.5,14.9995339 L14.257534,13.0708542 L15.671534,11.6568542 Z" id="Shape" fill="#252525" fill-rule="nonzero"></path>
    </g>
</svg>