<?xml version="1.0" encoding="UTF-8"?>
<svg width="32px" height="32px" viewBox="0 0 32 32" version="1.1" xmlns="http://www.w3.org/2000/svg" xmlns:xlink="http://www.w3.org/1999/xlink">
    <!-- Generator: Sketch 59.1 (86144) - https://sketch.com -->
    <title>Icons/24/icon-rouble-24</title>
    <desc>Created with Sketch.</desc>
    <g id="Icons/24/icon-rouble-24" stroke="none" stroke-width="1" fill="none" fill-rule="evenodd">
        <path d="M14,23 L12,23 L12,21 L10,21 L10,19 L12,19 L12,17 L10,17 L10,15 L12,15 L12,9 L17,9 C20.7692543,9 22,10.5270916 22,13 C22,15.4729084 20.7692543,17 16.9550223,17 L16.9550223,17 L14,17 L14,19 L19,19 L19,21 L14,21 L14,23 Z M17.2550223,11 L14,11 L14,15 L17.2550223,15 C19.6011505,15 20,14.2712221 20,13 C20,11.7287779 19.4917917,11 17.2550223,11 L17.2550223,11 Z" id="Combined-Shape" fill="#252525" fill-rule="nonzero"></path>
    </g>
</svg>