<svg width="32" height="32" viewBox="0 0 32 32" xmlns="http://www.w3.org/2000/svg">
	<title>
		Icons/24/icon-elipsis-24
	</title>
	<desc>
		Created with Sketch.
	</desc>
	<path d="M10.5 14c.828 0 1.5.672 1.5 1.5v1c0 .828-.672 1.5-1.5 1.5h-1c-.828 0-1.5-.672-1.5-1.5v-1c0-.828.672-1.5 1.5-1.5h1zm6 0c.828 0 1.5.672 1.5 1.5v1c0 .828-.672 1.5-1.5 1.5h-1c-.828 0-1.5-.672-1.5-1.5v-1c0-.828.672-1.5 1.5-1.5h1zm6 0c.828 0 1.5.672 1.5 1.5v1c0 .828-.672 1.5-1.5 1.5h-1c-.828 0-1.5-.672-1.5-1.5v-1c0-.828.672-1.5 1.5-1.5h1z" fill="currentColor" fill-rule="nonzero" />
</svg>
