<svg width="32" height="32" viewBox="0 0 32 32" fill="none" xmlns="http://www.w3.org/2000/svg">
<path d="M12 15H15V17H12V15Z" fill="currentColor"/>
<path d="M15 19H12V21H15V19Z" fill="currentColor"/>
<path d="M17 19H20V21H17V19Z" fill="currentColor"/>
<path d="M20 15H17V17H20V15Z" fill="currentColor"/>
<path fill-rule="evenodd" clip-rule="evenodd" d="M12 5H14V7H18V5H20V7H21C22.6569 7 24 8.34315 24 10V22C24 23.6569 22.6569 25 21 25H11C9.34315 25 8 23.6569 8 22V10C8 8.34315 9.34315 7 11 7H12V5ZM10 13V22C10 22.5523 10.4477 23 11 23H21C21.5523 23 22 22.5523 22 22V13H10ZM10 11H22V10C22 9.44772 21.5523 9 21 9H11C10.4477 9 10 9.44772 10 10V11Z" fill="currentColor"/>
</svg>
