<svg width="108" height="32" viewBox="0 0 108 32" fill="none" xmlns="http://www.w3.org/2000/svg">
    <path d="M104 0H4C2.93913 0 1.92172 0.421427 1.17157 1.17157C0.421427 1.92172 0 2.93913 0 4L0 28C0 29.0609 0.421427 30.0783 1.17157 30.8284C1.92172 31.5786 2.93913 32 4 32H104C105.061 32 106.078 31.5786 106.828 30.8284C107.579 30.0783 108 29.0609 108 28V4C108 2.93913 107.579 1.92172 106.828 1.17157C106.078 0.421427 105.061 0 104 0V0Z" fill="black"/>
    <path d="M54.512 17.4C53.8381 17.4016 53.1799 17.603 52.6204 17.9787C52.061 18.3543 51.6255 18.8875 51.3691 19.5106C51.1126 20.1338 51.0467 20.819 51.1797 21.4796C51.3127 22.1402 51.6385 22.7466 52.1161 23.222C52.5936 23.6974 53.2015 24.0206 53.8627 24.1506C54.5239 24.2806 55.2088 24.2116 55.8308 23.9523C56.4528 23.6931 56.9839 23.2553 57.3571 22.6941C57.7303 22.133 57.9287 21.4739 57.9273 20.8C57.934 20.3503 57.8501 19.9039 57.6806 19.4873C57.5111 19.0707 57.2595 18.6925 56.9407 18.3752C56.6219 18.0579 56.2425 17.808 55.8252 17.6405C55.4078 17.473 54.9609 17.3912 54.5113 17.4H54.512ZM54.512 22.864C54.0988 22.8929 53.6866 22.7969 53.3288 22.5883C52.9709 22.3798 52.6841 22.0685 52.5056 21.6948C52.3271 21.3211 52.2651 20.9023 52.3277 20.4929C52.3903 20.0836 52.5747 19.7025 52.8568 19.3993C53.1388 19.096 53.5056 18.8847 53.9094 18.7926C54.3132 18.7006 54.7353 18.7322 55.1209 18.8833C55.5065 19.0344 55.8378 19.298 56.0716 19.6398C56.3054 19.9816 56.431 20.3859 56.432 20.8C56.4448 21.0624 56.4049 21.3247 56.3148 21.5715C56.2246 21.8182 56.086 22.0444 55.9071 22.2368C55.7281 22.4291 55.5125 22.5837 55.2729 22.6914C55.0333 22.7991 54.7746 22.8578 54.512 22.864ZM47.056 17.4C46.3822 17.4018 45.724 17.6032 45.1646 17.979C44.6053 18.3548 44.1699 18.8879 43.9136 19.5111C43.6573 20.1343 43.5915 20.8195 43.7245 21.48C43.8576 22.1406 44.1835 22.7469 44.6611 23.2222C45.1387 23.6976 45.7465 24.0207 46.4077 24.1506C47.0688 24.2805 47.7537 24.2115 48.3757 23.9523C48.9976 23.693 49.5288 23.2552 49.9019 22.6941C50.275 22.133 50.4734 21.4739 50.472 20.8C50.4787 20.3503 50.3948 19.9039 50.2253 19.4873C50.0558 19.0707 49.8042 18.6925 49.4854 18.3752C49.1667 18.0579 48.7873 17.808 48.3699 17.6405C47.9525 17.473 47.5057 17.3912 47.056 17.4ZM47.056 22.864C46.6428 22.8929 46.2306 22.7969 45.8728 22.5883C45.5149 22.3798 45.2281 22.0685 45.0496 21.6948C44.8711 21.3211 44.8091 20.9023 44.8717 20.4929C44.9343 20.0836 45.1187 19.7025 45.4008 19.3993C45.6828 19.096 46.0496 18.8847 46.4534 18.7926C46.8572 18.7006 47.2793 18.7322 47.6649 18.8833C48.0505 19.0344 48.3818 19.298 48.6156 19.6398C48.8494 19.9816 48.975 20.3859 48.976 20.8C48.9888 21.0624 48.9489 21.3247 48.8588 21.5715C48.7686 21.8182 48.63 22.0444 48.4511 22.2368C48.2721 22.4291 48.0565 22.5837 47.8169 22.6914C47.5773 22.7991 47.3186 22.8578 47.056 22.864ZM38.192 18.448V19.888H41.648C41.5938 20.5663 41.3119 21.2063 40.848 21.704C40.5013 22.0573 40.0844 22.3338 39.6241 22.5157C39.1638 22.6976 38.6705 22.7808 38.176 22.76C37.1575 22.76 36.1808 22.3555 35.4607 21.6353C34.7405 20.9152 34.336 19.9385 34.336 18.92C34.336 17.9016 34.7405 16.9249 35.4607 16.2047C36.1808 15.4846 37.1575 15.08 38.176 15.08C39.1523 15.0655 40.0951 15.4363 40.8 16.112L41.816 15.096C41.3392 14.6244 40.773 14.2527 40.1507 14.0027C39.5285 13.7527 38.8625 13.6294 38.192 13.64C37.4793 13.6099 36.7678 13.7242 36.1005 13.9762C35.4331 14.2281 34.8236 14.6125 34.3086 15.1061C33.7937 15.5997 33.3839 16.1925 33.1039 16.8486C32.824 17.5047 32.6797 18.2107 32.6797 18.924C32.6797 19.6374 32.824 20.3433 33.1039 20.9995C33.3839 21.6556 33.7937 22.2483 34.3086 22.7419C34.8236 23.2356 35.4331 23.6199 36.1005 23.8719C36.7678 24.1238 37.4793 24.2382 38.192 24.208C38.8762 24.2353 39.5584 24.1175 40.1939 23.8624C40.8294 23.6073 41.4037 23.2207 41.8793 22.728C42.7196 21.8053 43.1675 20.5915 43.128 19.344C43.1306 19.0438 43.1063 18.7439 43.0553 18.448H38.192ZM74.44 19.568C74.2312 18.9543 73.841 18.4185 73.321 18.0314C72.801 17.6442 72.1758 17.4241 71.528 17.4C71.0904 17.3992 70.6573 17.4881 70.2554 17.6613C69.8535 17.8344 69.4914 18.0882 69.1915 18.4069C68.8916 18.7255 68.6602 19.1023 68.5117 19.5139C68.3631 19.9256 68.3006 20.3633 68.328 20.8C68.3211 21.5303 68.5507 22.2432 68.9825 22.8322C69.4142 23.4213 70.0249 23.8548 70.7234 24.0681C71.4218 24.2815 72.1706 24.2631 72.8577 24.0158C73.5449 23.7685 74.1336 23.3055 74.536 22.696L73.376 21.896C73.203 22.1844 72.9577 22.4225 72.6642 22.5867C72.3708 22.7509 72.0395 22.8355 71.7033 22.832C71.3566 22.8463 71.0138 22.7554 70.7198 22.5712C70.4258 22.387 70.1944 22.1182 70.056 21.8L74.608 19.92L74.44 19.568ZM69.8 20.704C69.7838 20.4555 69.8173 20.2063 69.8986 19.9709C69.9799 19.7355 70.1074 19.5188 70.2735 19.3332C70.4396 19.1477 70.6411 18.9972 70.8661 18.8906C71.0912 18.7839 71.3352 18.7232 71.584 18.712C71.8417 18.6963 72.0984 18.757 72.3218 18.8865C72.5453 19.016 72.7255 19.2085 72.84 19.44L69.8 20.704ZM66.104 24H67.6V14H66.104V24ZM63.656 18.16H63.6C63.3728 17.9128 63.0954 17.717 62.7863 17.5859C62.4772 17.4549 62.1436 17.3915 61.808 17.4C60.9337 17.4424 60.1093 17.8196 59.5056 18.4533C58.9018 19.087 58.565 19.9287 58.565 20.804C58.565 21.6793 58.9018 22.521 59.5056 23.1548C60.1093 23.7885 60.9337 24.1656 61.808 24.208C62.1472 24.2148 62.4836 24.1467 62.7934 24.0084C63.1032 23.8701 63.3786 23.6651 63.6 23.408H63.656V23.896C63.656 25.2 62.96 25.896 61.84 25.896C61.4658 25.8878 61.1026 25.7686 60.7963 25.5535C60.4901 25.3384 60.2547 25.0372 60.12 24.688L58.824 25.224C59.0636 25.8258 59.4802 26.3407 60.0187 26.7007C60.5572 27.0607 61.1923 27.2487 61.84 27.24C63.592 27.24 65.04 26.208 65.04 23.696V17.6H63.656V18.16ZM61.936 22.864C61.4097 22.8344 60.9148 22.6044 60.5527 22.2213C60.1906 21.8382 59.9889 21.3311 59.9889 20.804C59.9889 20.2769 60.1906 19.7698 60.5527 19.3867C60.9148 19.0037 61.4097 18.7737 61.936 18.744C62.1922 18.7551 62.4435 18.8176 62.6751 18.9277C62.9066 19.0379 63.1136 19.1935 63.2838 19.3854C63.454 19.5772 63.5838 19.8013 63.6656 20.0443C63.7475 20.2873 63.7795 20.5443 63.76 20.8C63.7818 21.0566 63.7514 21.3149 63.6705 21.5594C63.5897 21.8038 63.4601 22.0293 63.2896 22.2223C63.1191 22.4152 62.9112 22.5715 62.6785 22.6819C62.4459 22.7922 62.1933 22.8541 61.936 22.864ZM81.4473 14H77.8633V24H79.3593V20.208H81.4473C81.8727 20.2372 82.2997 20.1785 82.7016 20.0357C83.1034 19.8929 83.4717 19.669 83.7834 19.378C84.0951 19.0869 84.3436 18.7348 84.5135 18.3436C84.6834 17.9525 84.7711 17.5305 84.7711 17.104C84.7711 16.6775 84.6834 16.2556 84.5135 15.8644C84.3436 15.4733 84.0951 15.1212 83.7834 14.8301C83.4717 14.539 83.1034 14.3151 82.7016 14.1723C82.2997 14.0295 81.8727 13.9709 81.4473 14ZM81.4473 18.8H79.3593V15.392H81.4792C81.8181 15.3915 82.1494 15.4916 82.4312 15.6796C82.7131 15.8676 82.9327 16.1351 83.0624 16.4481C83.192 16.7611 83.2258 17.1056 83.1594 17.4378C83.093 17.77 82.9294 18.0751 82.6894 18.3142C82.3687 18.6357 81.9331 18.816 81.4792 18.816L81.4473 18.8ZM90.6793 17.368C90.1345 17.3346 89.5919 17.4615 89.1184 17.7331C88.645 18.0046 88.2615 18.4089 88.0153 18.896L89.3353 19.448C89.4684 19.2073 89.6685 19.0104 89.9113 18.8812C90.1541 18.7519 90.4292 18.696 90.7033 18.72C90.8932 18.6976 91.0857 18.7134 91.2695 18.7663C91.4533 18.8192 91.6247 18.9082 91.7737 19.0281C91.9226 19.148 92.0462 19.2965 92.1371 19.4647C92.2281 19.633 92.2845 19.8177 92.3033 20.008V20.104C91.8222 19.8512 91.2867 19.7194 90.7433 19.72C89.3193 19.72 87.8633 20.52 87.8633 21.976C87.877 22.2856 87.953 22.5892 88.0867 22.8687C88.2204 23.1483 88.4091 23.398 88.6414 23.6029C88.8734 23.8083 89.1443 23.9648 89.4381 24.0633C89.7318 24.1617 90.0424 24.2001 90.3513 24.176C90.7267 24.197 91.1009 24.1177 91.4356 23.9461C91.7702 23.7746 92.0531 23.5171 92.2552 23.2H92.3033V24H93.7433V20.152C93.7433 18.4 92.4152 17.384 90.7113 17.384L90.6793 17.368ZM90.4953 22.848C90.0073 22.848 89.3273 22.6 89.3273 22C89.3273 21.2 90.1753 20.928 90.9273 20.928C91.4025 20.9164 91.8721 21.0324 92.2873 21.264C92.237 21.6985 92.031 22.1 91.7074 22.3942C91.3838 22.6884 90.9645 22.8553 90.5273 22.864L90.4953 22.848ZM98.9913 17.6L97.2793 21.936H97.2312L95.4553 17.6H93.8552L96.5193 23.664L94.9992 27.032H96.5993L100.655 17.6H98.9913ZM85.5513 24H87.0393V14H85.5513V24Z" fill="white"/>
    <path d="M8.35214 6.03203C8.09713 6.34727 7.97132 6.74758 8.00014 7.15203V24.848C7.97292 25.2563 8.10806 25.6589 8.37614 25.968L8.43214 26.032L18.3201 16.12V15.88L8.40814 5.97603L8.35214 6.03203Z" fill="url(#paint0_linear_84_5321)"/>
    <path d="M21.5998 19.424L18.3198 16.1201V15.88L21.5998 12.576L21.6718 12.624L25.5991 14.8481C26.7191 15.4801 26.7191 16.52 25.5991 17.16L21.6878 19.384L21.5998 19.424Z" fill="url(#paint1_linear_84_5321)"/>
    <path d="M21.6961 19.376L18.3201 16L8.35205 25.968C8.57811 26.1692 8.86746 26.285 9.16993 26.2952C9.4724 26.3054 9.76891 26.2095 10.0081 26.024L21.6953 19.376" fill="url(#paint2_linear_84_5321)"/>
    <path d="M21.6958 12.624L10.0071 5.98405C9.76949 5.79598 9.47321 5.69769 9.17033 5.70647C8.86745 5.71525 8.57736 5.83053 8.35107 6.03205L18.3198 16L21.6958 12.624Z" fill="url(#paint3_linear_84_5321)"/>
    <path opacity="0.2" d="M21.6001 19.304L10.0073 25.904C9.77688 26.0779 9.49603 26.172 9.20732 26.172C8.91861 26.172 8.63777 26.0779 8.40732 25.904L8.35205 25.96L8.40805 26.024C8.63849 26.1979 8.91934 26.292 9.20805 26.292C9.49676 26.292 9.77761 26.1979 10.0081 26.024L21.6953 19.376L21.6001 19.304Z" fill="black"/>
    <path opacity="0.12" d="M8.3522 25.856C8.09523 25.5387 7.9693 25.1351 8.0002 24.728V24.848C7.97289 25.2563 8.10804 25.6589 8.3762 25.968L8.43219 25.912L8.3522 25.856ZM25.6002 17.04L21.6002 19.304L21.6729 19.376L25.6002 17.152C25.8321 17.054 26.0332 16.8952 26.1824 16.6925C26.3317 16.4897 26.4235 16.2505 26.4482 16C26.3982 16.2277 26.2954 16.4404 26.1481 16.621C26.0008 16.8017 25.8131 16.9452 25.6002 17.04Z" fill="black"/>
    <path opacity="0.25" d="M10.008 6.09599L25.6 14.96C25.8129 15.0549 26.0005 15.1984 26.1478 15.379C26.2951 15.5597 26.3979 15.7724 26.448 16C26.4233 15.7495 26.3315 15.5103 26.1822 15.3075C26.033 15.1048 25.8319 14.946 25.6 14.848L10.008 5.98399C8.896 5.34399 8 5.87199 8 7.15199V7.27272C8 5.99272 8.896 5.46472 10.008 6.09672V6.09599Z" fill="white"/>
    <path d="M33.6873 11.416H33.104V9.81597H33.6C33.8232 9.5737 33.991 9.2858 34.0918 8.97223C34.1927 8.65866 34.2241 8.32691 34.184 7.99997V5.59997H37.384V9.80797H37.92V11.408H37.328V10.4H33.6873V11.416ZM34.8 7.99997C34.8357 8.6426 34.6768 9.28106 34.344 9.83197H36.744V6.19197H34.8V7.99997ZM42.728 9.77597C42.4969 10.0071 42.2225 10.1905 41.9205 10.3156C41.6185 10.4407 41.2949 10.5051 40.968 10.5051C40.6411 10.5051 40.3175 10.4407 40.0155 10.3156C39.7135 10.1905 39.4391 10.0071 39.208 9.77597C38.9783 9.54174 38.7977 9.26398 38.6768 8.959C38.5559 8.65402 38.4972 8.32797 38.504 7.99997C38.4961 7.67253 38.5535 7.3468 38.6731 7.04184C38.7926 6.73689 38.9717 6.45884 39.2 6.22397C39.431 5.99264 39.7054 5.80911 40.0074 5.6839C40.3094 5.55868 40.6331 5.49423 40.96 5.49423C41.2869 5.49423 41.6107 5.55868 41.9126 5.6839C42.2146 5.80911 42.489 5.99264 42.72 6.22397C42.9526 6.4569 43.1361 6.73407 43.2597 7.0391C43.3834 7.34414 43.4447 7.67086 43.44 7.99997C43.4496 8.32902 43.3913 8.65652 43.2688 8.96207C43.1463 9.26762 42.9622 9.54467 42.728 9.77597ZM39.664 9.37597C39.8326 9.55104 40.0353 9.68966 40.2596 9.78323C40.4839 9.8768 40.725 9.92334 40.968 9.91997C41.2112 9.92479 41.4528 9.87891 41.6773 9.78525C41.9018 9.69159 42.1043 9.55221 42.272 9.37597C42.4507 9.1955 42.5905 8.98026 42.6827 8.74357C42.7749 8.50689 42.8176 8.2538 42.808 7.99997C42.8177 7.74613 42.7751 7.49302 42.6829 7.25632C42.5907 7.01962 42.4508 6.80439 42.272 6.62397C42.1043 6.44777 41.9017 6.30841 41.6772 6.21475C41.4527 6.1211 41.2112 6.07519 40.968 6.07997C40.725 6.0766 40.4839 6.12314 40.2596 6.21671C40.0353 6.31029 39.8326 6.4489 39.664 6.62397C39.4878 6.80594 39.3503 7.02162 39.2595 7.25807C39.1688 7.49453 39.1268 7.74687 39.136 7.99997C39.1268 8.25307 39.1688 8.50541 39.2595 8.74187C39.3503 8.97832 39.4878 9.194 39.664 9.37597ZM46.544 10.504C46.2137 10.5107 45.8854 10.4505 45.579 10.327C45.2726 10.2035 44.9944 10.0191 44.7611 9.78514C44.5279 9.55115 44.3444 9.27234 44.2219 8.96553C44.0993 8.65872 44.0402 8.33026 44.048 7.99997C44.0414 7.66534 44.1049 7.33304 44.2344 7.02442C44.364 6.7158 44.5566 6.4377 44.8 6.20797C45.0314 5.97384 45.3084 5.78982 45.614 5.66733C45.9195 5.54484 46.247 5.48651 46.576 5.49597C46.9109 5.4865 47.2436 5.55364 47.5486 5.69228C47.8536 5.83093 48.1229 6.03741 48.336 6.29597L47.912 6.71197C47.7548 6.5099 47.5515 6.3485 47.319 6.24131C47.0865 6.13412 46.8317 6.08428 46.576 6.09597C46.3298 6.08969 46.0848 6.13402 45.8564 6.22622C45.628 6.31841 45.4209 6.45651 45.248 6.63197C45.0643 6.80858 44.919 7.02127 44.8214 7.25669C44.7238 7.4921 44.6759 7.74516 44.6807 7.99997C44.6644 8.3796 44.7655 8.75503 44.9702 9.07516C45.1749 9.39529 45.4733 9.64456 45.8247 9.78906C46.0531 9.88215 46.2975 9.92652 46.5447 9.91997C46.8237 9.91871 47.0988 9.85564 47.3505 9.73529C47.6021 9.61494 47.8239 9.44032 48 9.22397L48.432 9.64797C48.2129 9.91062 47.9401 10.1234 47.632 10.272C47.2916 10.4312 46.9193 10.5105 46.544 10.504ZM50.9447 10.4H50.3273V6.19197H48.984V5.59997H52.2793V6.19197H50.9433V10.4H50.9447ZM56.52 5.59997L54.704 9.64797C54.6598 9.8102 54.581 9.9609 54.4728 10.0896C54.3647 10.2184 54.2299 10.3221 54.0777 10.3936C53.9256 10.4651 53.7597 10.5028 53.5916 10.5038C53.4234 10.5049 53.2571 10.4695 53.104 10.4L53.264 9.83197C53.3619 9.88695 53.4718 9.91716 53.584 9.91997C53.7024 9.92591 53.8197 9.89518 53.92 9.83197C54.0175 9.75124 54.0916 9.64652 54.136 9.52797L54.312 9.14397L52.696 5.59997H53.424L54.608 8.35197L55.792 5.59997H56.52ZM57.216 10.4V5.59997H60.688V10.4H60.072V6.19197H57.832V10.4H57.216ZM61.784 10.4V5.59997H62.4V7.65597H64.8V5.59997H65.424V10.4H64.8V8.23197H62.4V10.4H61.784ZM70.448 9.77597C70.1583 10.0658 69.8014 10.2796 69.4092 10.3983C69.0169 10.5169 68.6015 10.5369 68.1996 10.4563C67.7978 10.3756 67.4222 10.197 67.1061 9.93622C66.7899 9.67544 66.5431 9.34058 66.3876 8.96142C66.2651 8.65609 66.2067 8.32883 66.216 7.99997C66.2066 7.67089 66.2651 7.34339 66.3877 7.03786C66.5103 6.73233 66.6945 6.45529 66.9287 6.22397C67.1591 5.99308 67.4327 5.80989 67.734 5.68491C68.0353 5.55992 68.3582 5.49558 68.6844 5.49558C69.0105 5.49558 69.3335 5.55992 69.6347 5.68491C69.936 5.80989 70.2096 5.99308 70.44 6.22397C70.6743 6.45529 70.8584 6.73233 70.981 7.03786C71.1036 7.34339 71.1621 7.67089 71.1527 7.99997C71.1631 8.32848 71.1059 8.65562 70.9847 8.96113C70.8635 9.26663 70.6808 9.54397 70.448 9.77597ZM67.384 9.37597C67.5516 9.55228 67.7542 9.69171 67.9787 9.78538C68.2032 9.87904 68.4448 9.92488 68.688 9.91997C68.931 9.92343 69.1722 9.87693 69.3965 9.78335C69.6208 9.68977 69.8235 9.55111 69.992 9.37597C70.1681 9.19398 70.3057 8.97829 70.3964 8.74185C70.4871 8.5054 70.5292 8.25306 70.52 7.99997C70.5292 7.74687 70.4872 7.49453 70.3965 7.25807C70.3057 7.02162 70.1682 6.80594 69.992 6.62397C69.8234 6.4489 69.6207 6.31029 69.3964 6.21671C69.1721 6.12314 68.931 6.0766 68.688 6.07997C68.4448 6.07519 68.2033 6.1211 67.9788 6.21475C67.7543 6.30841 67.5517 6.44777 67.384 6.62397C67.2053 6.80444 67.0655 7.01968 66.9733 7.25637C66.8811 7.49305 66.8384 7.74614 66.848 7.99997C66.8383 8.25381 66.8809 8.50692 66.9731 8.74362C67.0653 8.98032 67.2052 9.19555 67.384 9.37597ZM73.672 10.4V5.59997H75.408C75.7679 5.59636 76.1161 5.72765 76.384 5.96797C76.5177 6.08395 76.6243 6.22792 76.6962 6.38967C76.7681 6.55142 76.8035 6.727 76.8 6.90397C76.8015 7.11924 76.7404 7.33088 76.624 7.51197C76.5059 7.68388 76.3425 7.81979 76.152 7.9047C76.3818 7.98106 76.5825 8.12579 76.728 8.31997C76.8807 8.51342 76.9622 8.75343 76.96 8.99997C76.9638 9.18436 76.9271 9.36734 76.8525 9.53599C76.7778 9.70463 76.6671 9.85483 76.528 9.97597C76.2504 10.2345 75.8833 10.3753 75.504 10.3687L73.672 10.4ZM74.288 7.65597H75.408C75.5128 7.66214 75.6176 7.64447 75.7146 7.60429C75.8116 7.5641 75.8983 7.50245 75.968 7.42397C76.1034 7.29086 76.181 7.10982 76.184 6.91997C76.1913 6.72943 76.1258 6.54324 76 6.39997C75.9325 6.32572 75.8495 6.26719 75.7569 6.22849C75.6642 6.18978 75.5643 6.17186 75.464 6.17597H74.288V7.65597ZM74.288 9.8087H75.528C75.6377 9.81318 75.747 9.79319 75.848 9.75017C75.9491 9.70715 76.0392 9.64218 76.112 9.55997C76.2501 9.41243 76.3273 9.21808 76.328 9.01597C76.3243 8.85997 76.2753 8.70842 76.1868 8.57989C76.0983 8.45136 75.9742 8.35143 75.8298 8.29233C75.7266 8.24961 75.6156 8.22905 75.504 8.23197H74.288V9.80797V9.8087Z" fill="white" stroke="white" stroke-width="0.145455" stroke-miterlimit="10"/>
    <defs>
        <linearGradient id="paint0_linear_84_5321" x1="17.4401" y1="6.96803" x2="4.01614" y2="20.392" gradientUnits="userSpaceOnUse">
            <stop stop-color="#00A0FF"/>
            <stop offset="0.01" stop-color="#00A1FF"/>
            <stop offset="0.26" stop-color="#00BEFF"/>
            <stop offset="0.51" stop-color="#00D2FF"/>
            <stop offset="0.76" stop-color="#00DFFF"/>
            <stop offset="1" stop-color="#00E3FF"/>
        </linearGradient>
        <linearGradient id="paint1_linear_84_5321" x1="27.0638" y1="16.0001" x2="7.71182" y2="16.0001" gradientUnits="userSpaceOnUse">
            <stop stop-color="#FFE000"/>
            <stop offset="0.41" stop-color="#FFBD00"/>
            <stop offset="0.78" stop-color="#FFA500"/>
            <stop offset="1" stop-color="#FF9C00"/>
        </linearGradient>
        <linearGradient id="paint2_linear_84_5321" x1="19.8641" y1="17.84" x2="1.65605" y2="36.04" gradientUnits="userSpaceOnUse">
            <stop stop-color="#FF3A44"/>
            <stop offset="1" stop-color="#C31162"/>
        </linearGradient>
        <linearGradient id="paint3_linear_84_5321" x1="5.8398" y1="0.144048" x2="13.9678" y2="8.27205" gradientUnits="userSpaceOnUse">
            <stop stop-color="#32A071"/>
            <stop offset="0.07" stop-color="#2DA771"/>
            <stop offset="0.48" stop-color="#15CF74"/>
            <stop offset="0.8" stop-color="#06E775"/>
            <stop offset="1" stop-color="#00F076"/>
        </linearGradient>
    </defs>
</svg>
