<svg width="33" height="32" viewBox="0 0 33 32" fill="none" xmlns="http://www.w3.org/2000/svg">
<path d="M17.8644 11.1886C18.6722 11.4173 19.3969 11.844 19.9827 12.4129L22.0619 11.637L23.0624 13.3699L21.3488 14.7769C21.4473 15.1683 21.4995 15.5781 21.4995 16C21.4995 16.4228 21.4471 16.8333 21.3483 17.2254L23.0584 18.637L22.0579 20.3699L19.981 19.5888C19.395 20.1574 18.6701 20.5838 17.8621 20.8121L17.4945 23H15.4935L15.1315 20.8106C14.3246 20.5815 13.6007 20.1549 13.0155 19.5863L10.9341 20.363L9.93359 18.6301L11.6497 17.2211C11.5516 16.8303 11.4995 16.4212 11.4995 16C11.4995 15.578 11.5518 15.1681 11.6503 14.7766L9.93759 13.363L10.9381 11.6301L13.0172 12.4121C13.6026 11.8437 14.3267 11.4175 15.1338 11.1888L15.5015 9H17.5025L17.8644 11.1886ZM16.4995 19C18.1564 19 19.4995 17.6569 19.4995 16C19.4995 14.3431 18.1564 13 16.4995 13C14.8427 13 13.4995 14.3431 13.4995 16C13.4995 17.6569 14.8427 19 16.4995 19Z" fill="#643FFF"/>
</svg>
