<svg width="32" height="32" viewBox="0 0 32 32" fill="currentColor" xmlns="http://www.w3.org/2000/svg">
<path d="M20.3535 11.6464L23.6464 14.9393C24.2322 15.5251 24.2322 16.4749 23.6464 17.0607L20.3535 20.3535C17.9491 22.7579 14.0508 22.7579 11.6464 20.3535L8.35352 17.0607C7.76774 16.4749 7.76774 15.5251 8.35352 14.9393L11.6464 11.6464C14.0508 9.24204 17.9491 9.24204 20.3535 11.6464ZM19.6464 12.3535C17.6325 10.3397 14.3674 10.3397 12.3535 12.3535L9.06063 15.6464C8.86537 15.8417 8.86537 16.1583 9.06063 16.3535L12.3535 19.6464C14.3674 21.6603 17.6325 21.6603 19.6464 19.6464L22.9393 16.3535C23.1346 16.1583 23.1346 15.8417 22.9393 15.6464L19.6464 12.3535ZM15.9998 14.3818C15.9998 14.537 16.0359 14.6901 16.1053 14.8289C16.3522 15.3229 16.9528 15.5232 17.4469 15.2763L18.6728 14.6636C18.8758 15.0676 18.9998 15.5176 18.9998 15.9996C18.9998 17.8346 17.3528 19.2856 15.4558 18.9526C14.2498 18.7406 13.2598 17.7506 13.0478 16.5436C12.7148 14.6476 14.1648 12.9996 15.9998 12.9996V14.3818Z" fill="currentColor"/>
</svg>
