<svg width="32" height="32" viewBox="0 0 32 32" fill="none" xmlns="http://www.w3.org/2000/svg">
<path fill-rule="evenodd" clip-rule="evenodd" d="M21 11C21 9.89543 20.1046 9 19 9H11C9.89543 9 9 9.89543 9 11V19C9 20.1046 9.89543 21 11 21H19C20.1046 21 21 20.1046 21 19V11ZM13.4858 16.4671C13.546 16.3141 13.6937 16.2135 13.8581 16.2135H15.8669C16.1969 16.2135 16.4931 16.4162 16.6126 16.7239L17.0586 17.8724C17.0884 17.9493 17.1625 18 17.245 18H17.7027C17.8447 18 17.9415 17.8561 17.8879 17.7246L15.7107 12.3739C15.6187 12.1478 15.399 12 15.1549 12H14.8366C14.5923 12 14.3724 12.1482 14.2806 12.3746L12.1115 17.7249C12.0582 17.8564 12.155 18 12.2969 18H12.7466C12.8288 18 12.9027 17.9497 12.9328 17.8732L13.4858 16.4671ZM15.0752 12.7039C15.3144 13.3517 15.6061 14.1308 15.9369 14.9831L16.1032 15.4226C16.123 15.4749 16.0843 15.5309 16.0283 15.5309H13.9644C13.908 15.5309 13.8693 15.474 13.89 15.4215L14.0631 14.9831C14.3939 14.1308 14.6856 13.3517 14.9248 12.7039C14.9506 12.6341 15.0494 12.6341 15.0752 12.7039Z" fill="#F54614"/>
</svg>
