<svg width="32" height="32" viewBox="0 0 32 32" fill="none" xmlns="http://www.w3.org/2000/svg">
<path d="M11.399 20.1067L12.1035 19.397L12.11 19.4035L13.6436 17.8585L13.6378 17.8512L16.3374 15.1314C16.3397 15.1335 16.342 15.1355 16.3444 15.1375L19.3662 12.0931L19.3592 12.087L20.0651 11.3758L20.072 11.3819L21.939 9.50098L22.6461 10.2081L20.7873 12.0808L23.6424 14.9359C24.2282 15.5217 24.2282 16.4714 23.6424 17.0572L20.3495 20.3501C18.1039 22.5957 14.5554 22.744 12.1376 20.7952L9.99049 22.9584L9.28339 22.2513L11.4055 20.1133L11.399 20.1067ZM10.6919 19.3996L8.3495 17.0572C7.76371 16.4714 7.76371 15.5217 8.3495 14.9359L11.6424 11.643C13.7089 9.5765 16.879 9.2861 19.2556 10.7718L18.5294 11.5035C16.5634 10.3935 14.0239 10.6757 12.3495 12.3501L9.0566 15.643C8.86134 15.8383 8.86134 16.1549 9.0566 16.3501L11.3964 18.6899L10.6919 19.3996ZM15.9957 14.0561L13.1417 16.9315C13.1001 16.8042 13.0672 16.6735 13.0437 16.5401C12.7107 14.6441 14.1607 12.9962 15.9957 12.9962V14.0561ZM18.4745 14.4109C18.782 14.7326 18.9957 15.2971 18.9957 15.9962C18.9957 17.8312 17.3487 19.2822 15.4517 18.9492C15.0688 18.8818 14.7076 18.7361 14.3862 18.5298L12.8467 20.0808C14.8693 21.6444 17.7869 21.4985 19.6424 19.643L22.9353 16.3501C23.1305 16.1549 23.1305 15.8383 22.9353 15.643L20.0828 12.7906L18.4745 14.4109Z" fill="#252525"/>
</svg>
