<svg width="32" height="32" viewBox="0 0 32 32" fill="none" xmlns="http://www.w3.org/2000/svg">
<path fill-rule="evenodd" clip-rule="evenodd" d="M15.5 8C11.3579 8 8 11.3579 8 15.5C8 19.6421 11.3579 23 15.5 23C19.6421 23 23 19.6421 23 15.5C23 11.3579 19.6421 8 15.5 8ZM14.75 10.75C14.75 10.3358 15.0858 10 15.5 10C15.9142 10 16.25 10.3358 16.25 10.75V12.25C16.25 12.6642 15.9142 13 15.5 13C15.0858 13 14.75 12.6642 14.75 12.25V10.75ZM13 14H16V19H18V20H13V19H15V15H13V14Z" fill="currentColor"/>
</svg>
