<svg width="32" height="32" viewBox="0 0 32 32" fill="currentColor" xmlns="http://www.w3.org/2000/svg">
<path fill-rule="evenodd" clip-rule="evenodd" d="M22 12C22 10.8954 21.1046 10 20 10H12C10.8954 10 10 10.8954 10 12V20C10 21.1046 10.8954 22 12 22H20C21.1046 22 22 21.1046 22 20V12ZM18.2742 18.8C18.2742 18.9105 18.3637 19 18.4742 19H18.8C18.9105 19 19 18.9105 19 18.8V13.2C19 13.0895 18.9105 13 18.8 13H17.9404C17.8554 13 17.7796 13.0538 17.7516 13.1341L16.7661 15.9579C16.6208 16.3851 16.4745 16.8917 16.3303 17.3912C16.2442 17.6897 16.1587 17.9856 16.0747 18.2607C16.0519 18.3352 15.9481 18.3352 15.9253 18.2607C15.8413 17.9856 15.7558 17.6897 15.6697 17.3912C15.5255 16.8917 15.3792 16.3851 15.2339 15.9579L14.2406 13.1336C14.2124 13.0536 14.1368 13 14.0519 13H13.2C13.0895 13 13 13.0895 13 13.2V18.8C13 18.9105 13.0895 19 13.2 19H13.5258C13.6363 19 13.7258 18.9105 13.7258 18.8V15.9494C13.7258 15.6129 13.7187 14.7088 13.7139 14.1419C13.7131 14.0514 13.8396 14.0294 13.8694 14.1149C14.0198 14.5457 14.2449 15.1911 14.4032 15.6461L14.5081 15.9494L15.5258 18.8659C15.5538 18.9462 15.6296 19 15.7146 19H16.2854C16.3704 19 16.4462 18.9462 16.4742 18.8659L17.4919 15.9494L17.5968 15.6461C17.6903 15.3773 17.7817 15.1189 17.8695 14.8708C17.9591 14.6174 18.0449 14.3748 18.1253 14.143C18.1552 14.0567 18.286 14.0792 18.2852 14.1705C18.2779 14.9394 18.2742 15.5323 18.2742 15.9494V18.8Z" fill="black"/>
</svg>
