<svg width="32" height="32" viewBox="0 0 32 32" fill="none" xmlns="http://www.w3.org/2000/svg">
<path d="M20.3534 11.6461L23.6463 14.939C24.2321 15.5248 24.2321 16.4745 23.6463 17.0603L20.3534 20.3532C17.949 22.7576 14.0507 22.7576 11.6463 20.3532L8.3534 17.0603C7.76762 16.4745 7.76762 15.5248 8.3534 14.939L11.6463 11.6461C14.0507 9.24167 17.949 9.24167 20.3534 11.6461ZM19.6463 12.3532C17.6324 10.3393 14.3673 10.3393 12.3534 12.3532L9.06051 15.6461C8.86525 15.8413 8.86525 16.1579 9.06051 16.3532L12.3534 19.6461C14.3673 21.66 17.6324 21.66 19.6463 19.6461L22.9392 16.3532C23.1345 16.1579 23.1345 15.8413 22.9392 15.6461L19.6463 12.3532ZM15.9996 14.3814C15.9996 14.5366 16.0358 14.6897 16.1052 14.8285C16.3521 15.3225 16.9527 15.5229 17.4467 15.2759L18.6726 14.6632C18.8756 15.0672 18.9996 15.5172 18.9996 15.9992C18.9996 17.8342 17.3526 19.2852 15.4556 18.9522C14.2496 18.7402 13.2596 17.7502 13.0476 16.5432C12.7146 14.6472 14.1646 12.9992 15.9996 12.9992V14.3814Z" fill="currentColor"/>
</svg>
