<svg width="32" height="32" viewBox="0 0 32 32" fill="currentColor" xmlns="http://www.w3.org/2000/svg">
<path fill-rule="evenodd" clip-rule="evenodd" d="M16.0984 24C16.2576 24 16.4073 23.9242 16.5015 23.7958L20.975 17.7H23.5C23.7761 17.7 24 17.4762 24 17.2L24 9.50009C24 9.36748 23.9473 9.2403 23.8536 9.14654C23.7598 9.05277 23.6326 9.00009 23.5 9.00009H12.0111C11.5507 8.99566 11.103 9.15468 10.7503 9.44977C10.5265 9.63694 10.3661 9.94504 10.2787 10.1294C10.2285 10.2353 10.188 10.3323 10.1601 10.4028C10.1461 10.4382 10.135 10.4675 10.1272 10.4884L10.1181 10.5134L10.1154 10.5209L10.1146 10.5232L10.114 10.5246L8.04109 16.834C8.03253 16.86 8.02613 16.8867 8.02195 16.9138C7.97977 17.1873 7.99854 17.4665 8.07684 17.7319C8.15514 17.9974 8.29097 18.2422 8.4744 18.4498C8.6578 18.6574 8.88437 18.8227 9.13806 18.9348C9.39083 19.0464 9.66482 19.1027 9.94126 19.1H13.4645V21.4C13.4645 22.0922 13.744 22.7543 14.2388 23.2413C14.7334 23.728 15.4024 24 16.0984 24ZM12.0029 10.0001H20.2217V17.0363L15.8579 22.9826C15.5115 22.9321 15.1892 22.7736 14.9402 22.5286C14.6347 22.2279 14.4645 21.8218 14.4645 21.4V18.6C14.4645 18.3239 14.2407 18.1 13.9645 18.1L9.93867 18.1L9.9331 18.1001C9.79815 18.1016 9.6647 18.0742 9.54209 18.02C9.41951 17.9659 9.31101 17.8864 9.22378 17.7877C9.13657 17.689 9.07267 17.5734 9.03598 17.449C9.00276 17.3364 8.99245 17.2187 9.00544 17.1025L11.059 10.8522L11.0649 10.8361C11.0703 10.8213 11.0788 10.799 11.0898 10.7712C11.112 10.7151 11.1438 10.639 11.1822 10.5579C11.2212 10.4758 11.2638 10.3954 11.3066 10.3282C11.3528 10.2556 11.3835 10.2238 11.3919 10.2168C11.5612 10.0752 11.7782 9.99759 12.0029 10.0001Z" fill="currentColor"/>
</svg>
