<svg width="32" height="32" viewBox="0 0 32 32" fill="none" xmlns="http://www.w3.org/2000/svg">
<path fill-rule="evenodd" clip-rule="evenodd" d="M12 22C10.5273 22 9.33337 20.8061 9.33337 19.3333V18.6667C9.33337 18.2985 9.64004 18.0109 9.98797 17.8904C10.7711 17.6193 11.3334 16.8753 11.3334 16C11.3334 15.1247 10.7711 14.3807 9.98797 14.1096C9.64004 13.9891 9.33337 13.7015 9.33337 13.3333V12.6667C9.33337 11.1939 10.5273 10 12 10H20C21.4728 10 22.6667 11.1939 22.6667 12.6667V13.3333C22.6667 13.7015 22.36 13.9891 22.0121 14.1096C21.229 14.3807 20.6667 15.1247 20.6667 16C20.6667 16.8753 21.229 17.6193 22.0121 17.8904C22.36 18.0109 22.6667 18.2985 22.6667 18.6667V19.3333C22.6667 20.8061 21.4728 22 20 22H12ZM14 14.6667C14.3682 14.6667 14.6667 14.3682 14.6667 14C14.6667 13.6318 14.3682 13.3333 14 13.3333C13.6319 13.3333 13.3334 13.6318 13.3334 14C13.3334 14.3682 13.6319 14.6667 14 14.6667ZM18.6667 18C18.6667 18.3682 18.3682 18.6667 18 18.6667C17.6319 18.6667 17.3334 18.3682 17.3334 18C17.3334 17.6318 17.6319 17.3333 18 17.3333C18.3682 17.3333 18.6667 17.6318 18.6667 18ZM18.3536 14.3536C18.5489 14.1583 18.5489 13.8417 18.3536 13.6464C18.1583 13.4512 17.8417 13.4512 17.6465 13.6464L13.6465 17.6464C13.4512 17.8417 13.4512 18.1583 13.6465 18.3536C13.8417 18.5488 14.1583 18.5488 14.3536 18.3536L18.3536 14.3536Z" fill="#252525"/>
</svg>
