<svg width="32" height="32" viewBox="0 0 32 32" fill="none" xmlns="http://www.w3.org/2000/svg">
<path fill-rule="evenodd" clip-rule="evenodd" d="M15.9016 8C15.7424 8 15.5927 8.07582 15.4985 8.20418L11.025 14.3H8.50004C8.2239 14.3 8.00005 14.5238 8.00004 14.8L8 22.4999C8 22.6325 8.05268 22.7597 8.14645 22.8535C8.24021 22.9472 8.36739 22.9999 8.5 22.9999H19.9889C20.4493 23.0043 20.897 22.8453 21.2497 22.5502C21.4735 22.3631 21.6339 22.055 21.7213 21.8706C21.7715 21.7647 21.812 21.6677 21.8399 21.5972C21.8539 21.5618 21.865 21.5325 21.8728 21.5116L21.8819 21.4866L21.8846 21.4791L21.8854 21.4768L21.886 21.4754L23.9589 15.166C23.9675 15.14 23.9739 15.1133 23.978 15.0862C24.0202 14.8127 24.0015 14.5335 23.9232 14.2681C23.8449 14.0026 23.709 13.7578 23.5256 13.5502C23.3422 13.3426 23.1156 13.1773 22.8619 13.0652C22.6092 12.9536 22.3352 12.8973 22.0587 12.9H18.5355V10.6C18.5355 9.90782 18.256 9.24566 17.7612 8.7587C17.2666 8.27202 16.5976 8 15.9016 8ZM19.9971 21.9999H11.7783V14.9637L16.1421 9.01742C16.4885 9.06789 16.8108 9.22643 17.0598 9.47144C17.3653 9.77214 17.5355 10.1782 17.5355 10.6V13.4C17.5355 13.6761 17.7593 13.9 18.0355 13.9L22.0613 13.9L22.0669 13.8999C22.2019 13.8984 22.3353 13.9258 22.4579 13.98C22.5805 14.0341 22.689 14.1136 22.7762 14.2123C22.8634 14.311 22.9273 14.4266 22.964 14.551C22.9972 14.6636 23.0076 14.7813 22.9946 14.8975L20.941 21.1478L20.9351 21.1639C20.9297 21.1787 20.9212 21.201 20.9102 21.2288C20.888 21.2849 20.8562 21.361 20.8178 21.4421C20.7788 21.5242 20.7362 21.6046 20.6934 21.6718C20.6472 21.7444 20.6165 21.7762 20.6081 21.7832C20.4388 21.9248 20.2218 22.0024 19.9971 21.9999Z" fill="currentColor"/>
</svg>
