<svg width="32" height="32" viewBox="0 0 32 32" fill="currentColor" xmlns="http://www.w3.org/2000/svg">
<path d="M11.3989 20.107L12.1034 19.3973L12.1099 19.4038L13.6434 17.8588L13.6377 17.8515L16.3372 15.1317C16.3396 15.1338 16.3419 15.1358 16.3442 15.1378L19.366 12.0934L19.359 12.0873L20.065 11.3761L20.0719 11.3822L21.9389 9.50128L22.646 10.2084L20.7872 12.0811L23.6423 14.9362C24.2281 15.522 24.2281 16.4717 23.6423 17.0575L20.3494 20.3504C18.1038 22.596 14.5552 22.7443 12.1375 20.7955L9.99037 22.9587L9.28327 22.2516L11.4054 20.1136L11.3989 20.107ZM10.6918 19.3999L8.34937 17.0575C7.76359 16.4717 7.76359 15.522 8.34937 14.9362L11.6423 11.6433C13.7088 9.5768 16.8789 9.2864 19.2555 10.7721L18.5293 11.5038C16.5633 10.3938 14.0238 10.676 12.3494 12.3504L9.05648 15.6433C8.86122 15.8386 8.86122 16.1552 9.05648 16.3504L11.3962 18.6902L10.6918 19.3999ZM15.9956 14.0564L13.1416 16.9318C13.1 16.8045 13.067 16.6738 13.0436 16.5405C12.7106 14.6445 14.1606 12.9965 15.9956 12.9965V14.0564ZM18.4744 14.4112C18.7819 14.7329 18.9956 15.2974 18.9956 15.9965C18.9956 17.8315 17.3486 19.2825 15.4516 18.9495C15.0687 18.8821 14.7075 18.7364 14.3861 18.5301L12.8466 20.0811C14.8691 21.6447 17.7868 21.4988 19.6423 19.6433L22.9352 16.3504C23.1304 16.1552 23.1304 15.8386 22.9352 15.6433L20.0827 12.7909L18.4744 14.4112Z" fill="currentColor"/>
</svg>
