<svg width="32" height="32" viewBox="0 0 32 32" fill="none" xmlns="http://www.w3.org/2000/svg">
<path fill-rule="evenodd" clip-rule="evenodd" d="M22 12C22 10.8954 21.1046 10 20 10H12C10.8954 10 10 10.8954 10 12V20C10 21.1046 10.8954 22 12 22H20C21.1046 22 22 21.1046 22 20V12ZM14.4858 17.4671C14.546 17.3141 14.6937 17.2135 14.8581 17.2135H16.8669C17.1969 17.2135 17.4931 17.4162 17.6126 17.7239L18.0586 18.8724C18.0884 18.9493 18.1625 19 18.245 19H18.7027C18.8447 19 18.9415 18.8561 18.8879 18.7246L16.7107 13.3739C16.6187 13.1478 16.399 13 16.1549 13H15.8366C15.5923 13 15.3724 13.1482 15.2806 13.3746L13.1115 18.7249C13.0582 18.8564 13.155 19 13.2969 19H13.7466C13.8288 19 13.9027 18.9497 13.9328 18.8732L14.4858 17.4671ZM16.0752 13.7039C16.3144 14.3517 16.6061 15.1308 16.9369 15.9831L17.1032 16.4226C17.123 16.4749 17.0843 16.5309 17.0283 16.5309H14.9644C14.908 16.5309 14.8693 16.474 14.89 16.4215L15.0631 15.9831C15.3939 15.1308 15.6856 14.3517 15.9248 13.7039C15.9506 13.6341 16.0494 13.6341 16.0752 13.7039Z" fill="currentColor"/>
</svg>
