<svg width="86" height="99" viewBox="0 0 86 99" fill="none" xmlns="http://www.w3.org/2000/svg">
<path d="M42.9922 12.2945L0 49.1781V36.8836L42.9922 0V12.2945Z" fill="#BEBEBE"/>
<path d="M42.9922 36.8837L0 73.7673V61.4728L42.9922 24.5892V36.8837Z" fill="#BEBEBE"/>
<path d="M42.9922 61.4724L0 98.356V86.0615L42.9922 49.1779V61.4724Z" fill="#BEBEBE"/>
<path d="M64.4893 12.2945L21.4971 49.1781V36.8836L64.4893 0V12.2945Z" fill="#ACACAC"/>
<path d="M64.4893 36.8837L21.4971 73.7673V61.4728L64.4893 24.5892V36.8837Z" fill="#ACACAC"/>
<path d="M64.4893 61.4724L21.4971 98.356V86.0615L64.4893 49.1779V61.4724Z" fill="#ACACAC"/>
<path d="M85.9844 12.2945L42.9922 49.1781V36.8836L85.9844 0V12.2945Z" fill="#D2D2D2"/>
<path d="M85.9844 36.8834L42.9922 73.767V61.4725L85.9844 24.5889V36.8834Z" fill="#D2D2D2"/>
<path d="M85.9844 61.4728L42.9922 98.3563V86.0618L85.9844 49.1782V61.4728Z" fill="#D2D2D2"/>
</svg>
