<svg width="102" height="96" viewBox="0 0 102 96" fill="none" xmlns="http://www.w3.org/2000/svg">
<path d="M93.2132 0.935827L6.13672 15.0088L8.14714 27.4483L95.2236 13.3753L93.2132 0.935827Z" fill="#D2D2D2"/>
<path d="M94.4671 19.7053L6.57715 23.1124L7.06388 35.6681L94.9539 32.261L94.4671 19.7053Z" fill="#ACACAC"/>
<path d="M101.239 35.7526L13.3516 32.2687L12.8539 44.824L100.741 48.3078L101.239 35.7526Z" fill="#BEBEBE"/>
<path d="M88.1865 41.9317L0.71875 51.1867L2.04089 63.6821L89.5086 54.4271L88.1865 41.9317Z" fill="#ACACAC"/>
<path d="M98.0966 57.4004H10.1406V69.9655H98.0966V57.4004Z" fill="#D2D2D2"/>
<path d="M95.4573 82.5326L7.57031 79.0488L7.07262 91.6041L94.9596 95.0879L95.4573 82.5326Z" fill="#BEBEBE"/>
<path d="M100.749 72.8507L12.8594 76.2578L13.3461 88.8135L101.236 85.4064L100.749 72.8507Z" fill="#D2D2D2"/>
</svg>
