<svg width="100" height="100" viewBox="0 0 100 100" fill="none" xmlns="http://www.w3.org/2000/svg">
<path d="M50 6.66666C58.5707 6.6658 66.9492 9.20671 74.0757 13.968C81.2022 18.7293 86.7567 25.4972 90.0364 33.4155C93.3162 41.3339 94.1741 50.0471 92.5014 58.453C90.8288 66.8589 86.7009 74.58 80.6397 80.6397C72.5094 88.7484 61.4931 93.2987 50.0104 93.2911C38.5276 93.2834 27.5174 88.7186 19.3978 80.599C11.2783 72.4795 6.71343 61.4692 6.7058 49.9865C6.69818 38.5038 11.2484 27.4875 19.3572 19.3572C23.3722 15.321 28.1477 12.1211 33.4076 9.94281C38.6674 7.76449 44.307 6.65097 50 6.66666ZM50 0C40.111 0 30.444 2.93245 22.2215 8.42652C13.999 13.9206 7.59043 21.7295 3.80605 30.8658C0.0216642 40.0021 -0.968502 50.0555 0.960758 59.7545C2.89002 69.4535 7.65206 78.3627 14.6447 85.3553C21.6373 92.3479 30.5465 97.11 40.2455 99.0392C49.9445 100.968 59.9979 99.9783 69.1342 96.194C78.2705 92.4096 86.0794 86.0009 91.5735 77.7785C97.0676 69.556 100 59.889 100 50C100 36.7392 94.7322 24.0215 85.3553 14.6447C75.9785 5.26784 63.2608 0 50 0V0Z" fill="#ACACAC"/>
<path d="M53.4557 20.0743C59.4025 20.0743 65.2158 21.8377 70.1604 25.1416C75.105 28.4455 78.9589 33.1414 81.2347 38.6356C83.5104 44.1297 84.1059 50.1754 82.9457 56.0079C81.7855 61.8405 78.9218 67.198 74.7168 71.4031C70.5118 75.6081 65.1542 78.4718 59.3216 79.632C53.4891 80.7921 47.4435 80.1967 41.9493 77.921C36.4551 75.6452 31.7592 71.7913 28.4553 66.8467C25.1514 61.9021 23.388 56.0888 23.388 50.142C23.3972 42.1704 26.5679 34.5278 32.2047 28.891C37.8415 23.2542 45.4841 20.0834 53.4557 20.0743ZM53.4557 13.3926C46.1872 13.392 39.0818 15.5467 33.038 19.5844C26.9941 23.6221 22.2834 29.3614 19.5014 36.0764C16.7195 42.7915 15.9913 50.1806 17.4089 57.3095C18.8265 64.4384 22.3263 70.9869 27.4657 76.1267C32.6051 81.2665 39.1532 84.7668 46.282 86.1851C53.4107 87.6033 60.8 86.8757 67.5152 84.0944C74.2305 81.313 79.9702 76.6027 84.0084 70.5592C88.0466 64.5157 90.202 57.4105 90.202 50.142C90.202 40.396 86.3306 31.0491 79.4395 24.1573C72.5483 17.2656 63.2017 13.3934 53.4557 13.3926Z" fill="#D2D2D2"/>
<path d="M46.7739 23.4157H46.3245C46.0102 23.4157 45.7116 23.4157 45.4067 23.444H45.1993H44.9919L45.7713 36.8011C46.1013 36.7823 46.4408 36.7728 46.7739 36.7728V23.4157ZM43.2193 23.6231C42.7636 23.6765 42.3142 23.7394 41.8679 23.8148H41.8019L41.4593 23.8745L43.807 37.0305C44.1213 36.974 44.4576 36.9237 44.7845 36.886L43.213 23.6137L43.2193 23.6231ZM39.7119 24.2517L39.2625 24.3648H39.2436H39.2248H39.2059H39.187H39.1682H39.1493L39.0707 24.3837H39.0425C38.7177 24.4696 38.3971 24.5607 38.0808 24.6571L41.9779 37.4391C42.2922 37.3448 42.6065 37.26 42.9207 37.1814L39.7779 24.1888L39.7119 24.2517ZM36.305 25.292C35.7456 25.5015 35.1956 25.7246 34.655 25.9614L40.045 38.1871C40.3593 38.0551 40.6516 37.9325 40.9565 37.8194L36.305 25.292ZM33.0459 26.7282C32.6939 26.9074 32.3482 27.096 32.0056 27.2877H31.9867H31.9679H31.949C31.8108 27.3631 31.6756 27.4417 31.5405 27.5234L38.3447 39.0263C38.6276 38.8565 38.9167 38.712 39.209 38.5485L33.0459 26.7251V26.7282ZM29.9816 28.5417C29.6673 28.7554 29.353 28.9722 29.0388 29.1985L28.9508 29.2645L28.5265 29.5788L36.6476 40.1954C36.9085 39.9943 37.1819 39.7994 37.4522 39.6171L29.9816 28.5385V28.5417ZM27.153 30.704C26.8639 30.9554 26.5748 31.2131 26.295 31.474L26.2133 31.5494L26.1473 31.6091H26.1316L26.1002 31.6374L26.0782 31.6594L35.3842 41.2482C35.623 41.0188 35.8682 40.7925 36.1196 40.5757L27.1499 30.7008L27.153 30.704ZM24.5979 33.1837V33.1994H24.5822C24.1988 33.6205 23.8248 34.0543 23.4665 34.4943L33.8379 42.9234C34.0453 42.6688 34.2653 42.4142 34.4885 42.1722L24.5948 33.1805L24.5979 33.1837ZM22.3508 35.9462C22.005 36.4303 21.6719 36.9205 21.3545 37.4234L32.6436 44.5734C32.8196 44.2937 33.0082 44.0171 33.1999 43.75L22.3476 35.9431L22.3508 35.9462ZM20.4305 38.954L20.3362 39.1237L20.311 39.174L20.2796 39.2305C20.157 39.4568 20.0408 39.6831 19.9245 39.9157V39.9377L19.9025 39.9754V39.9943C19.8365 40.1294 19.7705 40.2614 19.7076 40.3965L31.7636 46.1574C31.905 45.862 32.059 45.5665 32.2162 45.2805L20.4305 38.954ZM18.8968 42.166C18.6747 42.717 18.4651 43.2743 18.2682 43.838L30.9433 48.1154C31.0502 47.8011 31.1633 47.4868 31.289 47.1945L18.9093 42.166H18.8968ZM17.7528 45.5414C17.6459 45.9311 17.5485 46.3208 17.4573 46.7137V46.7325V46.7545C17.4573 46.7765 17.4573 46.7985 17.4573 46.8205V46.9211V46.9462V47.0468V47.072V47.1977V47.2197V47.2637L30.5348 50.0105C30.6039 49.6962 30.6825 49.3662 30.7673 49.052L17.8816 45.532L17.7528 45.5414ZM17.033 49.0268V49.096C17.011 49.2405 16.9922 49.3883 16.9733 49.536V49.558C16.9718 49.5883 16.9718 49.6187 16.9733 49.6491V49.6868V49.7654V49.8157V49.9414V49.9665V50.0011V50.0514V50.0765V50.1582V50.1834V50.2117C16.9733 50.2494 16.9733 50.284 16.9733 50.3217V50.372V50.3971V50.5417C16.9733 50.6234 16.9576 50.702 16.9513 50.7837L30.2613 51.9623C30.2896 51.6323 30.3305 51.3022 30.3776 50.9785L17.033 49.0268ZM16.7188 52.5751C16.7188 52.7825 16.7188 52.99 16.7188 53.2037V53.4865V53.6562C16.7188 53.892 16.7188 54.1245 16.7188 54.3571L30.0759 53.9737C30.0759 53.8134 30.0759 53.6594 30.0759 53.4834C30.0759 53.3074 30.0759 53.1408 30.0759 52.9711L16.7188 52.5751ZM30.1325 54.97L16.8225 56.136C16.8413 56.3654 16.8633 56.598 16.8916 56.8274V56.8525V56.8777V56.9154V57.0128C16.9262 57.3114 16.967 57.61 17.011 57.9054L30.2488 55.9725C30.2016 55.6582 30.1639 55.3157 30.1325 54.9857V54.97ZM30.4216 56.928L17.341 59.6591C17.4647 60.2416 17.6029 60.8188 17.7559 61.3908L30.6416 57.8834C30.5568 57.5691 30.4782 57.2548 30.4122 56.9405L30.4216 56.928ZM30.937 58.8137L18.2745 63.0942C18.3845 63.4085 18.4976 63.7228 18.617 64.056V64.0717V64.0937V64.1188V64.1408V64.166C18.6862 64.3482 18.7585 64.5274 18.8308 64.7097L31.2168 59.6811C31.0942 59.3668 30.981 59.0682 30.8742 58.7602L30.937 58.8137ZM31.6756 60.6365L19.6133 66.3942C19.8679 66.9317 20.1382 67.4628 20.4242 67.9814L32.1282 61.5291C31.9679 61.24 31.8139 60.9445 31.6756 60.6491V60.6365ZM32.6185 62.3683L21.3199 69.5025C21.4173 69.6597 21.5179 69.8168 21.6185 69.9677V69.9865V70.0023V70.0211V70.0368L21.6656 70.1091L21.741 70.2222C21.763 70.2537 21.7819 70.2851 21.8039 70.3134L21.8416 70.3668V70.3825V70.3982V70.414L22.1119 70.8005L33.1842 63.2011C32.9925 62.934 32.807 62.6574 32.631 62.3808L32.6185 62.3683ZM33.775 63.9774L23.4036 72.394L23.6142 72.6517V72.6705L23.6708 72.7365L24.0668 73.1954L24.1233 73.2614L24.1799 73.3243L24.2176 73.3651L24.2522 73.406L24.2742 73.428L34.1396 64.4142C33.9165 64.1691 33.6996 63.9177 33.4922 63.66L33.775 63.9774ZM35.117 65.4451L25.811 75.0371L26.0593 75.2791L26.1222 75.3388L26.1662 75.3828L26.1882 75.4017L26.2102 75.4237L26.229 75.4425L26.2762 75.4865C26.4239 75.6217 26.5747 75.7537 26.7256 75.8825L35.4628 65.772C35.2113 65.5551 34.9662 65.3288 34.7305 65.0994L35.117 65.4451ZM36.6193 66.7462L28.5045 77.366C28.781 77.5797 29.0608 77.784 29.3468 77.9945H29.3656L29.8213 78.3088L37.3076 67.2397C37.0342 67.0574 36.7639 66.8594 36.503 66.6614L36.6193 66.7462ZM38.2599 67.8557L31.443 79.3491C31.9522 79.6634 32.4708 79.94 33.0145 80.2102L39.1368 68.3334C38.8476 68.1825 38.5553 68.0191 38.2725 67.8557H38.2599ZM40.0136 68.7608L34.6079 80.9802C35.1485 81.2191 35.6985 81.4454 36.2579 81.6528L40.925 69.1317C40.6108 69.0185 40.3122 68.8928 40.0136 68.7608ZM41.8585 69.446L37.9456 82.2248C38.2379 82.3128 38.5302 82.3977 38.8256 82.4794H38.8476H38.879H38.8979H38.923H38.9733H39.0205L39.077 82.4951H39.1273L39.6553 82.6302L42.7982 69.6408C42.4839 69.5654 42.1696 69.4774 41.8553 69.38L41.8585 69.446ZM43.7693 69.9111L41.4059 83.064C41.9884 83.1687 42.5761 83.2557 43.169 83.3248L44.7405 70.0557C44.4262 70.018 44.0836 69.9677 43.7599 69.9111H43.7693ZM45.7399 70.1437L44.9447 83.4977L45.2779 83.5134H45.4445C45.8635 83.5322 46.2909 83.5417 46.7267 83.5417L46.7425 70.1782C46.4093 70.1782 46.073 70.1782 45.743 70.1468L45.7399 70.1437ZM48.7319 70.062C48.4176 70.0997 48.0719 70.128 47.7419 70.1468L48.5056 83.4882L49.0619 83.4505H49.0902H49.1719H49.4076C49.6999 83.4254 49.989 83.3971 50.2813 83.3625L48.7319 70.0902V70.062ZM50.6773 69.7162C50.363 69.7917 50.033 69.8608 49.7125 69.9174L52.0445 83.0765H52.1262L52.2079 83.0608C52.5473 82.998 52.8836 82.932 53.2168 82.8597H53.2482H53.267H53.2859H53.311H53.4305L53.5153 82.8408H53.5436L53.8013 82.7811L50.6899 69.7854L50.6773 69.7162ZM52.563 69.1442C52.2488 69.2574 51.9345 69.3642 51.6202 69.4585L55.5016 82.2468L55.7656 82.1651H55.7876H55.8065H55.8253H55.8505H55.8756H55.9133L55.9668 82.1494H55.9982H56.0233L56.1082 82.1242H56.1302L56.237 82.0897C56.5293 81.9922 56.8216 81.8885 57.1139 81.7754L52.5693 69.1725L52.563 69.1442ZM54.367 68.3522C54.0747 68.5031 53.7762 68.6445 53.4776 68.7765L58.8519 81.0117C59.3988 80.7697 59.933 80.5151 60.461 80.2448L54.3733 68.3648L54.367 68.3522ZM56.0705 67.3465C55.797 67.532 55.5142 67.708 55.2313 67.8777L62.023 79.3868L62.4159 79.1511H62.4379H62.4536H62.4725C62.7082 79.0065 62.9408 78.8588 63.1733 78.7048H63.189C63.2708 78.6514 63.3525 78.598 63.431 78.5414L55.973 67.4534L56.0705 67.3465ZM57.6419 66.146C57.3936 66.3597 57.1328 66.5702 56.8719 66.7745L64.971 77.4005C65.1376 77.2748 65.301 77.146 65.4645 77.0171L65.5116 76.9794L65.5305 76.9637H65.5525L65.6185 76.9102L65.9799 76.6117L65.9988 76.596L66.0176 76.5771H66.0333L66.1748 76.4577L57.4596 66.3283L57.6419 66.146ZM59.0876 64.7725C58.8645 65.0145 58.6287 65.2534 58.393 65.4828L67.6865 75.0842C67.9756 74.8077 68.2553 74.5248 68.5319 74.2357L68.5476 74.2168L68.5633 74.2011L68.5822 74.1822H68.5979L68.8776 73.868L59.0876 64.7725ZM60.3447 63.2325C60.153 63.4997 59.9487 63.7637 59.7413 64.0182L70.1128 72.4631C70.2636 72.2745 70.427 72.086 70.5622 71.8942L70.5779 71.8754V71.8565L70.6093 71.8157V71.7968V71.778L70.6282 71.7528L71.0179 71.2248L60.3447 63.2357V63.2325ZM61.407 61.5605C61.2468 61.8465 61.077 62.1325 60.901 62.4123L72.1839 69.5717C72.3693 69.2794 72.5516 68.984 72.7276 68.6822C72.7496 68.6414 72.7716 68.6037 72.7967 68.566C72.8973 68.3931 72.9948 68.2202 73.0922 68.0442L61.407 61.5637V61.5605ZM62.2588 59.7817C62.133 60.096 62.001 60.3883 61.8596 60.6837L73.9093 66.4571C74.1188 66.0108 74.3221 65.5583 74.519 65.0994C74.5379 65.0554 74.5536 65.0145 74.5725 64.9737L74.6165 64.87V64.848V64.8322L62.243 59.7848L62.2588 59.7817ZM62.8873 57.9211C62.8025 58.2354 62.705 58.5497 62.5982 58.864L75.2513 63.1634C75.3267 62.9465 75.3959 62.7297 75.465 62.5128V62.4908V62.472L75.4933 62.384V62.362V62.3431L75.5216 62.2582V62.2394C75.5216 62.2048 75.5436 62.1671 75.5562 62.1325V62.1137V62.0948L75.575 62.032V62.0131V61.944L75.5907 61.8905V61.8308V61.8057V61.7837V61.7648V61.746V61.724C75.6128 61.6548 75.6316 61.5825 75.6505 61.5102L62.7648 57.9745L62.8873 57.9211ZM63.2959 55.9914C63.2456 56.3057 63.1859 56.6451 63.1199 56.9625L76.1942 59.7251C76.3167 59.15 76.4236 58.5622 76.5085 57.9745L63.2928 55.9914H63.2959ZM63.4719 54.0145C63.4719 54.3445 63.4436 54.6808 63.4122 55.0077L76.7222 56.2051C76.7237 56.1779 76.7237 56.1506 76.7222 56.1234V56.0511C76.7693 55.5137 76.8008 54.9731 76.8165 54.4263L63.4593 54.0145H63.4719ZM76.7316 50.8717L63.4185 52.0188C63.4468 52.3488 63.4656 52.682 63.475 53.0151L76.8322 52.6505V52.5154V52.4934C76.8133 51.9622 76.7819 51.4374 76.7379 50.922V50.8842L76.7316 50.8717ZM76.2162 47.3485L63.1325 50.0608C63.1985 50.3751 63.255 50.7082 63.3053 51.0351L76.5273 49.1022C76.4393 48.5114 76.3388 47.9268 76.213 47.3485H76.2162ZM75.2733 43.9102L62.6045 48.1625C62.7113 48.4768 62.8056 48.7911 62.8905 49.1054L75.8013 45.6011C75.663 45.0982 75.5143 44.6017 75.355 44.1114V44.0894C75.3393 44.0391 75.3236 43.9888 75.3048 43.9385L75.2733 43.9102ZM73.9408 40.6071L61.869 46.3365C62.0105 46.632 62.1425 46.9368 62.265 47.2417L74.6573 42.2383V42.2225L74.6259 42.144C74.5599 41.9837 74.4907 41.8297 74.4216 41.66C74.4216 41.6348 74.3996 41.6065 74.387 41.5814V41.5625V41.5468V41.5248L74.365 41.4745V41.4525C74.277 41.2577 74.189 41.0628 74.0979 40.8711V40.846L74.0759 40.7957L73.9408 40.6071ZM72.2248 37.4862L60.9105 44.608C61.0865 44.8845 61.2562 45.1705 61.4133 45.4597L73.1236 39.02C73.0482 38.8817 72.9696 38.7434 72.891 38.6082C72.8793 38.5831 72.8656 38.559 72.8502 38.536V38.5171V38.4983V38.4763V38.4511V38.4323V38.4134V38.3914V38.3694L72.8345 38.3474V38.3285V38.3097C72.8273 38.2933 72.8189 38.2776 72.8093 38.2625V38.2405C72.6899 38.0425 72.5673 37.8445 72.4448 37.6497L72.2248 37.4862ZM70.163 34.6011L59.7727 43.0051C59.9802 43.2628 60.1813 43.53 60.373 43.7971L71.241 36.0185V35.9997L71.2253 35.9745V35.9557L71.2096 35.9337L71.1436 35.8425L71.0933 35.7765L71.0776 35.7545V35.7357L71.043 35.6948V35.676V35.654C70.823 35.3617 70.5968 35.0725 70.3673 34.7865L70.163 34.6011ZM67.7619 31.9705L58.4339 41.5154C58.6696 41.7448 58.9022 41.9868 59.1253 42.232L69.0002 33.2277C68.8022 33.0108 68.5979 32.794 68.3936 32.5802L68.337 32.5237V32.508L68.3025 32.4734V32.4545V32.4357L68.2836 32.4137H68.2648C68.2332 32.3326 68.1824 32.2605 68.1167 32.2035C68.051 32.1465 67.9723 32.1065 67.8876 32.0868L67.7682 31.9705H67.7619ZM65.059 29.6228L56.919 40.2205C57.1799 40.4217 57.4408 40.6323 57.689 40.8491L66.4388 30.748C66.1873 30.5311 65.9296 30.3142 65.6719 30.1194H65.653L65.587 30.066H65.5682C65.4016 29.934 65.235 29.802 65.0653 29.6731L65.059 29.6228ZM62.111 27.624L55.2785 39.108C55.5613 39.2777 55.841 39.4537 56.1145 39.6391L63.6133 28.5794L63.4782 28.4851H63.4625C63.0434 28.2002 62.6076 27.9257 62.155 27.6617L62.111 27.624ZM58.9462 25.9865L53.5247 38.2028C53.8233 38.3348 54.125 38.4794 54.4142 38.6271L60.5648 26.7597L60.417 26.6842H60.3982H60.3699H60.351C60.3185 26.6656 60.2849 26.6488 60.2505 26.634L60.1499 26.5837H60.1279L60.0462 26.546H60.0273H60.0116L59.9582 26.5177H59.9393H59.9236H59.9048L59.8545 26.4925H59.8293C59.6188 26.392 59.4082 26.2945 59.2008 26.2002L58.9462 25.9865ZM55.6116 24.7294L51.683 37.502C51.9973 37.5994 52.3116 37.7063 52.6259 37.8163L57.3119 25.3014L57.2082 25.2637L57.1328 25.2354H57.117H57.095C56.6215 25.0636 56.1417 24.9023 55.6556 24.7514L55.6116 24.7294ZM52.1545 23.8871L49.7753 37.0368C50.0896 37.0965 50.4039 37.1657 50.737 37.2411L53.8988 24.258C53.6913 24.2077 53.4839 24.1574 53.2702 24.1134H53.2482H53.2262H53.201H53.1507H53.0502H53.0282H52.9182H52.8616H52.8019H52.717H52.6888L52.1733 23.8965L52.1545 23.8871ZM48.6188 23.4628L47.8173 36.8011C48.1473 36.82 48.4805 36.8514 48.8073 36.8891L50.4007 23.6231C49.8162 23.5519 49.2253 23.4984 48.6282 23.4628H48.6188ZM46.7645 23.4062V36.7697H46.8305L46.8619 23.4062H46.7896H46.7645Z" fill="#ACACAC"/>
<path d="M53.4538 36.7787C56.0968 36.7787 58.6805 37.5624 60.8781 39.0308C63.0757 40.4992 64.7886 42.5863 65.8 45.0281C66.8114 47.47 67.0761 50.1569 66.5605 52.7492C66.0448 55.3414 64.7721 57.7226 62.9032 59.5915C61.0343 61.4604 58.6531 62.7331 56.0609 63.2487C53.4686 63.7644 50.7817 63.4997 48.3398 62.4883C45.898 61.4768 43.8109 59.764 42.3425 57.5664C40.8741 55.3688 40.0904 52.7851 40.0904 50.1421C40.0945 46.5992 41.5038 43.2025 44.009 40.6973C46.5143 38.1921 49.9109 36.7828 53.4538 36.7787ZM53.4538 33.4378C50.15 33.4378 46.9204 34.4175 44.1734 36.253C41.4264 38.0885 39.2854 40.6973 38.0211 43.7496C36.7567 46.8019 36.4259 50.1606 37.0705 53.4009C37.715 56.6412 39.306 59.6177 41.6421 61.9538C43.9782 64.2899 46.9546 65.8809 50.195 66.5254C53.4353 67.1699 56.794 66.8391 59.8463 65.5748C62.8986 64.3105 65.5074 62.1695 67.3429 59.4225C69.1784 56.6755 70.1581 53.4459 70.1581 50.1421C70.1581 47.9485 69.726 45.7763 68.8866 43.7496C68.0471 41.723 66.8167 39.8815 65.2655 38.3304C63.7144 36.7792 61.8729 35.5488 59.8463 34.7093C57.8196 33.8699 55.6474 33.4378 53.4538 33.4378Z" fill="#BEBEBE"/>
<path d="M50.1114 56.8244C53.8016 56.8244 56.7931 53.8329 56.7931 50.1427C56.7931 46.4524 53.8016 43.4609 50.1114 43.4609C46.4212 43.4609 43.4297 46.4524 43.4297 50.1427C43.4297 53.8329 46.4212 56.8244 50.1114 56.8244Z" fill="#ACACAC"/>
</svg>
