<svg width="32" height="33" viewBox="0 0 32 33" fill="none" xmlns="http://www.w3.org/2000/svg">
    <path fill-rule="evenodd" clip-rule="evenodd" d="M4 22.2017H15.6264V10.5H4V22.2017Z" fill="#001689"/>
    <path fill-rule="evenodd" clip-rule="evenodd" d="M7.5301 14.2805C7.61595 14.4712 7.75623 14.6668 8.14074 14.931C8.22599 14.9901 8.32087 15.113 8.24902 15.286C8.17609 15.4587 8.04115 15.7043 8.12154 15.8001C8.20309 15.8957 8.49259 15.9454 8.72794 15.8504C8.72794 15.8504 8.77737 15.9999 8.86371 16.0958C8.86371 16.0958 8.82296 16.1783 8.68741 16.1366C8.68741 16.1366 8.73676 16.2595 8.66868 16.3916C8.66868 16.3916 8.51077 16.3644 8.44309 16.2185C8.44309 16.2185 8.37945 16.3321 8.25299 16.3732C8.25299 16.3732 8.14895 16.319 8.17212 16.109C8.17212 16.109 8.09481 16.296 7.8602 16.3274C7.8602 16.3274 7.72423 16.1549 7.90046 15.9228C7.90046 15.9228 7.77379 16.0366 7.54404 15.9819C7.54404 15.9819 7.50747 15.8639 7.71507 15.6999C7.71507 15.6999 7.47999 15.6907 7.38989 15.4906C7.38989 15.4906 7.48922 15.3675 7.73298 15.395C7.73298 15.395 7.50747 15.3447 7.4575 15.0719C7.4575 15.0719 7.62026 14.9672 7.87797 15.1354C7.87797 15.1354 7.83217 15.0492 7.72423 14.9628C7.61595 14.8763 7.48464 14.6351 7.5301 14.2805Z" fill="white"/>
    <path fill-rule="evenodd" clip-rule="evenodd" d="M8.47645 17.0247C8.44173 16.9788 8.41637 16.9331 8.39771 16.8892C8.43811 17.2201 8.45212 17.4432 8.62992 17.6577C8.62992 17.6577 8.73697 17.5143 8.66806 17.1658C8.63853 17.1571 8.60456 17.1428 8.5725 17.1209C8.5725 17.1209 8.61297 17.2624 8.58726 17.4046C8.58726 17.4046 8.52383 17.358 8.47645 17.0247Z" fill="white"/>
    <path fill-rule="evenodd" clip-rule="evenodd" d="M8.16853 16.9903C8.14734 16.9634 8.10646 16.9062 8.08472 16.8657C8.07016 17.0581 8.01944 17.5636 8.18801 17.7222C8.18801 17.7222 8.30354 17.6371 8.34394 16.899C8.3196 16.9404 8.2766 16.9844 8.25568 17.0086C8.25568 17.0086 8.28385 17.2426 8.20052 17.4079C8.20052 17.4079 8.11692 17.344 8.16853 16.9903Z" fill="white"/>
    <path fill-rule="evenodd" clip-rule="evenodd" d="M7.76733 17.3768C7.90835 17.2063 7.95108 16.6952 7.95108 16.6952C7.9707 16.6819 7.99011 16.6676 8.01048 16.6516C8.01759 16.6451 8.02579 16.6384 8.03325 16.6311C8.03325 16.6495 8.034 16.6691 8.03584 16.6883C8.01534 16.996 7.99127 17.3129 7.89571 17.4706C7.80247 17.6254 7.63027 17.7056 7.63027 17.7056C7.46942 17.4169 7.6639 17.03 7.82749 16.7609C7.84704 16.7532 7.86741 16.7436 7.88833 16.7331C7.83118 16.9402 7.72215 17.1867 7.76733 17.3768Z" fill="white"/>
    <path fill-rule="evenodd" clip-rule="evenodd" d="M7.36721 16.4901C7.36639 16.5229 7.37247 16.5502 7.37698 16.5636C7.37849 16.569 7.38088 16.5769 7.38443 16.5847C7.24943 16.718 7.14928 16.8456 6.9494 17.1252C6.74911 17.4049 6.43213 17.4161 6.43213 17.4161C6.46289 17.1895 6.5238 17.0105 6.69374 16.8174C6.86327 16.6245 7.08044 16.4481 7.23965 16.3315C7.28039 16.35 7.33419 16.3621 7.40159 16.354C7.40679 16.3536 7.41232 16.353 7.41718 16.3517C7.39599 16.3801 7.38293 16.4083 7.37644 16.4343C7.25524 16.504 6.9049 16.6826 6.76292 16.9713C6.76292 16.9713 6.9846 16.9007 7.36721 16.4901Z" fill="white"/>
    <path fill-rule="evenodd" clip-rule="evenodd" d="M7.11644 16.2082L7.12943 16.1842C7.13456 16.1762 7.13852 16.1691 7.14385 16.1624C7.01343 16.2132 6.54934 16.3895 6.39922 16.4676C6.24883 16.5463 6.03145 16.7239 5.91333 17.0855C5.91333 17.0855 6.22655 17.1135 6.48508 16.8985C6.74368 16.6826 7.04501 16.3824 7.17366 16.287C7.16074 16.2751 7.15076 16.2634 7.14385 16.2535C7.14385 16.2535 6.79386 16.5652 6.42411 16.7001C6.42411 16.7001 6.50306 16.5553 6.64948 16.4506C6.82742 16.3234 6.96079 16.2806 7.11644 16.2082Z" fill="white"/>
    <path fill-rule="evenodd" clip-rule="evenodd" d="M6.8505 15.9944C6.8557 15.9819 6.86083 15.9702 6.86609 15.9592C6.71276 15.9903 6.33036 16.0366 6.15899 16.0891C5.98816 16.1422 5.67884 16.268 5.49536 16.6207C5.49536 16.6207 5.76469 16.7041 6.27294 16.4636C6.78119 16.2227 6.94081 16.1726 7.0376 16.1466C6.96056 16.1411 6.90546 16.1148 6.87737 16.0971C6.67455 16.1881 6.4033 16.2955 6.13417 16.3028C6.13417 16.3028 6.26652 16.2085 6.40645 16.149C6.55731 16.0856 6.7239 16.0276 6.8505 15.9944Z" fill="white"/>
    <path fill-rule="evenodd" clip-rule="evenodd" d="M6.86382 15.7414C6.91345 15.7648 6.95159 15.7765 7.01674 15.7832C6.9814 15.8065 6.94783 15.8357 6.91775 15.8752C6.73845 15.9272 6.43282 15.9839 5.92888 16.0205C5.42542 16.0566 5.15649 15.9639 5.15649 15.9639C5.33204 15.8558 5.6119 15.7461 5.80139 15.7093C5.99061 15.6725 6.48778 15.6767 6.70564 15.6467C6.70803 15.6493 6.73442 15.6707 6.77741 15.6969C6.59414 15.7133 6.20348 15.7316 6.00223 15.8348C6.00223 15.8348 6.37389 15.8844 6.86382 15.7414Z" fill="white"/>
    <path fill-rule="evenodd" clip-rule="evenodd" d="M6.82547 15.4496C6.85103 15.4345 6.88159 15.4195 6.91926 15.4055C6.66394 15.3279 6.31401 15.2035 5.78669 15.1691C5.4004 15.1436 5.12163 15.1659 4.97705 15.2035C4.97705 15.2035 5.32923 15.4529 5.73125 15.5408C6.13402 15.6292 6.46078 15.5735 6.69962 15.5756C6.71507 15.552 6.73305 15.5251 6.76114 15.4984C6.48162 15.5003 6.01713 15.4274 5.85088 15.3715C5.85088 15.3715 6.25611 15.2867 6.82547 15.4496Z" fill="white"/>
    <path fill-rule="evenodd" clip-rule="evenodd" d="M6.82412 15.1477C6.82549 15.155 6.85557 15.2998 7.02222 15.3797C6.66389 15.222 5.95863 15.1312 5.5791 14.9725C5.06669 14.758 4.9729 14.4904 4.9729 14.4904C5.41668 14.4784 5.77529 14.5874 6.05187 14.6729C6.37542 14.7726 6.86828 14.9581 7.04075 15.0355C6.9767 15.0379 6.90526 15.0569 6.84559 15.097C6.60489 15.0039 6.49258 14.9646 6.27404 14.9029C6.10102 14.8542 5.97374 14.8448 5.86573 14.8344C5.86573 14.8344 6.01756 14.9354 6.26768 15.0156C6.51562 15.0957 6.62294 15.1089 6.82412 15.1477Z" fill="white"/>
    <path fill-rule="evenodd" clip-rule="evenodd" d="M6.79747 14.7543C6.81176 14.7798 6.854 14.8407 6.87089 14.8649C6.30454 14.7694 5.68179 14.3385 5.48922 14.0712C5.29673 13.8038 5.35107 13.405 5.35107 13.405C5.5379 13.4427 5.94388 13.7951 6.04894 13.9013C6.15435 14.0069 6.47154 14.3181 6.69145 14.4915L6.75987 14.6921C6.57155 14.5395 6.34815 14.3696 6.20911 14.2639C6.10192 14.1828 5.94142 14.0672 5.78173 14.0126C5.78173 14.0126 5.92877 14.2052 6.04737 14.2993C6.18436 14.4082 6.32361 14.5026 6.43784 14.5658C6.53949 14.622 6.59158 14.6537 6.79747 14.7543Z" fill="white"/>
    <path fill-rule="evenodd" clip-rule="evenodd" d="M8.39438 16.3496C8.41167 16.3342 8.42692 16.3194 8.43881 16.3062C8.46492 16.339 8.55256 16.4488 8.5959 16.5584C8.62816 16.6519 8.66309 16.7792 8.68025 16.8522C8.69762 16.9245 8.74882 17.0764 8.78026 17.1283C8.78026 17.1283 8.64245 17.1457 8.54025 17.0255C8.4399 16.9078 8.40634 16.7892 8.39034 16.6677C8.37729 16.5725 8.38207 16.4404 8.39438 16.3496Z" fill="white"/>
    <path fill-rule="evenodd" clip-rule="evenodd" d="M8.1768 16.3677C8.20243 16.4023 8.22704 16.4162 8.22943 16.4178L8.24837 16.4274L8.26737 16.4207C8.28487 16.4155 8.30052 16.4092 8.31515 16.4017C8.33546 16.4577 8.3438 16.4848 8.34851 16.5324C8.3548 16.596 8.36717 16.6959 8.3438 16.7776C8.31515 16.877 8.25554 16.9379 8.22301 16.9759C8.22301 16.9759 8.13264 16.8758 8.10686 16.7937C8.08007 16.7073 8.07043 16.6069 8.10379 16.504C8.12197 16.4481 8.15082 16.3971 8.1768 16.3677Z" fill="white"/>
    <path fill-rule="evenodd" clip-rule="evenodd" d="M7.86605 16.3774C7.95847 16.3651 8.02812 16.3315 8.0809 16.2927C8.09265 16.3254 8.11084 16.3694 8.09778 16.4317C8.08356 16.4942 8.0407 16.563 7.97938 16.613C7.8856 16.6876 7.76159 16.7581 7.62392 16.7368C7.62392 16.7368 7.59227 16.6325 7.86605 16.3774Z" fill="white"/>
    <path fill-rule="evenodd" clip-rule="evenodd" d="M7.76164 16.2034C7.7732 16.2959 7.81708 16.354 7.81995 16.3587C7.78796 16.3973 7.67196 16.5975 7.43031 16.5643C7.43031 16.5643 7.36441 16.4276 7.52581 16.319C7.63456 16.2454 7.68686 16.2304 7.76164 16.2034Z" fill="white"/>
    <path fill-rule="evenodd" clip-rule="evenodd" d="M7.78333 16.0322C7.71914 16.0485 7.63513 16.055 7.53259 16.0306L7.50464 16.0241L7.49595 15.9968C7.37161 16.0988 7.22395 16.1161 7.1731 16.2086C7.1731 16.2086 7.23523 16.3236 7.39663 16.3048C7.55802 16.2852 7.67881 16.2091 7.76536 16.1002C7.7687 16.084 7.77602 16.0531 7.78333 16.0322Z" fill="white"/>
    <path fill-rule="evenodd" clip-rule="evenodd" d="M7.50388 15.8885C7.5263 15.8542 7.54223 15.8011 7.59049 15.7474C7.48406 15.7288 7.38767 15.7272 7.26251 15.7518C7.11383 15.7797 6.96193 15.815 6.88599 16.0432C6.88599 16.0432 6.981 16.1249 7.15477 16.0895C7.30236 16.0589 7.43026 15.9953 7.50388 15.8885Z" fill="white"/>
    <path fill-rule="evenodd" clip-rule="evenodd" d="M7.44058 15.6416C7.40339 15.6087 7.36846 15.5666 7.34399 15.5115L7.33182 15.4828C7.20276 15.4301 7.06857 15.403 6.93643 15.4519C6.80491 15.5018 6.77025 15.5585 6.7373 15.6082C6.7373 15.6082 6.88311 15.7311 7.05032 15.7353C7.21807 15.7408 7.37311 15.6919 7.44058 15.6416Z" fill="white"/>
    <path fill-rule="evenodd" clip-rule="evenodd" d="M7.47985 15.375C7.50206 15.3665 7.52681 15.3587 7.5549 15.3529C7.49858 15.3024 7.44177 15.225 7.41484 15.1098C7.35482 15.1238 7.21434 15.1238 7.15261 15.1004C7.09027 15.0764 6.96873 15.0753 6.87378 15.1382C6.87378 15.1382 6.90529 15.306 7.11987 15.3633C7.32269 15.4168 7.39734 15.403 7.47985 15.375Z" fill="white"/>
    <path fill-rule="evenodd" clip-rule="evenodd" d="M7.40222 15.0482L7.43052 15.0299C7.43449 15.0275 7.48254 14.9977 7.56443 14.9911C7.49546 14.9395 7.33017 14.8003 7.21417 14.7335C7.08633 14.6617 6.87504 14.5665 6.76758 14.5522C6.76758 14.5522 6.86848 14.8186 6.98551 14.9263C7.10794 15.038 7.19304 15.0793 7.40222 15.0482Z" fill="white"/>
    <path fill-rule="evenodd" clip-rule="evenodd" d="M7.61981 14.9255C7.56772 14.8583 7.52732 14.7654 7.49745 14.6556C7.47325 14.5665 7.4174 14.3451 7.38445 14.2879C7.35157 14.2303 7.23249 14.0299 7.00034 13.9673C7.00034 13.9673 6.93827 14.2291 7.05523 14.4355C7.15572 14.6141 7.36271 14.8021 7.61981 14.9255Z" fill="white"/>
    <path fill-rule="evenodd" clip-rule="evenodd" d="M8.909 16.1411C8.93757 16.1707 8.95972 16.1865 9.01154 16.2128C9.01154 16.2128 9.08571 16.3551 8.99575 16.5273C8.90565 16.6993 8.83011 16.8746 8.79395 16.9724C8.79395 16.9724 8.74576 16.965 8.69203 16.6959C8.65594 16.5135 8.61007 16.4678 8.56201 16.4052C8.61424 16.4318 8.65635 16.4396 8.66004 16.4404L8.69593 16.4465L8.7122 16.4143C8.74426 16.3528 8.75417 16.2931 8.75417 16.2432C8.75417 16.2269 8.75294 16.2115 8.75109 16.1975C8.83456 16.1996 8.87899 16.1572 8.89629 16.1356C8.89745 16.1334 8.89909 16.1321 8.89984 16.1301L8.909 16.1411Z" fill="white"/>
    <path fill-rule="evenodd" clip-rule="evenodd" d="M6.93529 14.0769C6.93447 14.1022 6.93372 14.1297 6.93447 14.159L6.93926 14.2234C6.80179 14.0471 6.6378 13.835 6.48119 13.6388C6.37373 13.5046 6.28288 13.4233 6.18232 13.3579C6.26654 13.6066 6.41925 13.805 6.52692 13.9041C6.63417 14.003 6.79071 14.1698 6.94254 14.2717L6.95717 14.3222C6.96906 14.3683 6.98725 14.4159 7.01267 14.4605C7.04774 14.5233 7.09457 14.5853 7.14946 14.6452C7.10537 14.6231 7.05492 14.5993 7.00358 14.5776L6.95655 14.558C6.53806 14.3345 6.12388 13.872 5.95564 13.5503C5.78721 13.2285 5.85762 12.8549 5.90185 12.655C6.09168 12.8171 6.36498 13.1357 6.48406 13.3095C6.63075 13.5222 6.81895 13.8238 6.93475 14.0694L6.93529 14.0769Z" fill="white"/>
    <path fill-rule="evenodd" clip-rule="evenodd" d="M12.8005 15.4496C12.7752 15.4345 12.7448 15.4195 12.7073 15.4055C12.962 15.3279 13.3125 15.2035 13.8393 15.1691C14.2258 15.1436 14.5053 15.1659 14.6493 15.2035C14.6493 15.2035 14.2975 15.4529 13.8949 15.5408C13.4924 15.6292 13.1656 15.5735 12.9268 15.5756C12.9112 15.552 12.8931 15.5251 12.8651 15.4984C13.1447 15.5003 13.6097 15.4274 13.7757 15.3715C13.7757 15.3715 13.3703 15.2867 12.8005 15.4496Z" fill="white"/>
    <path fill-rule="evenodd" clip-rule="evenodd" d="M12.8024 15.1477C12.801 15.155 12.7712 15.2998 12.6044 15.3797C12.9625 15.222 13.6684 15.1312 14.0474 14.9725C14.5601 14.758 14.6538 14.4904 14.6538 14.4904C14.2102 14.4784 13.8515 14.5874 13.5748 14.6729C13.2516 14.7726 12.7583 14.9581 12.5857 15.0355C12.6506 15.0379 12.7212 15.0569 12.7814 15.097C13.0222 15.0039 13.1341 14.9646 13.353 14.9029C13.5256 14.8542 13.653 14.8448 13.761 14.8344C13.761 14.8344 13.6093 14.9354 13.359 15.0156C13.1108 15.0957 13.0036 15.1089 12.8024 15.1477Z" fill="white"/>
    <path fill-rule="evenodd" clip-rule="evenodd" d="M12.8295 14.7543C12.8154 14.7798 12.7727 14.8407 12.7561 14.8649C13.3224 14.7694 13.9453 14.3385 14.1376 14.0712C14.3307 13.8038 14.276 13.405 14.276 13.405C14.0888 13.4427 13.683 13.7951 13.5779 13.9013C13.4728 14.0069 13.1555 14.3181 12.9354 14.4915L12.8669 14.6921C13.0551 14.5395 13.2786 14.3696 13.4182 14.2639C13.5251 14.1828 13.6853 14.0672 13.845 14.0126C13.845 14.0126 13.6982 14.2052 13.5794 14.2993C13.4431 14.4082 13.3038 14.5026 13.189 14.5658C13.0875 14.622 13.0356 14.6537 12.8295 14.7543Z" fill="white"/>
    <path fill-rule="evenodd" clip-rule="evenodd" d="M12.6913 14.0769C12.6921 14.1022 12.6928 14.1297 12.6916 14.159L12.6867 14.2234C12.824 14.0471 12.9887 13.835 13.1451 13.6388C13.2526 13.5046 13.3437 13.4233 13.4443 13.3579C13.3592 13.6066 13.2074 13.805 13.0993 13.9041C12.9918 14.003 12.8362 14.1698 12.684 14.2717L12.6691 14.3222C12.6573 14.3683 12.6393 14.4159 12.6139 14.4605C12.5783 14.5233 12.5323 14.5853 12.4768 14.6452C12.521 14.6231 12.5714 14.5993 12.6225 14.5776L12.6696 14.558C13.0882 14.3345 13.5029 13.872 13.6706 13.5503C13.838 13.2285 13.7692 12.8549 13.7245 12.655C13.5345 12.8171 13.2612 13.1357 13.1419 13.3095C12.9952 13.5222 12.8077 13.8238 12.6913 14.0694V14.0769Z" fill="white"/>
    <path fill-rule="evenodd" clip-rule="evenodd" d="M7.46936 16.6188C7.29703 16.7921 6.9337 17.1815 6.96754 17.6036C6.96754 17.6036 7.30544 17.4975 7.44428 17.2483C7.58359 16.9995 7.66945 16.8434 7.72762 16.7873C7.69009 16.7921 7.65256 16.7921 7.6162 16.786L7.58578 16.7812C7.49992 16.9384 7.33018 17.1951 7.1774 17.2848C7.1774 17.2848 7.13837 17.0766 7.58755 16.6547C7.59371 16.6374 7.60294 16.6174 7.61565 16.5957C7.57464 16.6109 7.5276 16.6193 7.47517 16.6184" fill="white"/>
    <path fill-rule="evenodd" clip-rule="evenodd" d="M12.0972 14.2805C12.0114 14.4712 11.8705 14.6668 11.4873 14.931C11.4012 14.9901 11.3065 15.113 11.3786 15.286C11.4506 15.4587 11.5867 15.7043 11.505 15.8001C11.4239 15.8957 11.1347 15.9454 10.8992 15.8504C10.8992 15.8504 10.85 15.9999 10.7642 16.0958C10.7642 16.0958 10.8044 16.1783 10.9403 16.1366C10.9403 16.1366 10.8907 16.2595 10.9583 16.3916C10.9583 16.3916 11.1165 16.3644 11.1839 16.2185C11.1839 16.2185 11.2473 16.3321 11.3743 16.3732C11.3743 16.3732 11.4786 16.319 11.4556 16.109C11.4556 16.109 11.532 16.296 11.7677 16.3274C11.7677 16.3274 11.9032 16.1549 11.7264 15.9228C11.7264 15.9228 11.8532 16.0366 12.0837 15.9819C12.0837 15.9819 12.1198 15.8639 11.9114 15.6999C11.9114 15.6999 12.1473 15.6907 12.2378 15.4906C12.2378 15.4906 12.1381 15.3675 11.8943 15.395C11.8943 15.395 12.1198 15.3447 12.1695 15.0719C12.1695 15.0719 12.0069 14.9672 11.7496 15.1354C11.7496 15.1354 11.7944 15.0492 11.9027 14.9628C12.0114 14.8763 12.1428 14.6351 12.0972 14.2805Z" fill="white"/>
    <path fill-rule="evenodd" clip-rule="evenodd" d="M11.1506 17.0247C11.1848 16.9788 11.21 16.9331 11.2297 16.8892C11.1892 17.2201 11.1746 17.4432 10.9968 17.6577C10.9968 17.6577 10.89 17.5143 10.9585 17.1658C10.9888 17.1571 11.0219 17.1428 11.0546 17.1209C11.0546 17.1209 11.014 17.2624 11.0391 17.4046C11.0391 17.4046 11.1039 17.358 11.1506 17.0247Z" fill="white"/>
    <path fill-rule="evenodd" clip-rule="evenodd" d="M11.458 16.9903C11.4793 16.9634 11.5206 16.9062 11.5416 16.8657C11.5563 17.0581 11.6065 17.5636 11.4382 17.7222C11.4382 17.7222 11.3228 17.6371 11.282 16.899C11.3067 16.9404 11.3495 16.9844 11.3699 17.0086C11.3699 17.0086 11.3423 17.2426 11.4257 17.4079C11.4257 17.4079 11.5093 17.344 11.458 16.9903Z" fill="white"/>
    <path fill-rule="evenodd" clip-rule="evenodd" d="M11.8597 17.3768C11.7176 17.2063 11.6754 16.6952 11.6754 16.6952C11.6561 16.6819 11.6358 16.6676 11.617 16.6516C11.6085 16.6451 11.6009 16.6384 11.5934 16.6311C11.5934 16.6495 11.5927 16.6691 11.5911 16.6883C11.6109 16.996 11.6358 17.3129 11.7309 17.4706C11.8242 17.6254 11.9959 17.7056 11.9959 17.7056C12.1573 17.4169 11.9625 17.03 11.7994 16.7609C11.7791 16.7532 11.7591 16.7436 11.7388 16.7331C11.7957 16.9402 11.9046 17.1867 11.8597 17.3768Z" fill="white"/>
    <path fill-rule="evenodd" clip-rule="evenodd" d="M12.2586 16.4901C12.2601 16.5229 12.2537 16.5502 12.2493 16.5636C12.2477 16.569 12.2451 16.5769 12.2422 16.5847C12.3766 16.718 12.477 16.8456 12.6769 17.1252C12.8772 17.4049 13.1942 17.4161 13.1942 17.4161C13.1639 17.1895 13.1025 17.0105 12.9328 16.8174C12.7632 16.6245 12.5465 16.4481 12.3867 16.3315C12.3456 16.35 12.2924 16.3621 12.2248 16.354C12.2193 16.3536 12.214 16.353 12.209 16.3517C12.2301 16.3801 12.243 16.4083 12.2502 16.4343C12.3709 16.504 12.7221 16.6826 12.8635 16.9713C12.8635 16.9713 12.6416 16.9007 12.2586 16.4901Z" fill="white"/>
    <path fill-rule="evenodd" clip-rule="evenodd" d="M12.5104 16.2082L12.497 16.1842C12.4925 16.1762 12.4881 16.1691 12.483 16.1624C12.6132 16.2132 13.0776 16.3895 13.2276 16.4676C13.3776 16.5463 13.5946 16.7239 13.7125 17.0855C13.7125 17.0855 13.3998 17.1135 13.1411 16.8985C12.8828 16.6826 12.5811 16.3824 12.4529 16.287C12.4657 16.2751 12.4754 16.2634 12.483 16.2535C12.483 16.2535 12.8327 16.5652 13.2022 16.7001C13.2022 16.7001 13.1235 16.5553 12.9777 16.4506C12.7992 16.3234 12.6662 16.2806 12.5104 16.2082Z" fill="white"/>
    <path fill-rule="evenodd" clip-rule="evenodd" d="M12.7753 15.9944C12.7706 15.9819 12.7655 15.9702 12.76 15.9592C12.9132 15.9903 13.2962 16.0366 13.4675 16.0891C13.6378 16.1422 13.9475 16.268 14.131 16.6207C14.131 16.6207 13.8617 16.7041 13.353 16.4636C12.8445 16.2227 12.6858 16.1726 12.5889 16.1466C12.6656 16.1411 12.7206 16.1148 12.7492 16.0971C12.952 16.1881 13.2233 16.2955 13.4923 16.3028C13.4923 16.3028 13.3593 16.2085 13.22 16.149C13.0683 16.0856 12.9021 16.0276 12.7753 15.9944Z" fill="white"/>
    <path fill-rule="evenodd" clip-rule="evenodd" d="M12.7637 15.7414C12.7136 15.7648 12.6756 15.7765 12.6106 15.7832C12.646 15.8065 12.6798 15.8357 12.7101 15.8752C12.8892 15.9272 13.194 15.9839 13.6982 16.0205C14.202 16.0566 14.4705 15.9639 14.4705 15.9639C14.2952 15.8558 14.0156 15.7461 13.8263 15.7093C13.6365 15.6725 13.1394 15.6767 12.9213 15.6467C12.9189 15.6493 12.8921 15.6707 12.8496 15.6969C13.0333 15.7133 13.4236 15.7316 13.6252 15.8348C13.6252 15.8348 13.2533 15.8844 12.7637 15.7414Z" fill="white"/>
    <path fill-rule="evenodd" clip-rule="evenodd" d="M11.2323 16.3496C11.2151 16.3342 11.2004 16.3194 11.1873 16.3062C11.1617 16.339 11.0743 16.4488 11.0316 16.5584C10.9988 16.6519 10.9638 16.7792 10.947 16.8522C10.929 16.9245 10.8776 17.0764 10.8462 17.1283C10.8462 17.1283 10.9844 17.1457 11.0867 17.0255C11.187 16.9078 11.2209 16.7892 11.2371 16.6677C11.2488 16.5725 11.2455 16.4404 11.2323 16.3496Z" fill="white"/>
    <path fill-rule="evenodd" clip-rule="evenodd" d="M11.4492 16.3677C11.4238 16.4023 11.3994 16.4162 11.3969 16.4178L11.3785 16.4274L11.3586 16.4207C11.342 16.4155 11.3263 16.4092 11.3113 16.4017C11.2911 16.4577 11.2834 16.4848 11.2781 16.5324C11.2712 16.596 11.2593 16.6959 11.2824 16.7776C11.3115 16.877 11.3703 16.9379 11.4033 16.9759C11.4033 16.9759 11.4937 16.8758 11.5197 16.7937C11.5464 16.7073 11.5562 16.6069 11.5233 16.504C11.5048 16.4481 11.4751 16.3971 11.4492 16.3677Z" fill="white"/>
    <path fill-rule="evenodd" clip-rule="evenodd" d="M11.7606 16.3774C11.668 16.3651 11.5985 16.3315 11.5454 16.2927C11.5341 16.3254 11.5155 16.3694 11.5293 16.4317C11.5426 16.4942 11.5855 16.563 11.6481 16.613C11.7404 16.6876 11.8652 16.7581 12.0029 16.7368C12.0029 16.7368 12.0345 16.6325 11.7606 16.3774Z" fill="white"/>
    <path fill-rule="evenodd" clip-rule="evenodd" d="M11.8644 16.2034C11.8535 16.2959 11.8095 16.354 11.8059 16.3587C11.8381 16.3973 11.9541 16.5975 12.1973 16.5643C12.1973 16.5643 12.2619 16.4276 12.1015 16.319C11.9914 16.2454 11.9397 16.2304 11.8644 16.2034Z" fill="white"/>
    <path fill-rule="evenodd" clip-rule="evenodd" d="M11.843 16.0322C11.9076 16.0485 11.9919 16.055 12.0947 16.0306L12.1227 16.0241L12.1307 15.9968C12.2554 16.0988 12.4031 16.1161 12.4539 16.2086C12.4539 16.2086 12.3917 16.3236 12.2307 16.3048C12.0693 16.2852 11.9475 16.2091 11.8613 16.1002C11.8583 16.084 11.8513 16.0531 11.843 16.0322Z" fill="white"/>
    <path fill-rule="evenodd" clip-rule="evenodd" d="M12.1232 15.8885C12.1 15.8542 12.0837 15.8011 12.0359 15.7474C12.1433 15.7288 12.2392 15.7272 12.3641 15.7518C12.5129 15.7797 12.6647 15.815 12.7409 16.0432C12.7409 16.0432 12.6449 16.1249 12.4713 16.0895C12.3245 16.0589 12.1963 15.9953 12.1232 15.8885Z" fill="white"/>
    <path fill-rule="evenodd" clip-rule="evenodd" d="M12.1858 15.6416C12.2233 15.6087 12.2576 15.5666 12.2825 15.5115L12.2947 15.4828C12.424 15.4301 12.5585 15.403 12.6895 15.4519C12.8216 15.5018 12.856 15.5585 12.89 15.6082C12.89 15.6082 12.7439 15.7311 12.5758 15.7353C12.4082 15.7408 12.2532 15.6919 12.1858 15.6416Z" fill="white"/>
    <path fill-rule="evenodd" clip-rule="evenodd" d="M12.147 15.375C12.1246 15.3665 12.0998 15.3587 12.0715 15.3529C12.1289 15.3024 12.1851 15.225 12.2124 15.1098C12.2722 15.1238 12.4128 15.1238 12.4748 15.1004C12.5367 15.0764 12.6584 15.0753 12.7532 15.1382C12.7532 15.1382 12.7223 15.306 12.5066 15.3633C12.3036 15.4168 12.2292 15.403 12.147 15.375Z" fill="white"/>
    <path fill-rule="evenodd" clip-rule="evenodd" d="M12.224 15.0482L12.1959 15.0299C12.1918 15.0275 12.1438 14.9977 12.0613 14.9911C12.131 14.9395 12.2953 14.8003 12.4126 14.7335C12.5401 14.6617 12.7512 14.5665 12.8595 14.5522C12.8595 14.5522 12.7583 14.8186 12.6405 14.9263C12.5187 15.038 12.4333 15.0793 12.224 15.0482Z" fill="white"/>
    <path fill-rule="evenodd" clip-rule="evenodd" d="M12.0071 14.9255C12.0592 14.8583 12.0995 14.7654 12.1294 14.6556C12.1542 14.5665 12.2098 14.3451 12.2429 14.2879C12.2763 14.2303 12.3949 14.0299 12.6272 13.9673C12.6272 13.9673 12.689 14.2291 12.572 14.4355C12.4709 14.6141 12.2647 14.8021 12.0071 14.9255Z" fill="white"/>
    <path fill-rule="evenodd" clip-rule="evenodd" d="M10.7182 16.1411C10.6881 16.1707 10.6661 16.1865 10.6149 16.2128C10.6149 16.2128 10.5403 16.3551 10.6305 16.5273C10.7201 16.6993 10.7958 16.8746 10.8325 16.9724C10.8325 16.9724 10.8808 16.965 10.9342 16.6959C10.9706 16.5135 11.0167 16.4678 11.0641 16.4052C11.0118 16.4318 10.9703 16.4396 10.9664 16.4404L10.9307 16.4465L10.9141 16.4143C10.8817 16.3528 10.873 16.2931 10.873 16.2432C10.873 16.2269 10.8737 16.2115 10.8754 16.1975C10.7918 16.1996 10.7471 16.1572 10.7306 16.1356C10.7286 16.1334 10.7272 16.1321 10.7264 16.1301L10.7182 16.1411Z" fill="white"/>
    <path fill-rule="evenodd" clip-rule="evenodd" d="M12.1572 16.6188C12.3294 16.7921 12.693 17.1815 12.6585 17.6036C12.6585 17.6036 12.3207 17.4975 12.1822 17.2483C12.0428 16.9995 11.9574 16.8434 11.8989 16.7873C11.9358 16.7921 11.9734 16.7921 12.0102 16.786L12.0412 16.7812C12.1266 16.9384 12.2964 17.1951 12.4493 17.2848C12.4493 17.2848 12.488 17.0766 12.0391 16.6547C12.0328 16.6374 12.0233 16.6174 12.0109 16.5957C12.0518 16.6109 12.0987 16.6193 12.1511 16.6184" fill="white"/>
    <path fill-rule="evenodd" clip-rule="evenodd" d="M9.54956 13.2504C9.54956 13.2193 9.66782 13.1936 9.81329 13.1936C9.9591 13.1936 10.077 13.2193 10.077 13.2504C10.077 13.2813 9.9591 13.3069 9.81329 13.3069C9.66782 13.3069 9.54956 13.2813 9.54956 13.2504Z" fill="white"/>
    <path fill-rule="evenodd" clip-rule="evenodd" d="M9.86475 13.3748C9.86475 13.4036 9.84206 13.427 9.81328 13.427C9.78471 13.427 9.76099 13.4036 9.76099 13.3748C9.76099 13.346 9.78471 13.3228 9.81328 13.3228C9.84206 13.3228 9.86475 13.346 9.86475 13.3748Z" fill="white"/>
    <path fill-rule="evenodd" clip-rule="evenodd" d="M9.53063 13.1952C9.44334 12.9849 9.38435 12.8293 9.38653 12.7774C9.38804 12.7461 9.42536 12.7227 9.4607 12.7119C9.49522 12.7008 9.52619 12.6987 9.5495 12.7166C9.59537 12.7519 9.63741 13.036 9.65334 13.1541C9.60911 13.1625 9.58224 13.1683 9.53063 13.1952Z" fill="white"/>
    <path fill-rule="evenodd" clip-rule="evenodd" d="M9.69074 13.1498C9.71275 13.1469 9.73565 13.1459 9.75876 13.145C9.74502 13.0321 9.70592 12.8439 9.68343 12.7702C9.66046 12.6959 9.63134 12.6426 9.58301 12.6292C9.58301 12.6292 9.62054 12.7326 9.64132 12.8391C9.66169 12.9461 9.67727 13.048 9.69074 13.1498Z" fill="white"/>
    <path fill-rule="evenodd" clip-rule="evenodd" d="M9.41307 13.5266C9.50986 13.5036 9.60891 13.3995 9.60891 13.3995C9.45258 13.4222 9.41307 13.5266 9.41307 13.5266ZM9.55799 13.5172C9.42305 13.5961 9.27197 13.5842 9.27197 13.5842C9.30123 13.5303 9.32878 13.4804 9.41307 13.4199C9.49742 13.359 9.63516 13.3439 9.68917 13.3514C9.67713 13.3919 9.62224 13.4792 9.55799 13.5172Z" fill="white"/>
    <path fill-rule="evenodd" clip-rule="evenodd" d="M9.05453 13.7402V13.7292C8.92191 13.7463 8.76571 13.7394 8.76571 13.7394C8.77357 13.789 8.79422 13.8266 8.82915 13.8496C8.83762 13.7414 9.05453 13.7402 9.05453 13.7402ZM8.6145 13.5972C8.6145 13.5972 8.78219 13.6598 8.95014 13.6518C9.11742 13.6432 9.42667 13.6397 9.5262 13.5908C9.5262 13.5908 9.51007 13.6542 9.43029 13.6907C9.43029 13.6907 9.47233 13.6907 9.51328 13.727C9.51328 13.727 9.48915 13.7793 9.41792 13.807C9.41792 13.807 9.54575 13.9405 9.68281 13.9308C9.68281 13.9308 9.61978 14.0099 9.47958 13.9794C9.33945 13.9491 9.2946 13.8702 9.27088 13.8398C9.27088 13.8398 9.28907 13.9153 9.28038 13.9458C9.28038 13.9458 9.21893 13.942 9.17101 13.8813C9.17101 13.8813 9.2058 13.942 9.21305 13.9932C9.21305 13.9932 9.17443 13.9976 9.10518 13.9566C9.10518 13.9566 9.11967 13.9943 9.12234 14.0378C9.12234 14.0378 8.96047 13.9857 8.88206 13.9116C8.88206 13.9116 8.88103 13.9627 8.88493 13.9917C8.88493 13.9917 8.63378 13.9661 8.6145 13.5972Z" fill="white"/>
    <path fill-rule="evenodd" clip-rule="evenodd" d="M8.57526 13.623C8.58155 13.7028 8.60185 13.7816 8.6296 13.8374C8.6296 13.8374 8.53082 13.7628 8.50676 13.6992C8.48208 13.6362 8.47627 13.5925 8.57526 13.623Z" fill="white"/>
    <path fill-rule="evenodd" clip-rule="evenodd" d="M8.37737 13.9265C8.40075 13.9265 8.41928 13.9082 8.41928 13.8852C8.41928 13.8621 8.40075 13.8437 8.37737 13.8437C8.35509 13.8437 8.33711 13.8621 8.33711 13.8852C8.33711 13.9082 8.35509 13.9265 8.37737 13.9265ZM8.61943 13.8779C8.6856 13.9082 8.74446 13.9802 8.74446 13.9802C8.64431 14.0032 8.59988 14.0321 8.59988 14.0321C8.40793 13.8959 8.24981 14.0328 8.24981 14.0328C8.14598 13.9741 8.12609 13.8293 8.17797 13.7529C8.22979 13.6761 8.34688 13.6896 8.40239 13.703C8.4376 13.8149 8.55989 13.8508 8.61943 13.8779Z" fill="white"/>
    <path fill-rule="evenodd" clip-rule="evenodd" d="M8.76604 14.0049C8.76604 14.0049 8.83576 14.0987 8.88703 14.14C8.88703 14.14 8.62877 14.1375 8.56369 14.3625C8.56369 14.3625 8.47415 14.2247 8.5395 14.1348C8.60997 14.0381 8.67437 14.0262 8.76604 14.0049Z" fill="white"/>
    <path fill-rule="evenodd" clip-rule="evenodd" d="M9.04956 14.0607C9.04956 14.0607 9.13303 14.0854 9.16092 14.0927C9.16092 14.0927 9.16167 14.0441 9.1601 14.0208C9.18518 14.0269 9.21636 14.0349 9.24322 14.0376C9.24322 14.0376 9.32628 14.2246 9.39142 14.3001C9.39142 14.3001 9.39518 14.3416 9.35888 14.4045C9.35888 14.4045 9.31165 14.2939 9.22709 14.2052C9.17937 14.1555 9.14875 14.1301 9.04956 14.0607Z" fill="white"/>
    <path fill-rule="evenodd" clip-rule="evenodd" d="M8.83057 14.0208C8.85764 14.028 8.99094 14.0701 9.05478 14.1169C9.13592 14.1749 9.19157 14.2419 9.18261 14.3569C9.18261 14.3569 9.11767 14.2657 9.04549 14.2246C8.98854 14.1918 8.88518 14.101 8.83057 14.0208Z" fill="white"/>
    <path fill-rule="evenodd" clip-rule="evenodd" d="M8.83205 13.175C8.85659 13.175 8.9041 13.187 8.9041 13.2265C8.9041 13.2668 8.84278 13.3632 8.82597 13.4058H8.82439C8.80812 13.3632 8.74585 13.2668 8.74585 13.2265C8.74585 13.187 8.79404 13.175 8.81852 13.175H8.83205Z" fill="white"/>
    <path fill-rule="evenodd" clip-rule="evenodd" d="M8.77784 13.4859C8.76642 13.4298 8.74427 13.2843 8.71016 13.2522C8.67769 13.2213 8.62916 13.2184 8.60557 13.2197C8.58103 13.2213 8.55595 13.2463 8.56599 13.2787C8.5755 13.3123 8.68248 13.4733 8.69642 13.4937C8.7213 13.4893 8.71659 13.491 8.77784 13.4859Z" fill="white"/>
    <path fill-rule="evenodd" clip-rule="evenodd" d="M8.87256 13.4859C8.88459 13.4298 8.90619 13.2843 8.94051 13.2522C8.97277 13.2213 9.02144 13.2184 9.0451 13.2197C9.0695 13.2213 9.09507 13.2463 9.08529 13.2787C9.07483 13.3123 8.96812 13.4733 8.95384 13.4937C8.9293 13.4893 8.93394 13.491 8.87256 13.4859Z" fill="white"/>
    <path fill-rule="evenodd" clip-rule="evenodd" d="M8.94177 12.9795H8.85824V12.887H8.79111V12.9795H8.70703V13.0381H8.79111V13.1467H8.85824V13.0381H8.94177V12.9795Z" fill="white"/>
    <path fill-rule="evenodd" clip-rule="evenodd" d="M7.93146 13.5782C7.93146 13.5597 7.93228 13.5421 7.93495 13.5244C7.94124 13.4791 7.94179 13.4407 7.93693 13.4084C7.87684 13.4318 7.83631 13.4463 7.75366 13.5807C7.75366 13.5807 7.88539 13.4989 7.93146 13.5782Z" fill="white"/>
    <path fill-rule="evenodd" clip-rule="evenodd" d="M8.0464 13.7903C8.04811 13.7571 8.07005 13.6517 8.09753 13.578C8.1311 13.4864 8.11155 13.3543 8.07087 13.274C8.03184 13.1967 8.01058 13.1239 8.01701 13.0437C8.01701 13.0437 7.93962 13.07 7.89444 13.0978C7.88733 13.1909 7.9412 13.2841 7.9669 13.3369C7.99718 13.3994 7.99089 13.481 7.98426 13.531C7.97257 13.6156 7.98973 13.7056 8.0464 13.7903Z" fill="white"/>
    <path fill-rule="evenodd" clip-rule="evenodd" d="M8.05508 13.0796C8.05194 13.0689 8.05194 13.0395 8.05768 13.0278C8.05768 13.0278 8.1808 12.9074 8.28402 12.8871C8.34903 12.8734 8.38908 12.9026 8.40864 12.9187C8.40864 12.9187 8.37254 12.9145 8.31738 12.9598C8.26201 13.0047 8.19344 13.0589 8.14224 13.0725C8.0907 13.0861 8.08004 13.0822 8.05508 13.0796Z" fill="white"/>
    <path fill-rule="evenodd" clip-rule="evenodd" d="M8.41936 12.9277C8.4651 12.9742 8.50447 13.0236 8.50344 13.0662C8.50283 13.1103 8.4517 13.2213 8.42517 13.2635C8.39845 13.3056 8.35914 13.361 8.36358 13.4282C8.36604 13.4616 8.38935 13.496 8.41677 13.5246C8.41677 13.5246 8.26624 13.4887 8.24765 13.3952C8.23165 13.3115 8.26727 13.2532 8.29153 13.2069C8.31375 13.1631 8.383 13.0618 8.40084 13.0195C8.41677 12.9811 8.42517 12.9492 8.41936 12.9277Z" fill="white"/>
    <path fill-rule="evenodd" clip-rule="evenodd" d="M9.29785 13.981C9.32759 14.0883 9.37886 14.1889 9.42931 14.2678C9.47463 14.3402 9.50341 14.4569 9.49917 14.4966C9.49917 14.4966 9.56705 14.3457 9.53273 14.2392C9.50518 14.1564 9.43238 14.0328 9.29785 13.981Z" fill="white"/>
    <path fill-rule="evenodd" clip-rule="evenodd" d="M9.46704 14.0161C9.46704 14.0161 9.5704 14.0182 9.61852 14.0501C9.68039 14.0912 9.73931 14.1812 9.76221 14.2891C9.76221 14.2891 9.6579 14.2709 9.60663 14.2193C9.55481 14.1674 9.49124 14.09 9.46704 14.0161Z" fill="white"/>
    <path fill-rule="evenodd" clip-rule="evenodd" d="M8.93329 14.2039C8.91347 14.2054 8.86049 14.2177 8.83472 14.2255C8.83472 14.2255 8.92242 14.2513 8.96644 14.2879C9.00404 14.3188 9.03631 14.3667 9.051 14.4477C9.07267 14.5607 9.13843 14.6823 9.15812 14.719L9.16619 14.7175C9.15429 14.6396 9.20208 14.4782 9.21506 14.4548C9.21506 14.4548 9.14507 14.411 9.11294 14.3653C9.08935 14.3317 9.04813 14.2757 8.93329 14.2039Z" fill="white"/>
    <path fill-rule="evenodd" clip-rule="evenodd" d="M9.39003 14.4465C9.41539 14.5058 9.48375 14.611 9.45183 14.7205C9.42004 14.8303 9.34861 14.8774 9.30479 14.9707C9.30479 14.9707 9.27047 14.8024 9.27758 14.6731C9.28544 14.5433 9.3324 14.4934 9.39003 14.4465Z" fill="white"/>
    <path fill-rule="evenodd" clip-rule="evenodd" d="M9.58824 14.4507C9.58824 14.4507 9.69085 14.6509 9.70944 14.7293C9.72728 14.807 9.71067 14.8588 9.67553 14.9063C9.64142 14.9531 9.58209 15.004 9.52733 15.1029C9.52733 15.1029 9.46403 15.0186 9.45658 14.9746C9.44927 14.9306 9.46109 14.8254 9.4749 14.7817C9.48823 14.737 9.54244 14.5952 9.58824 14.4507Z" fill="white"/>
    <path fill-rule="evenodd" clip-rule="evenodd" d="M9.64129 15.0898C9.619 15.1144 9.4991 15.2594 9.48304 15.3016C9.46684 15.3437 9.43915 15.4237 9.47607 15.4795C9.51366 15.5353 9.59925 15.6235 9.67321 15.6612C9.67321 15.6612 9.59255 15.5339 9.60109 15.4297C9.60574 15.3628 9.65728 15.3033 9.66713 15.2626C9.6769 15.2223 9.67075 15.1536 9.64129 15.0898Z" fill="white"/>
    <path fill-rule="evenodd" clip-rule="evenodd" d="M9.40598 15.0098C9.42437 15.0355 9.45643 15.0979 9.46094 15.1586C9.46539 15.2184 9.45561 15.2666 9.42301 15.3544C9.3824 15.4652 9.31855 15.5885 9.28895 15.6441C9.28895 15.6441 9.23283 15.5631 9.20166 15.4907C9.20166 15.4907 9.28957 15.3692 9.32737 15.2835C9.37057 15.1825 9.38862 15.0892 9.40598 15.0098Z" fill="white"/>
    <path fill-rule="evenodd" clip-rule="evenodd" d="M9.36555 14.9629C9.36555 14.9629 9.32748 15.248 9.16089 15.4594C9.04803 15.6025 8.95649 15.6525 8.89572 15.6525C8.80433 15.6525 8.71225 15.5759 8.68176 15.4878C8.65059 15.4004 8.66084 15.2639 8.72004 15.2155C8.72004 15.2155 8.77452 15.3866 8.8919 15.3928C9.02458 15.4004 9.19493 15.2507 9.36555 14.9629Z" fill="white"/>
    <path fill-rule="evenodd" clip-rule="evenodd" d="M9.22895 14.844C9.24283 14.8948 9.2472 14.973 9.22895 15.0468C9.21514 15.103 9.18137 15.1758 9.11616 15.217C9.05983 15.2523 8.92646 15.2608 8.87622 15.1345C8.87622 15.1345 9.11903 15.1529 9.22895 14.844Z" fill="white"/>
    <path fill-rule="evenodd" clip-rule="evenodd" d="M9.62569 15.9927C9.6587 16.0785 9.7771 16.1868 9.77683 16.2538C9.77498 16.4308 9.6976 16.5392 9.67955 16.5976C9.67955 16.5976 9.53853 16.4851 9.51337 16.3561C9.50052 16.2898 9.51549 16.091 9.62569 15.9927Z" fill="white"/>
    <path fill-rule="evenodd" clip-rule="evenodd" d="M9.46769 16.1182C9.48396 16.0721 9.53612 15.9467 9.596 15.9031C9.596 15.9031 9.67263 15.676 9.42592 15.5359C9.42592 15.5359 9.32441 15.6712 9.29775 15.7986C9.27068 15.927 9.40487 16.0033 9.46769 16.1182Z" fill="white"/>
    <path fill-rule="evenodd" clip-rule="evenodd" d="M9.15938 15.5439C9.11973 15.5927 9.06354 15.6591 9.02013 15.6799C9.02013 15.6799 9.00536 15.7814 9.01336 15.849C9.02655 15.9493 9.08992 16.0514 9.11747 16.1262C9.11747 16.1262 9.22541 15.9843 9.23778 15.901C9.25002 15.8175 9.24852 15.749 9.25255 15.7089C9.25255 15.7089 9.19239 15.6105 9.15938 15.5439Z" fill="white"/>
    <path fill-rule="evenodd" clip-rule="evenodd" d="M8.87412 16.0315C8.84356 15.9843 8.7452 15.8127 8.7439 15.6875C8.7439 15.6875 8.86544 15.7526 8.96729 15.7046C8.96729 15.7046 8.98042 15.8676 8.96121 15.9225C8.9446 15.9672 8.92389 15.9937 8.87412 16.0315Z" fill="white"/>
    <path fill-rule="evenodd" clip-rule="evenodd" d="M8.90234 16.066C8.92203 16.0485 8.97063 16.0036 8.99094 15.98C8.99094 15.98 9.07153 16.1288 9.08527 16.1724C9.08527 16.1724 9.0448 16.1829 9.0003 16.1505C8.95621 16.118 8.94596 16.1092 8.90234 16.066Z" fill="white"/>
    <path fill-rule="evenodd" clip-rule="evenodd" d="M9.27622 15.9785C9.26665 16.0162 9.13602 16.1985 9.11353 16.221C9.11353 16.221 9.12316 16.287 9.1719 16.3823C9.2201 16.4769 9.28736 16.5437 9.32332 16.5773C9.32332 16.5773 9.40432 16.4358 9.42818 16.3741C9.45484 16.3028 9.4519 16.2327 9.44055 16.2065C9.41294 16.1448 9.31846 16.0557 9.27622 15.9785Z" fill="white"/>
    <path fill-rule="evenodd" clip-rule="evenodd" d="M9.4729 16.4563C9.50174 16.5148 9.58876 16.6112 9.6023 16.6874C9.61317 16.7471 9.60367 16.796 9.5874 16.8379C9.57099 16.8783 9.51911 16.9589 9.48424 17.0201C9.48424 17.0201 9.36489 16.9069 9.33884 16.826C9.31888 16.7652 9.3264 16.6788 9.35491 16.6251C9.38335 16.5709 9.44562 16.5123 9.4729 16.4563Z" fill="white"/>
    <path fill-rule="evenodd" clip-rule="evenodd" d="M9.13528 16.4397C9.16584 16.5079 9.23974 16.5754 9.25662 16.6348C9.27624 16.7051 9.2828 16.7494 9.2491 16.8313C9.21902 16.9027 9.18279 16.9448 9.17083 16.9886C9.17083 16.9886 9.07397 16.8623 9.05763 16.8099C9.0417 16.7574 9.03644 16.6711 9.05647 16.6165C9.07588 16.5611 9.11122 16.4901 9.13528 16.4397Z" fill="white"/>
    <path fill-rule="evenodd" clip-rule="evenodd" d="M9.61232 16.9202C9.61232 16.9202 9.44546 17.1227 9.44928 17.23C9.45434 17.3637 9.54252 17.453 9.55483 17.5351C9.55483 17.5351 9.64199 17.4356 9.67562 17.3688C9.71294 17.294 9.74117 17.23 9.73208 17.145C9.72149 17.0598 9.69934 17.0054 9.61232 16.9202Z" fill="white"/>
    <path fill-rule="evenodd" clip-rule="evenodd" d="M9.30521 16.9004C9.33159 16.9391 9.40576 17.0716 9.38491 17.1499C9.364 17.2293 9.2819 17.3402 9.25414 17.3874C9.25414 17.3874 9.18845 17.2516 9.17334 17.1889C9.15878 17.1271 9.17225 17.0251 9.30521 16.9004Z" fill="white"/>
    <path fill-rule="evenodd" clip-rule="evenodd" d="M9.81466 13.0313C9.826 12.9551 9.91371 12.7915 9.91371 12.7202C9.91371 12.664 9.86859 12.6187 9.81308 12.6187C9.75683 12.6187 9.71191 12.664 9.71191 12.7202C9.71191 12.7915 9.80037 12.9551 9.81131 13.0313H9.81466Z" fill="white"/>
    <path fill-rule="evenodd" clip-rule="evenodd" d="M10.0962 13.1952C10.1841 12.9849 10.2424 12.8293 10.2402 12.7774C10.2388 12.7461 10.2016 12.7227 10.167 12.7119C10.1316 12.7008 10.1002 12.6987 10.0773 12.7166C10.0318 12.7519 9.98897 13.036 9.97339 13.1541C10.0182 13.1625 10.045 13.1683 10.0962 13.1952Z" fill="white"/>
    <path fill-rule="evenodd" clip-rule="evenodd" d="M9.93615 13.1498C9.91394 13.1469 9.89103 13.1459 9.86841 13.145C9.88242 13.0321 9.92084 12.8439 9.94374 12.7702C9.96623 12.6959 9.99521 12.6426 10.0441 12.6292C10.0441 12.6292 10.0063 12.7326 9.98571 12.8391C9.96541 12.9461 9.94955 13.048 9.93615 13.1498Z" fill="white"/>
    <path fill-rule="evenodd" clip-rule="evenodd" d="M10.0179 13.3995C10.0179 13.3995 10.1163 13.5036 10.2137 13.5266C10.2137 13.5266 10.1737 13.4222 10.0179 13.3995ZM9.93701 13.3514C9.99149 13.3439 10.129 13.359 10.2137 13.4199C10.2982 13.4804 10.3254 13.5303 10.3543 13.5843C10.3543 13.5843 10.2033 13.5961 10.0684 13.5172C10.0045 13.4792 9.94945 13.3919 9.93701 13.3514Z" fill="white"/>
    <path fill-rule="evenodd" clip-rule="evenodd" d="M10.7979 13.8496C10.8331 13.8265 10.8531 13.789 10.8617 13.7394C10.8617 13.7394 10.7051 13.7463 10.5719 13.7292V13.7402C10.5719 13.7402 10.7895 13.7413 10.7979 13.8496ZM10.7425 13.9917C10.7464 13.9627 10.7449 13.9116 10.7449 13.9116C10.6664 13.9857 10.505 14.0378 10.505 14.0378C10.5074 13.9943 10.5212 13.9566 10.5212 13.9566C10.4527 13.9976 10.4142 13.9932 10.4142 13.9932C10.4213 13.9419 10.4564 13.8812 10.4564 13.8812C10.4081 13.9419 10.3465 13.9458 10.3465 13.9458C10.3381 13.9153 10.3563 13.8398 10.3563 13.8398C10.3325 13.8702 10.2879 13.9491 10.1475 13.9794C10.007 14.0099 9.94458 13.9308 9.94458 13.9308C10.0814 13.9404 10.2091 13.807 10.2091 13.807C10.138 13.7793 10.114 13.7269 10.114 13.7269C10.1553 13.6907 10.1971 13.6907 10.1971 13.6907C10.117 13.6542 10.1004 13.5908 10.1004 13.5908C10.2008 13.6397 10.5096 13.6432 10.6775 13.6518C10.8451 13.6598 11.0121 13.5972 11.0121 13.5972C10.9932 13.9661 10.7425 13.9917 10.7425 13.9917Z" fill="white"/>
    <path fill-rule="evenodd" clip-rule="evenodd" d="M11.0508 13.623C11.0446 13.7028 11.0241 13.7816 10.9966 13.8374C10.9966 13.8374 11.0955 13.7628 11.1191 13.6992C11.1433 13.6362 11.1496 13.5925 11.0508 13.623Z" fill="white"/>
    <path fill-rule="evenodd" clip-rule="evenodd" d="M11.2904 13.8849C11.2904 13.8619 11.2715 13.8434 11.249 13.8434C11.2265 13.8434 11.2078 13.8619 11.2078 13.8849C11.2078 13.908 11.2265 13.9262 11.249 13.9262C11.2715 13.9262 11.2904 13.908 11.2904 13.8849ZM11.2247 13.7028C11.2804 13.6893 11.3974 13.6758 11.449 13.7527C11.5015 13.8291 11.481 13.9738 11.377 14.0326C11.377 14.0326 11.2185 13.8957 11.0271 14.0318C11.0271 14.0318 10.9822 14.003 10.8821 13.98C10.8821 13.98 10.9413 13.908 11.0078 13.8776C11.0667 13.8505 11.1896 13.8147 11.2247 13.7028Z" fill="white"/>
    <path fill-rule="evenodd" clip-rule="evenodd" d="M10.8601 14.0049C10.8601 14.0049 10.7908 14.0987 10.7395 14.14C10.7395 14.14 10.9976 14.1375 11.0627 14.3625C11.0627 14.3625 11.1523 14.2247 11.0867 14.1348C11.0166 14.0381 10.9521 14.0262 10.8601 14.0049Z" fill="white"/>
    <path fill-rule="evenodd" clip-rule="evenodd" d="M10.5767 14.0607C10.5767 14.0607 10.4932 14.0854 10.4655 14.0927C10.4655 14.0927 10.464 14.0441 10.4668 14.0208C10.4415 14.0269 10.4105 14.0349 10.3834 14.0376C10.3834 14.0376 10.3 14.2246 10.2352 14.3001C10.2352 14.3001 10.2313 14.3416 10.2675 14.4045C10.2675 14.4045 10.3147 14.2939 10.3989 14.2052C10.4469 14.1555 10.4774 14.1301 10.5767 14.0607Z" fill="white"/>
    <path fill-rule="evenodd" clip-rule="evenodd" d="M10.7955 14.0208C10.7695 14.028 10.636 14.0701 10.5711 14.1169C10.4907 14.1749 10.4353 14.2419 10.4437 14.3569C10.4437 14.3569 10.5092 14.2657 10.581 14.2246C10.6384 14.1918 10.7416 14.101 10.7955 14.0208Z" fill="white"/>
    <path fill-rule="evenodd" clip-rule="evenodd" d="M10.7942 13.175C10.7698 13.175 10.7219 13.187 10.7219 13.2265C10.7219 13.2668 10.7839 13.3632 10.8003 13.4058H10.8018C10.8183 13.3632 10.8804 13.2668 10.8804 13.2265C10.8804 13.187 10.8326 13.175 10.8078 13.175H10.7942Z" fill="white"/>
    <path fill-rule="evenodd" clip-rule="evenodd" d="M10.8486 13.4859C10.86 13.4298 10.8814 13.2843 10.9162 13.2522C10.9488 13.2213 10.997 13.2184 11.0212 13.2197C11.0457 13.2213 11.0711 13.2463 11.0601 13.2787C11.0508 13.3123 10.9436 13.4733 10.9293 13.4937C10.9047 13.4893 10.9097 13.491 10.8486 13.4859Z" fill="white"/>
    <path fill-rule="evenodd" clip-rule="evenodd" d="M10.7537 13.4859C10.7419 13.4298 10.7201 13.2843 10.6857 13.2522C10.6529 13.2213 10.6045 13.2184 10.5806 13.2197C10.5567 13.2213 10.531 13.2463 10.5414 13.2787C10.5511 13.3123 10.6576 13.4733 10.6723 13.4937C10.697 13.4893 10.692 13.491 10.7537 13.4859Z" fill="white"/>
    <path fill-rule="evenodd" clip-rule="evenodd" d="M10.6853 12.9795H10.7684V12.887H10.8353V12.9795H10.919V13.0381H10.8353V13.1467H10.7684V13.0381H10.6853V12.9795Z" fill="white"/>
    <path fill-rule="evenodd" clip-rule="evenodd" d="M9.69604 12.4304H9.77903V12.3376H9.84698V12.4304H9.93045V12.4885H9.84698V12.5978H9.77903V12.4885H9.69604V12.4304Z" fill="white"/>
    <path fill-rule="evenodd" clip-rule="evenodd" d="M11.6951 13.5782C11.6943 13.5597 11.6932 13.5421 11.691 13.5244C11.6851 13.4791 11.684 13.4407 11.6888 13.4084C11.749 13.4318 11.7894 13.4463 11.8723 13.5807C11.8723 13.5807 11.7405 13.4989 11.6951 13.5782Z" fill="white"/>
    <path fill-rule="evenodd" clip-rule="evenodd" d="M11.5796 13.7903C11.5777 13.7571 11.5563 13.6517 11.5292 13.578C11.4953 13.4864 11.5144 13.3543 11.555 13.274C11.5941 13.1967 11.6161 13.1239 11.6088 13.0437C11.6088 13.0437 11.6867 13.07 11.7315 13.0978C11.739 13.1909 11.6852 13.2841 11.6597 13.3369C11.6289 13.3994 11.635 13.481 11.6419 13.531C11.6537 13.6156 11.6356 13.7056 11.5796 13.7903Z" fill="white"/>
    <path fill-rule="evenodd" clip-rule="evenodd" d="M11.5711 13.0796C11.5736 13.0689 11.5733 13.0395 11.5677 13.0278C11.5677 13.0278 11.4454 12.9074 11.342 12.8871C11.2765 12.8734 11.2364 12.9026 11.2168 12.9187C11.2168 12.9187 11.2534 12.9145 11.3085 12.9598C11.3634 13.0047 11.4317 13.0589 11.4837 13.0725C11.5352 13.0861 11.5466 13.0822 11.5711 13.0796Z" fill="white"/>
    <path fill-rule="evenodd" clip-rule="evenodd" d="M11.207 12.9277C11.1611 12.9742 11.1222 13.0236 11.1231 13.0662C11.1237 13.1103 11.1746 13.2213 11.2013 13.2635C11.2283 13.3056 11.2673 13.361 11.2624 13.4282C11.2603 13.4616 11.2369 13.496 11.21 13.5246C11.21 13.5246 11.3603 13.4887 11.3782 13.3952C11.3949 13.3115 11.3597 13.2532 11.3352 13.2069C11.3128 13.1631 11.2432 13.0618 11.2259 13.0195C11.21 12.9811 11.2013 12.9492 11.207 12.9277Z" fill="white"/>
    <path fill-rule="evenodd" clip-rule="evenodd" d="M10.3295 13.981C10.299 14.0883 10.2482 14.1889 10.1979 14.2678C10.1522 14.3402 10.1234 14.4569 10.1287 14.4966C10.1287 14.4966 10.0602 14.3457 10.0951 14.2392C10.1216 14.1564 10.1944 14.0328 10.3295 13.981Z" fill="white"/>
    <path fill-rule="evenodd" clip-rule="evenodd" d="M10.1588 14.0161C10.1588 14.0161 10.0561 14.0182 10.008 14.0501C9.94566 14.0912 9.88626 14.1812 9.86377 14.2891C9.86377 14.2891 9.96815 14.2709 10.0198 14.2193C10.0716 14.1674 10.1347 14.09 10.1588 14.0161Z" fill="white"/>
    <path fill-rule="evenodd" clip-rule="evenodd" d="M10.6937 14.2039C10.7137 14.2054 10.7663 14.2177 10.7921 14.2255C10.7921 14.2255 10.7042 14.2513 10.6606 14.2879C10.6232 14.3188 10.5902 14.3667 10.5756 14.4477C10.5545 14.5607 10.4882 14.6823 10.4683 14.719L10.461 14.7175C10.4731 14.6396 10.4247 14.4782 10.4124 14.4548C10.4124 14.4548 10.4821 14.411 10.5138 14.3653C10.537 14.3317 10.579 14.2757 10.6937 14.2039Z" fill="white"/>
    <path fill-rule="evenodd" clip-rule="evenodd" d="M10.2364 14.4465C10.2114 14.5058 10.143 14.611 10.1743 14.7205C10.2065 14.8303 10.2781 14.8774 10.3215 14.9707C10.3215 14.9707 10.3564 14.8024 10.3487 14.6731C10.3409 14.5433 10.2944 14.4934 10.2364 14.4465Z" fill="white"/>
    <path fill-rule="evenodd" clip-rule="evenodd" d="M9.81434 14.7535C9.8192 14.6892 9.96685 14.5344 9.95947 14.4508C9.95181 14.3667 9.84114 14.3077 9.81373 14.2954H9.81229C9.78536 14.3077 9.67448 14.3667 9.66655 14.4508C9.65883 14.5344 9.80689 14.6892 9.81134 14.7535H9.81434Z" fill="white"/>
    <path fill-rule="evenodd" clip-rule="evenodd" d="M10.038 14.4507C10.038 14.4507 9.93536 14.6509 9.91677 14.7293C9.89865 14.807 9.91561 14.8588 9.95054 14.9063C9.98506 14.9531 10.0438 15.004 10.0991 15.1029C10.0991 15.1029 10.162 15.0186 10.17 14.9746C10.1776 14.9306 10.1652 14.8254 10.1514 14.7817C10.138 14.737 10.0834 14.5952 10.038 14.4507Z" fill="white"/>
    <path fill-rule="evenodd" clip-rule="evenodd" d="M9.81411 15.225C9.86073 15.1843 9.90256 15.1238 9.91603 15.0879C9.92874 15.0522 9.93216 15 9.90099 14.9598C9.86374 14.9121 9.81705 14.8583 9.81411 14.8147H9.81171C9.80823 14.8583 9.76202 14.9121 9.72469 14.9598C9.69339 15 9.69673 15.0522 9.71047 15.0879C9.72319 15.1238 9.76523 15.1843 9.81219 15.225H9.81411Z" fill="white"/>
    <path fill-rule="evenodd" clip-rule="evenodd" d="M9.9856 15.0898C10.0081 15.1144 10.1279 15.2594 10.144 15.3016C10.1603 15.3437 10.1877 15.4237 10.1506 15.4795C10.1132 15.5353 10.028 15.6235 9.95312 15.6612C9.95312 15.6612 10.0341 15.5339 10.0259 15.4297C10.0205 15.3628 9.96919 15.3033 9.95948 15.2626C9.95012 15.2223 9.95661 15.1536 9.9856 15.0898Z" fill="white"/>
    <path fill-rule="evenodd" clip-rule="evenodd" d="M10.2201 15.0098C10.2015 15.0355 10.1698 15.0979 10.1648 15.1586C10.1611 15.2184 10.1706 15.2666 10.2033 15.3544C10.2445 15.4652 10.3077 15.5885 10.3368 15.6441C10.3368 15.6441 10.3933 15.5631 10.4244 15.4907C10.4244 15.4907 10.3368 15.3692 10.299 15.2835C10.2554 15.1825 10.2378 15.0892 10.2201 15.0098Z" fill="white"/>
    <path fill-rule="evenodd" clip-rule="evenodd" d="M10.261 14.9629C10.261 14.9629 10.2988 15.248 10.4654 15.4594C10.578 15.6025 10.6698 15.6525 10.7303 15.6525C10.8217 15.6525 10.9139 15.5759 10.9448 15.4878C10.9751 15.4004 10.9656 15.2639 10.9065 15.2155C10.9065 15.2155 10.8517 15.3866 10.7344 15.3928C10.6022 15.4004 10.4316 15.2507 10.261 14.9629Z" fill="white"/>
    <path fill-rule="evenodd" clip-rule="evenodd" d="M10.3973 14.844C10.3833 14.8948 10.3793 14.973 10.3973 15.0468C10.4113 15.103 10.4454 15.1758 10.5105 15.217C10.5668 15.2523 10.6991 15.2608 10.7501 15.1345C10.7501 15.1345 10.5077 15.1529 10.3973 14.844Z" fill="white"/>
    <path fill-rule="evenodd" clip-rule="evenodd" d="M9.81352 15.6898C9.84784 15.6731 9.87675 15.6609 9.91661 15.6003C9.94689 15.5528 9.97622 15.4648 9.95995 15.402C9.93923 15.3246 9.89794 15.2937 9.87272 15.2454C9.85235 15.2646 9.8397 15.2796 9.81468 15.2939H9.81352C9.78809 15.2796 9.77524 15.2646 9.75439 15.2454C9.72883 15.2937 9.68808 15.3246 9.66696 15.402C9.65083 15.4648 9.67988 15.5528 9.7105 15.6003C9.74988 15.6609 9.77914 15.6731 9.81352 15.6898Z" fill="white"/>
    <path fill-rule="evenodd" clip-rule="evenodd" d="M9.81295 16.1708C9.82942 16.095 9.98672 15.9493 9.97188 15.8696C9.95035 15.7508 9.8742 15.7759 9.81411 15.7258H9.81295C9.75225 15.7759 9.67534 15.7508 9.65347 15.8696C9.63952 15.9493 9.79572 16.095 9.81213 16.1708H9.81295Z" fill="white"/>
    <path fill-rule="evenodd" clip-rule="evenodd" d="M10.0012 15.9927C9.96802 16.0785 9.84915 16.1868 9.8501 16.2538C9.85229 16.4308 9.92885 16.5392 9.94731 16.5976C9.94731 16.5976 10.0883 16.4851 10.113 16.3561C10.1263 16.2898 10.1112 16.091 10.0012 15.9927Z" fill="white"/>
    <path fill-rule="evenodd" clip-rule="evenodd" d="M10.1582 16.1182C10.1421 16.0721 10.0903 15.9467 10.0301 15.9031C10.0301 15.9031 9.95332 15.676 10.2002 15.5359C10.2002 15.5359 10.3017 15.6712 10.3289 15.7986C10.3557 15.927 10.2211 16.0033 10.1582 16.1182Z" fill="white"/>
    <path fill-rule="evenodd" clip-rule="evenodd" d="M10.4676 15.5439C10.5068 15.5927 10.5624 15.6591 10.6064 15.6799C10.6064 15.6799 10.6207 15.7814 10.613 15.849C10.5999 15.9493 10.5361 16.0514 10.5092 16.1262C10.5092 16.1262 10.401 15.9843 10.3881 15.901C10.3754 15.8175 10.3782 15.749 10.3743 15.7089C10.3743 15.7089 10.4338 15.6105 10.4676 15.5439Z" fill="white"/>
    <path fill-rule="evenodd" clip-rule="evenodd" d="M10.7514 16.0315C10.7821 15.9843 10.8812 15.8127 10.8824 15.6875C10.8824 15.6875 10.7606 15.7526 10.6585 15.7046C10.6585 15.7046 10.6454 15.8676 10.6654 15.9225C10.6811 15.9672 10.7021 15.9937 10.7514 16.0315Z" fill="white"/>
    <path fill-rule="evenodd" clip-rule="evenodd" d="M10.7241 16.066C10.7042 16.0485 10.6556 16.0036 10.6363 15.98C10.6363 15.98 10.5549 16.1288 10.5417 16.1724C10.5417 16.1724 10.5816 16.1829 10.626 16.1505C10.6704 16.118 10.6801 16.1092 10.7241 16.066Z" fill="white"/>
    <path fill-rule="evenodd" clip-rule="evenodd" d="M10.3498 15.9785C10.3597 16.0162 10.4902 16.1985 10.5125 16.221C10.5125 16.221 10.5022 16.287 10.4539 16.3823C10.406 16.4769 10.339 16.5437 10.3027 16.5773C10.3027 16.5773 10.2222 16.4358 10.1981 16.3741C10.1708 16.3028 10.1742 16.2327 10.1863 16.2065C10.2131 16.1448 10.3079 16.0557 10.3498 15.9785Z" fill="white"/>
    <path fill-rule="evenodd" clip-rule="evenodd" d="M9.81437 17.0585C9.82675 17.0086 9.90228 16.949 9.93318 16.8621C9.95198 16.8108 9.95123 16.7509 9.93127 16.7098C9.90734 16.6619 9.82285 16.5446 9.81321 16.511C9.80262 16.5446 9.71922 16.6619 9.69495 16.7098C9.67465 16.7509 9.6741 16.8108 9.69256 16.8621C9.72421 16.949 9.79954 17.0086 9.81198 17.0585H9.81437Z" fill="white"/>
    <path fill-rule="evenodd" clip-rule="evenodd" d="M10.1538 16.4563C10.1254 16.5148 10.0384 16.6112 10.0246 16.6874C10.0137 16.7471 10.0237 16.796 10.0391 16.8379C10.0555 16.8783 10.1084 16.9589 10.1427 17.0201C10.1427 17.0201 10.2618 16.9069 10.288 16.826C10.3081 16.7652 10.3004 16.6788 10.2716 16.6251C10.2431 16.5709 10.1812 16.5123 10.1538 16.4563Z" fill="white"/>
    <path fill-rule="evenodd" clip-rule="evenodd" d="M10.4915 16.4397C10.4607 16.5079 10.3864 16.5754 10.3697 16.6348C10.3497 16.7051 10.3434 16.7494 10.377 16.8313C10.4075 16.9027 10.4429 16.9448 10.4556 16.9886C10.4556 16.9886 10.5523 16.8623 10.5679 16.8099C10.585 16.7574 10.5893 16.6711 10.5702 16.6165C10.5499 16.5611 10.5151 16.4901 10.4915 16.4397Z" fill="white"/>
    <path fill-rule="evenodd" clip-rule="evenodd" d="M9.8135 18.0267C9.81965 17.9651 9.94639 17.7741 9.9522 17.5717C9.95527 17.4702 9.86586 17.3119 9.81466 17.2515H9.81179C9.7612 17.3119 9.67145 17.4702 9.67439 17.5717C9.68061 17.7741 9.80693 17.9651 9.8135 18.0267Z" fill="white"/>
    <path fill-rule="evenodd" clip-rule="evenodd" d="M10.0146 16.9202C10.0146 16.9202 10.1811 17.1227 10.1774 17.23C10.1726 17.3637 10.0834 17.453 10.0717 17.5351C10.0717 17.5351 9.98413 17.4356 9.95098 17.3688C9.91352 17.294 9.88495 17.23 9.89554 17.145C9.90491 17.0598 9.92671 17.0054 10.0146 16.9202Z" fill="white"/>
    <path fill-rule="evenodd" clip-rule="evenodd" d="M10.321 16.9004C10.2943 16.9391 10.2207 17.0716 10.2414 17.1499C10.2631 17.2293 10.3448 17.3402 10.372 17.3874C10.372 17.3874 10.4376 17.2516 10.4528 17.1889C10.4676 17.1271 10.4536 17.0251 10.321 16.9004Z" fill="white"/>
    <path fill-rule="evenodd" clip-rule="evenodd" d="M9.92677 18.3516C9.93703 18.1944 10.026 18.0999 10.0414 18.0183C10.0589 17.9281 10.0529 17.8419 9.98365 17.738C9.92677 17.9318 9.86559 18.0736 9.81692 18.1703C9.81528 18.1727 9.81432 18.1758 9.81323 18.1786C9.81193 18.1758 9.81125 18.1727 9.80926 18.1703C9.76094 18.0736 9.69941 17.9318 9.64315 17.738C9.5737 17.8419 9.56769 17.9281 9.58484 18.0183C9.6007 18.0999 9.6893 18.1944 9.69941 18.3516C9.70912 18.5094 9.53296 18.5693 9.53296 18.5693C9.59216 18.591 9.66004 18.6008 9.76763 18.4981C9.78732 18.4797 9.80195 18.4591 9.81323 18.4374C9.82458 18.4591 9.83941 18.4797 9.85896 18.4981C9.96594 18.6008 10.0342 18.591 10.0936 18.5693C10.0936 18.5693 9.9172 18.5094 9.92677 18.3516Z" fill="white"/>
    <path fill-rule="evenodd" clip-rule="evenodd" d="M9.37228 17.3042C9.39046 17.3632 9.44528 17.4721 9.45253 17.5054C9.46572 17.5678 9.44781 17.6435 9.33468 17.7237C9.33468 17.7237 9.26154 17.6719 9.23242 17.6045C9.20555 17.5407 9.22114 17.4956 9.24916 17.4632C9.2776 17.4303 9.34418 17.3537 9.37228 17.3042Z" fill="white"/>
    <path fill-rule="evenodd" clip-rule="evenodd" d="M9.61019 17.5376C9.61019 17.5692 9.58688 17.7474 9.53684 17.8363C9.46602 17.9605 9.36191 18.0525 9.27099 18.0525C9.18698 18.0525 9.16887 18.0018 9.12744 17.9817C9.12744 17.9817 9.14856 17.8736 9.24331 17.8456C9.35972 17.8102 9.53787 17.6698 9.61019 17.5376Z" fill="white"/>
    <path fill-rule="evenodd" clip-rule="evenodd" d="M9.30618 17.7648C9.28676 17.7496 9.26961 17.7396 9.2465 17.7122C9.2465 17.7122 9.15688 17.7454 9.08299 17.7955C9.00889 17.8456 8.93643 17.931 8.89746 17.9753C8.89746 17.9753 9.00807 18.004 9.07834 17.9717C9.07834 17.9717 9.10363 17.8654 9.18265 17.8176C9.20015 17.8074 9.25525 17.7909 9.30618 17.7648Z" fill="white"/>
    <path fill-rule="evenodd" clip-rule="evenodd" d="M9.21503 17.6736C9.19725 17.6467 9.16218 17.5973 9.16977 17.5195C9.16977 17.5195 9.01391 17.6194 8.96832 17.6564C8.92115 17.6951 8.82367 17.796 8.802 17.8292C8.802 17.8292 8.92006 17.8031 9.01043 17.7724C9.10941 17.7395 9.17784 17.6951 9.21503 17.6736Z" fill="white"/>
    <path fill-rule="evenodd" clip-rule="evenodd" d="M8.95106 17.8425C8.86759 17.8732 8.67865 17.9034 8.60017 17.927C8.52115 17.9508 8.46393 17.9915 8.38867 18.074C8.38867 18.074 8.50433 18.1069 8.56634 18.1263C8.56634 18.1263 8.66464 18.059 8.77216 18.0174C8.84257 17.9902 8.87668 17.9164 8.95106 17.8425Z" fill="white"/>
    <path fill-rule="evenodd" clip-rule="evenodd" d="M8.77553 18.4028C8.79364 18.3825 8.81647 18.3594 8.79891 18.3124C8.78674 18.2775 8.71838 18.2401 8.67771 18.2202C8.6101 18.1876 8.42252 18.1369 8.361 18.1189C8.361 18.1189 8.33038 18.1546 8.31459 18.1926C8.30741 18.2072 8.31677 18.2224 8.3433 18.2271C8.39559 18.2362 8.52103 18.2125 8.552 18.2326C8.58447 18.2542 8.57264 18.2831 8.57264 18.3124C8.57264 18.3124 8.63013 18.2767 8.66609 18.2848C8.7166 18.2954 8.74689 18.3195 8.77553 18.4028Z" fill="white"/>
    <path fill-rule="evenodd" clip-rule="evenodd" d="M8.60864 18.1399C8.62211 18.1445 8.69546 18.1668 8.76676 18.2123C8.76676 18.2123 8.79813 18.1999 8.81399 18.1708C8.8291 18.1428 8.89295 18.0473 8.95235 18.0345C8.95235 18.0345 8.90197 18.0297 8.87292 18.0205C8.87292 18.0205 8.81228 18.0362 8.76908 18.0541C8.72588 18.0718 8.67222 18.0986 8.60864 18.1399Z" fill="white"/>
    <path fill-rule="evenodd" clip-rule="evenodd" d="M9.09289 18.0193C9.08182 18.0247 9.0624 18.0341 9.01838 18.036C9.01838 18.036 8.85371 18.1508 8.83436 18.266C8.8183 18.3638 8.8695 18.411 8.89411 18.4231C8.91892 18.436 9.03438 18.4836 9.10909 18.328C9.10909 18.328 8.9814 18.3701 8.94667 18.3087C8.91222 18.2465 8.96875 18.1566 9.00341 18.1309C9.04853 18.0963 9.13069 18.0734 9.17991 18.0821C9.17991 18.0821 9.14013 18.0437 9.09289 18.0193Z" fill="white"/>
    <path fill-rule="evenodd" clip-rule="evenodd" d="M8.01268 19.3365C8.03264 19.2518 8.05506 19.1633 8.09334 19.0818C8.16785 18.9228 8.35051 18.5002 8.7314 18.4254C8.76743 18.4186 8.69025 18.3291 8.65648 18.334C8.62203 18.3378 8.55415 18.3824 8.52428 18.4027C8.52428 18.4027 8.52428 18.3123 8.52325 18.296C8.52229 18.2791 8.50801 18.2741 8.49317 18.2744C8.47841 18.2746 8.38653 18.2741 8.35707 18.3075C8.27046 18.4089 8.12369 18.6809 8.04071 18.8835C7.95758 19.0858 7.90112 19.1484 7.81335 19.1171C7.72571 19.0858 7.67314 18.9847 7.5207 19.0154C7.46759 19.0264 7.40866 19.062 7.36279 19.1148C7.37551 19.1395 7.39185 19.1697 7.46349 19.1697C7.53472 19.1697 7.67075 19.1997 7.7469 19.2534C7.82333 19.3069 7.90317 19.3244 8.01268 19.3365Z" fill="white"/>
    <path fill-rule="evenodd" clip-rule="evenodd" d="M9.53356 18.0259C9.54231 18.0915 9.57369 18.1527 9.60855 18.2163C9.60855 18.2163 9.49227 18.7548 9.07344 18.7967C9.07344 18.7967 9.08157 18.6851 9.20571 18.5999C9.32992 18.515 9.51544 18.3828 9.50211 18.1827C9.50211 18.1827 9.4691 18.1894 9.40935 18.2647C9.34995 18.3396 9.21925 18.5563 9.01636 18.558C9.01636 18.558 9.04671 18.4565 9.13633 18.3979C9.22601 18.3396 9.3399 18.2647 9.39144 18.1742C9.44326 18.0842 9.4976 18.0425 9.53356 18.0259Z" fill="white"/>
    <path fill-rule="evenodd" clip-rule="evenodd" d="M9.33569 19.9882L9.59088 20.3478L9.7844 20.0016L9.7159 19.8782C9.66539 19.969 9.61125 20.0672 9.58055 20.1211C9.55656 20.088 9.4921 19.9971 9.40768 19.8782L9.33569 19.9882Z" fill="white"/>
    <path fill-rule="evenodd" clip-rule="evenodd" d="M9.2706 19.6836C9.02143 19.3333 8.71429 18.8994 8.68312 18.8554L8.77951 18.7855L8.47559 18.6682L8.48085 19.0021L8.58373 18.9274L9.19814 19.7942L9.2706 19.6836Z" fill="white"/>
    <path fill-rule="evenodd" clip-rule="evenodd" d="M7.17261 17.7142C7.24754 17.6318 7.37455 17.7032 7.50292 17.8223C7.63219 17.9414 7.71272 18.0632 7.63821 18.1454C7.56827 18.2218 7.436 18.1566 7.30646 18.0379C7.17774 17.9187 7.09674 17.7965 7.17261 17.7142Z" fill="white"/>
    <path fill-rule="evenodd" clip-rule="evenodd" d="M7.3793 19.1788C7.37451 19.1751 7.37089 19.172 7.36713 19.1684C7.29877 19.1084 7.25988 19.0154 7.25988 18.914C7.25988 18.7194 7.4169 18.5606 7.6109 18.5606C7.80449 18.5606 7.96117 18.7194 7.96117 18.914C7.96117 18.9404 7.95618 18.9835 7.95618 18.9835C7.97224 18.9534 8.0298 18.8184 8.04149 18.7935C7.98913 18.604 7.81543 18.4644 7.6109 18.4644C7.43426 18.4644 7.28134 18.5677 7.20867 18.7174C7.23609 18.5391 7.32434 18.3789 7.38661 18.3196C7.4614 18.249 7.58827 18.2261 7.58827 18.2261C7.50501 18.24 7.39509 18.1881 7.27238 18.0741C7.1557 17.967 7.09609 17.8728 7.0924 17.7942C7.09951 17.9051 7.09609 17.9674 7.06471 18.0576C7.02247 18.1804 6.9068 18.4076 6.9483 18.6639C6.97079 18.8046 7.07216 19.014 7.2419 19.1852C7.27785 19.2235 7.29118 19.2804 7.29563 19.3097C7.29563 19.3097 7.54527 19.3097 7.60454 19.3155C7.60454 19.3155 7.66408 19.3097 7.66319 19.2727C7.66251 19.2354 7.62942 19.2259 7.59962 19.2259C7.57002 19.2259 7.44588 19.2289 7.3793 19.1788Z" fill="white"/>
    <path fill-rule="evenodd" clip-rule="evenodd" d="M8.76184 19.2644C8.60092 19.3224 8.44055 19.3541 8.28852 19.3775C8.18906 19.3924 8.09281 19.398 7.99964 19.3932C8.00107 19.4086 8.00107 19.4291 7.99219 19.444C7.99219 19.444 8.01099 19.4662 8.01099 19.4906C8.10505 19.494 8.20307 19.4886 8.30308 19.4729C8.46974 19.4471 8.64433 19.4136 8.82028 19.3463L8.76184 19.2644Z" fill="white"/>
    <path fill-rule="evenodd" clip-rule="evenodd" d="M9.02486 19.2519C9.23841 19.135 9.44636 18.9537 9.63414 18.6648L9.66771 18.6082C9.61637 18.6312 9.55095 18.6146 9.55095 18.6146C9.54705 18.6197 9.53899 18.6327 9.53502 18.6404C9.36003 18.9004 9.16609 19.0641 8.96826 19.1712L9.02486 19.2519Z" fill="white"/>
    <path fill-rule="evenodd" clip-rule="evenodd" d="M7.6191 19.3439C7.58977 19.3391 7.49605 19.3418 7.44 19.3501C7.37841 19.36 7.30855 19.3724 7.30103 19.4067C7.29426 19.4392 7.31641 19.4735 7.34751 19.5227C7.36658 19.553 7.41252 19.5355 7.43788 19.5259C7.46304 19.5167 7.60741 19.4387 7.63024 19.4134C7.65369 19.3877 7.6634 19.3514 7.6191 19.3439Z" fill="white"/>
    <path fill-rule="evenodd" clip-rule="evenodd" d="M7.76571 19.4398C7.75033 19.43 7.71273 19.4152 7.67363 19.4302C7.63439 19.4448 7.49228 19.5291 7.48312 19.5692C7.47314 19.6086 7.49303 19.628 7.51497 19.637C7.53685 19.6458 7.56344 19.6542 7.58333 19.6564C7.61888 19.6591 7.6534 19.6384 7.67186 19.6159C7.6899 19.5932 7.75662 19.5124 7.76571 19.4939C7.77528 19.4761 7.78041 19.4498 7.76571 19.4398Z" fill="white"/>
    <path fill-rule="evenodd" clip-rule="evenodd" d="M7.78303 19.5286C7.76211 19.552 7.70483 19.6219 7.69799 19.6336C7.69157 19.6451 7.70162 19.6634 7.71959 19.661C7.7373 19.6592 7.83553 19.6491 7.89179 19.6107C7.94784 19.5719 7.98537 19.4971 7.94655 19.4704C7.90792 19.4433 7.84763 19.456 7.78303 19.5286Z" fill="white"/>
    <path fill-rule="evenodd" clip-rule="evenodd" d="M7.81488 19.3138C7.79608 19.3095 7.72191 19.2909 7.70633 19.3153C7.68589 19.3458 7.70017 19.3787 7.75773 19.4067C7.81488 19.434 7.92309 19.4562 7.94503 19.4267C7.96568 19.3961 7.93635 19.3458 7.81488 19.3138Z" fill="white"/>
    <path fill-rule="evenodd" clip-rule="evenodd" d="M10.2536 17.3042C10.2351 17.3632 10.1804 17.4721 10.173 17.5054C10.1602 17.5678 10.1776 17.6435 10.291 17.7237C10.291 17.7237 10.364 17.6719 10.3931 17.6045C10.4205 17.5407 10.4049 17.4956 10.3765 17.4632C10.3482 17.4303 10.2821 17.3537 10.2536 17.3042Z" fill="white"/>
    <path fill-rule="evenodd" clip-rule="evenodd" d="M10.0154 17.5376C10.0154 17.5692 10.0386 17.7474 10.0894 17.8363C10.1602 17.9605 10.2639 18.0525 10.3548 18.0525C10.4393 18.0525 10.4575 18.0018 10.4985 17.9817C10.4985 17.9817 10.4773 17.8736 10.3823 17.8456C10.2665 17.8102 10.088 17.6698 10.0154 17.5376Z" fill="white"/>
    <path fill-rule="evenodd" clip-rule="evenodd" d="M10.3196 17.7648C10.3391 17.7496 10.3554 17.7396 10.3788 17.7122C10.3788 17.7122 10.4691 17.7454 10.543 17.7955C10.6165 17.8456 10.6884 17.931 10.7284 17.9753C10.7284 17.9753 10.6175 18.004 10.5472 17.9717C10.5472 17.9717 10.5216 17.8654 10.4426 17.8176C10.4257 17.8074 10.3706 17.7909 10.3196 17.7648Z" fill="white"/>
    <path fill-rule="evenodd" clip-rule="evenodd" d="M10.4116 17.6736C10.429 17.6467 10.4642 17.5973 10.4561 17.5195C10.4561 17.5195 10.6116 17.6194 10.6583 17.6564C10.7054 17.6951 10.8026 17.796 10.8244 17.8292C10.8244 17.8292 10.7063 17.8031 10.6158 17.7724C10.5169 17.7395 10.4485 17.6951 10.4116 17.6736Z" fill="white"/>
    <path fill-rule="evenodd" clip-rule="evenodd" d="M10.675 17.8425C10.759 17.8732 10.9466 17.9034 11.026 17.927C11.105 17.9508 11.1625 17.9915 11.2377 18.074C11.2377 18.074 11.1214 18.1069 11.0602 18.1263C11.0602 18.1263 10.9618 18.059 10.8535 18.0174C10.7837 17.9902 10.7491 17.9164 10.675 17.8425Z" fill="white"/>
    <path fill-rule="evenodd" clip-rule="evenodd" d="M10.8503 18.4028C10.8323 18.3825 10.8096 18.3594 10.8265 18.3124C10.839 18.2775 10.9077 18.2401 10.9488 18.2202C11.0165 18.1876 11.204 18.1369 11.2649 18.1189C11.2649 18.1189 11.2954 18.1546 11.3117 18.1926C11.3186 18.2072 11.3087 18.2224 11.283 18.2271C11.2304 18.2362 11.1049 18.2125 11.0739 18.2326C11.0413 18.2542 11.0528 18.2831 11.0528 18.3124C11.0528 18.3124 10.9961 18.2767 10.9591 18.2848C10.9097 18.2954 10.8786 18.3195 10.8503 18.4028Z" fill="white"/>
    <path fill-rule="evenodd" clip-rule="evenodd" d="M11.0173 18.1399C11.0035 18.1445 10.9306 18.1668 10.8593 18.2123C10.8593 18.2123 10.8277 18.1999 10.812 18.1708C10.7971 18.1428 10.7328 18.0473 10.6738 18.0345C10.6738 18.0345 10.724 18.0297 10.7525 18.0205C10.7525 18.0205 10.8136 18.0362 10.8574 18.0541C10.9006 18.0718 10.9544 18.0986 11.0173 18.1399Z" fill="white"/>
    <path fill-rule="evenodd" clip-rule="evenodd" d="M10.5332 18.0193C10.5446 18.0247 10.5639 18.0341 10.6075 18.036C10.6075 18.036 10.7728 18.1508 10.7918 18.266C10.809 18.3638 10.7574 18.411 10.7323 18.4231C10.7072 18.436 10.5923 18.4836 10.5176 18.328C10.5176 18.328 10.6449 18.3701 10.6798 18.3087C10.7143 18.2465 10.6582 18.1566 10.6235 18.1309C10.5781 18.0963 10.4963 18.0734 10.4463 18.0821C10.4463 18.0821 10.4859 18.0437 10.5332 18.0193Z" fill="white"/>
    <path fill-rule="evenodd" clip-rule="evenodd" d="M11.6133 19.3365C11.5933 19.2518 11.5714 19.1633 11.5328 19.0818C11.4586 18.9228 11.2759 18.5002 10.8942 18.4254C10.8587 18.4186 10.9352 18.3291 10.9703 18.334C11.0043 18.3378 11.0722 18.3824 11.1024 18.4027C11.1024 18.4027 11.1024 18.3123 11.1032 18.296C11.1041 18.2791 11.1181 18.2741 11.1325 18.2744C11.1475 18.2746 11.2395 18.2741 11.2685 18.3075C11.3558 18.4089 11.5023 18.6809 11.5855 18.8835C11.6687 19.0858 11.7254 19.1484 11.8126 19.1171C11.9004 19.0858 11.9536 18.9847 12.1057 19.0154C12.1588 19.0264 12.2173 19.062 12.264 19.1148C12.2507 19.1395 12.2342 19.1697 12.1633 19.1697C12.0912 19.1697 11.955 19.1997 11.8794 19.2534C11.8028 19.3069 11.7232 19.3244 11.6133 19.3365Z" fill="white"/>
    <path fill-rule="evenodd" clip-rule="evenodd" d="M10.0918 18.0259C10.0839 18.0915 10.0522 18.1527 10.0178 18.2163C10.0178 18.2163 10.1338 18.7548 10.5534 18.7967C10.5534 18.7967 10.5445 18.6851 10.4207 18.5999C10.296 18.515 10.1104 18.3828 10.1238 18.1827C10.1238 18.1827 10.1569 18.1894 10.2163 18.2647C10.2766 18.3396 10.4074 18.5563 10.6094 18.558C10.6094 18.558 10.5797 18.4565 10.4899 18.3979C10.4003 18.3396 10.286 18.2647 10.2344 18.1742C10.1833 18.0842 10.129 18.0425 10.0918 18.0259Z" fill="white"/>
    <path fill-rule="evenodd" clip-rule="evenodd" d="M9.81374 18.5483C9.83849 18.6198 9.99674 18.8455 10.0661 18.9096C10.1361 18.9739 10.305 19.1444 10.3955 19.2295C10.3955 19.2295 10.1379 19.1652 9.99291 19.0329C9.99291 19.0329 9.8899 19.0932 9.8147 19.0932H9.81108C9.73568 19.0932 9.63253 19.0329 9.63253 19.0329C9.48788 19.1652 9.23071 19.2295 9.23071 19.2295C9.32074 19.1444 9.48986 18.9739 9.55931 18.9096C9.62924 18.8455 9.78804 18.6198 9.81231 18.5483H9.81374Z" fill="white"/>
    <path fill-rule="evenodd" clip-rule="evenodd" d="M9.81433 19.146C9.87121 19.146 9.92508 19.1234 9.9557 19.1101C9.92508 19.1746 9.86793 19.2748 9.81304 19.3161H9.81228C9.75732 19.2748 9.70011 19.1746 9.67017 19.1101C9.70011 19.1234 9.75391 19.146 9.81105 19.146H9.81433Z" fill="white"/>
    <path fill-rule="evenodd" clip-rule="evenodd" d="M10.0358 20.3479L11.0429 18.9274L11.1453 19.002L11.1515 18.6682L10.8463 18.7855L10.9432 18.8554C10.8939 18.925 10.1408 19.9873 10.046 20.1212L9.58992 19.2892L9.53359 19.3758L9.12767 19.9933L9.02603 19.9249L9.02466 20.2532L9.33289 20.1304L9.22946 20.0614C9.28545 19.9762 9.50583 19.6418 9.57925 19.5293L10.0358 20.3479Z" fill="white"/>
    <path fill-rule="evenodd" clip-rule="evenodd" d="M10.2186 19.79C10.1506 19.6869 10.0823 19.5827 10.0474 19.5293C10.022 19.5772 9.97021 19.6708 9.91238 19.7744L9.84033 19.6447L10.0363 19.2893L10.0933 19.3759L10.2948 19.6826L10.2186 19.79Z" fill="white"/>
    <path fill-rule="evenodd" clip-rule="evenodd" d="M10.4268 19.8821L10.4992 19.9931L10.6005 19.9247L10.6023 20.253L10.2939 20.1301L10.3969 20.0612C10.3863 20.0449 10.3707 20.0195 10.3502 19.9892L10.4268 19.8821Z" fill="white"/>
    <path fill-rule="evenodd" clip-rule="evenodd" d="M12.4548 17.7142C12.3796 17.6318 12.2526 17.7032 12.1234 17.8223C11.9949 17.9414 11.914 18.0632 11.989 18.1454C12.0585 18.2218 12.1922 18.1566 12.3208 18.0379C12.4491 17.9187 12.5302 17.7965 12.4548 17.7142Z" fill="white"/>
    <path fill-rule="evenodd" clip-rule="evenodd" d="M12.2475 19.1788C12.252 19.1751 12.2553 19.172 12.2594 19.1684C12.3275 19.1084 12.3673 19.0154 12.3673 18.914C12.3673 18.7194 12.2097 18.5606 12.016 18.5606C11.8225 18.5606 11.6655 18.7194 11.6655 18.914C11.6655 18.9404 11.6707 18.9835 11.6707 18.9835C11.6549 18.9534 11.5966 18.8184 11.5852 18.7935C11.6371 18.604 11.8104 18.4644 12.016 18.4644C12.1926 18.4644 12.3455 18.5677 12.4177 18.7174C12.3903 18.5391 12.303 18.3789 12.2401 18.3196C12.1655 18.249 12.0384 18.2261 12.0384 18.2261C12.1215 18.24 12.2314 18.1881 12.3544 18.0741C12.4709 17.967 12.5314 17.8728 12.5343 17.7942C12.5272 17.9051 12.5303 17.9674 12.5613 18.0576C12.604 18.1804 12.7199 18.4076 12.6789 18.6639C12.6561 18.8046 12.5546 19.014 12.3856 19.1852C12.349 19.2235 12.3354 19.2804 12.3315 19.3097C12.3315 19.3097 12.0813 19.3097 12.0217 19.3155C12.0217 19.3155 11.9627 19.3097 11.9638 19.2727C11.9649 19.2354 11.9973 19.2259 12.0273 19.2259C12.0565 19.2259 12.1812 19.2289 12.2475 19.1788Z" fill="white"/>
    <path fill-rule="evenodd" clip-rule="evenodd" d="M10.6004 19.2515C10.3875 19.1341 10.1795 18.9538 9.99153 18.6648L9.95776 18.6082C10.0094 18.6312 10.0752 18.6147 10.0752 18.6147C10.079 18.6197 10.0867 18.6328 10.0906 18.6404C10.2657 18.9 10.4596 19.0642 10.6574 19.1713L10.6004 19.2515Z" fill="white"/>
    <path fill-rule="evenodd" clip-rule="evenodd" d="M10.8639 19.2639C11.025 19.3223 11.1853 19.354 11.3373 19.3774C11.4368 19.3924 11.5339 19.3979 11.6263 19.3931C11.625 19.4085 11.625 19.429 11.6339 19.444C11.6339 19.444 11.6157 19.4661 11.6157 19.4905C11.5208 19.4939 11.4234 19.4886 11.3227 19.4728C11.1574 19.4471 10.9816 19.4135 10.8062 19.3461L10.8639 19.2639Z" fill="white"/>
    <path fill-rule="evenodd" clip-rule="evenodd" d="M12.0073 19.3439C12.0372 19.3391 12.1309 19.3418 12.1867 19.3501C12.2481 19.36 12.3181 19.3724 12.3257 19.4067C12.3324 19.4392 12.3103 19.4735 12.2795 19.5227C12.2595 19.553 12.2138 19.5355 12.1891 19.5259C12.1636 19.5167 12.0191 19.4387 11.9956 19.4134C11.9732 19.3877 11.9633 19.3514 12.0073 19.3439Z" fill="white"/>
    <path fill-rule="evenodd" clip-rule="evenodd" d="M11.8595 19.4398C11.8753 19.43 11.9133 19.4152 11.9524 19.4302C11.9912 19.4448 12.1331 19.5291 12.143 19.5692C12.1522 19.6086 12.1327 19.628 12.1107 19.637C12.0891 19.6458 12.0621 19.6542 12.0424 19.6564C12.0071 19.6591 11.9727 19.6384 11.9543 19.6159C11.9357 19.5932 11.8699 19.5124 11.8595 19.4939C11.8505 19.4761 11.8457 19.4498 11.8595 19.4398Z" fill="white"/>
    <path fill-rule="evenodd" clip-rule="evenodd" d="M11.8429 19.5286C11.8632 19.552 11.921 19.6219 11.9275 19.6336C11.9346 19.6451 11.9239 19.6634 11.9061 19.661C11.8879 19.6592 11.7904 19.6491 11.7342 19.6107C11.678 19.5719 11.6407 19.4971 11.6795 19.4704C11.7173 19.4433 11.7778 19.456 11.8429 19.5286Z" fill="white"/>
    <path fill-rule="evenodd" clip-rule="evenodd" d="M11.8112 19.3138C11.8298 19.3095 11.9039 19.2909 11.9198 19.3153C11.9395 19.3458 11.9254 19.3787 11.868 19.4067C11.8112 19.434 11.7029 19.4562 11.6813 19.4267C11.6602 19.3961 11.69 19.3458 11.8112 19.3138Z" fill="white"/>
    <path fill-rule="evenodd" clip-rule="evenodd" d="M16.3735 22.2017H28V10.5H16.3735V22.2017Z" fill="#CC003D"/>
    <path fill-rule="evenodd" clip-rule="evenodd" d="M25.7396 14.2117C25.7406 14.1599 25.7502 13.7967 25.751 13.7476H25.8388C26.1785 13.7476 26.2355 13.808 26.2671 14.2117H25.7396ZM26.706 14.0101C26.6527 13.5583 26.442 13.3232 25.9442 13.3232H25.3112L25.2251 15.8752H25.6864C25.6864 15.8752 25.729 14.6916 25.7314 14.6356C25.7819 14.6356 26.2663 14.6361 26.3143 14.6361C26.3196 14.6877 26.4068 15.8752 26.4068 15.8752H26.8831C26.8831 15.8752 26.7191 14.1221 26.706 14.0101Z" fill="white"/>
    <path fill-rule="evenodd" clip-rule="evenodd" d="M20.1422 17.7166C20.1432 17.6648 20.1528 17.3016 20.1536 17.2526L20.2363 17.2473C20.576 17.2473 20.6381 17.313 20.6697 17.7166H20.1422ZM21.1086 17.515C21.0554 17.0633 20.8445 16.8281 20.3468 16.8281H19.7138L19.6277 19.3801H20.089C20.089 19.3801 20.1316 18.1965 20.1341 18.1404C20.1847 18.1404 20.669 18.141 20.7169 18.141C20.7222 18.1926 20.8094 19.3801 20.8094 19.3801H21.2857C21.2857 19.3801 21.1218 17.6271 21.1086 17.515Z" fill="white"/>
    <path fill-rule="evenodd" clip-rule="evenodd" d="M17.6475 13.3232V15.8746H18.1137V13.7475H18.6914V15.8746H19.1584V13.3232H17.6475Z" fill="white"/>
    <path fill-rule="evenodd" clip-rule="evenodd" d="M22.5794 14.2118H22.3256C22.2207 14.2118 22.1428 14.1882 22.0932 14.1405C22.0582 14.1074 22.041 14.0626 22.041 14.0041V13.3232H21.5737V14.0517C21.5737 14.2197 21.6398 14.3617 21.7701 14.4745C21.8985 14.5862 22.0558 14.6425 22.2383 14.6425H22.5794V15.8747H23.046V13.3232H22.5794V14.2118Z" fill="white"/>
    <path fill-rule="evenodd" clip-rule="evenodd" d="M23.562 13.3232V13.7475H23.9495V15.8746H23.9552H24.4157H24.4214V13.7475H24.8089V13.3232H23.562Z" fill="white"/>
    <path fill-rule="evenodd" clip-rule="evenodd" d="M22.878 16.8281V17.6437H22.2379V16.8281H21.7725V19.3806H22.2379V18.068H22.878V19.3806H23.3434V16.8281H22.878Z" fill="white"/>
    <path fill-rule="evenodd" clip-rule="evenodd" d="M18.2729 18.9855C18.2276 18.9855 18.1137 18.9749 18.1137 18.9749V18.4768V18.4246V18.0767C18.1137 18.0767 18.1503 18.068 18.1904 18.068C18.4269 18.068 18.7064 18.0541 18.7064 18.5263C18.7064 18.9592 18.3993 18.9855 18.2729 18.9855ZM18.3294 17.6632C18.2491 17.6632 18.1777 17.6651 18.1137 17.6681V17.2524H18.9504V16.8281H17.6475V17.2524V19.3796H17.679H18.3551C19.0606 19.3796 19.1699 18.7484 19.1699 18.5147C19.1699 18.2382 19.0613 17.6632 18.3294 17.6632Z" fill="white"/>
    <path fill-rule="evenodd" clip-rule="evenodd" d="M20.0612 14.6035V14.6033C20.0651 13.9127 20.2347 13.6854 20.4135 13.682C20.5924 13.6854 20.762 13.9127 20.7659 14.6033V14.6035C20.762 15.278 20.5924 15.5084 20.4135 15.5119C20.2347 15.5084 20.0652 15.278 20.0612 14.6035ZM21.2303 14.5089C21.2222 14.1439 21.16 13.8824 21.0635 13.6966C20.9115 13.3791 20.6693 13.2606 20.4192 13.2575C20.4187 13.2575 20.4182 13.2573 20.4176 13.2573C20.4163 13.2573 20.4149 13.2574 20.4135 13.2574C20.4122 13.2574 20.4108 13.2573 20.4094 13.2573C20.4089 13.2573 20.4084 13.2575 20.4079 13.2575C20.1578 13.2606 19.9157 13.3791 19.7636 13.6966C19.6671 13.8824 19.6049 14.1439 19.5968 14.5089C19.5967 14.5094 19.5957 14.5908 19.5957 14.5915L19.5958 14.5914C19.596 14.8188 19.6212 15.0393 19.6704 15.2169C19.7984 15.7397 20.0942 15.9246 20.4031 15.9302C20.4052 15.9303 20.4075 15.9305 20.4094 15.9305C20.4108 15.9305 20.4122 15.9304 20.4135 15.9304C20.4149 15.9304 20.4163 15.9305 20.4176 15.9305C20.4197 15.9305 20.422 15.9303 20.424 15.9302C20.7328 15.9246 21.0287 15.7397 21.1567 15.2169C21.206 15.0393 21.2311 14.8188 21.2313 14.5914L21.2314 14.5915C21.2314 14.5908 21.2303 14.5094 21.2303 14.5089Z" fill="white"/>
    <path fill-rule="evenodd" clip-rule="evenodd" d="M25.6661 19.3798L25.1049 17.8842C25.2214 17.7969 25.3121 17.6297 25.3525 17.4631C25.3916 17.3012 25.443 16.8281 25.443 16.8281H24.9841C24.9813 16.8763 24.9714 17.0382 24.957 17.2028C24.9358 17.4467 24.8644 17.6718 24.6164 17.6718H24.4251C24.4248 17.6513 24.4251 16.8281 24.4251 16.8281H23.9585V19.3806H24.4251V18.0846C24.4251 18.0846 24.672 18.085 24.7068 18.0847L25.1652 19.3798H25.6661Z" fill="white"/>
</svg>
