<svg width="32" height="33" viewBox="0 0 32 33" fill="none" xmlns="http://www.w3.org/2000/svg">
    <path d="M14.5072 27.3706C11.7083 26.9282 8.90311 25.362 8.28458 23.8963C8.16922 23.6229 7.81745 23.2401 7.50288 23.0457C6.75488 22.5834 6.27287 21.7833 6.27287 21.004C6.27287 20.514 6.16579 20.2795 5.77229 19.9081C5.30879 19.4706 5.27794 19.3754 5.35574 18.6215C5.41351 18.0618 5.36937 17.7112 5.21445 17.4993C4.66771 16.7516 5.21505 15.162 6.30504 14.3321C7.99971 13.0419 11.3069 12.0147 17.0242 11.0028C18.0391 10.8232 19.0862 10.6123 19.3509 10.5341C20.3132 10.25 19.249 10.1116 16.1416 10.1168C13.5259 10.1212 12.8875 10.1732 11.6485 10.4829C9.70691 10.9683 8.71501 11.3491 6.96228 12.2821C5.65708 12.9768 5.50027 13.027 5.61353 12.7133C5.89529 11.9328 9.10394 10.366 11.8478 9.66916C13.0705 9.35863 13.6495 9.31403 16.3021 9.32608C17.9789 9.33369 19.7046 9.41597 20.1368 9.50893C20.8717 9.66702 20.9483 9.65225 21.3198 9.28069C21.5383 9.0622 21.6541 8.82528 21.5771 8.75419C21.2058 8.41157 19.1766 8.07304 17.0046 7.99137C15.1948 7.92332 14.2778 7.96675 12.9946 8.18131C10.9559 8.52221 8.92751 9.09828 7.85859 9.63994C7.07995 10.0345 7.06129 10.0364 7.2395 9.70343C7.62424 8.98454 10.687 7.899 13.7985 7.37872C15.7632 7.0502 18.3755 7.11701 20.2047 7.54256C20.8508 7.69286 21.4167 7.77855 21.4622 7.73299C21.6062 7.58906 20.7722 7.13158 19.5592 6.68905C18.4521 6.28512 18.2348 6.26237 15.58 6.2724C13.0493 6.28196 12.641 6.32313 11.4479 6.68897C10.7198 6.91225 10.1241 7.07114 10.1241 7.04204C10.1241 6.90879 11.4375 6.34129 12.4528 6.03586C16.4388 4.83675 21.2819 5.72805 22.759 7.93258C22.9612 8.23441 23.3603 8.62071 23.6458 8.79101C24.5543 9.33288 25.199 10.0594 25.307 10.6631C25.3632 10.9777 25.6162 11.4417 25.8692 11.6943C26.4618 12.2861 26.759 13.2229 26.5047 13.6979C26.3526 13.9822 26.3815 14.1241 26.6715 14.5164C27.3007 15.3675 27.0164 16.4377 25.9009 17.4171C25.0959 18.1239 23.0348 19.0733 21.4057 19.4878C20.2963 19.77 14.879 20.7717 14.3765 20.7875C14.2882 20.7903 14.339 20.8643 14.4894 20.952C14.6398 21.0397 15.5238 21.1965 16.4537 21.3004C19.2873 21.617 22.5658 21.0863 25.569 19.8247C26.1648 19.5745 26.6522 19.4297 26.6522 19.503C26.6522 19.9737 24.2342 21.0059 21.7579 21.5922C18.7706 22.2996 16.1776 22.2987 13.3032 21.5892C12.3625 21.357 11.935 21.3217 11.5037 21.4408C10.6485 21.677 10.6765 21.8496 11.628 22.2056C15.3702 23.6057 19.6859 23.6466 24.2483 22.3252C25.7547 21.8888 25.9001 22.1168 24.4787 22.6865C20.3997 24.3216 15.1157 24.4285 11.1974 22.9553C9.87966 22.4598 9.69733 22.4268 9.48221 22.6447C9.26808 22.8616 9.27594 22.914 9.55348 23.1197C9.98364 23.4386 12.1917 24.2762 13.6494 24.6736C14.6254 24.9396 15.3518 25.0044 17.4253 25.0104C19.9168 25.0175 20.7076 24.9149 23.4428 24.2293C23.8332 24.1315 23.8355 24.1357 23.526 24.3862C23.1404 24.6982 21.1625 25.3374 19.745 25.608C18.3196 25.8802 15.4096 25.882 14.0555 25.6116C12.9683 25.3945 11.5307 24.9442 10.2043 24.4054L9.56245 24.1446L10.1241 24.6407C11.0305 25.4414 13.1695 26.3958 14.6549 26.6622C16.1179 26.9247 18.2757 26.8478 19.8743 26.4762C20.3793 26.3588 20.8137 26.284 20.8397 26.31C20.9096 26.3798 19.2898 27.0004 18.5486 27.1879C17.6104 27.4251 15.4658 27.522 14.5072 27.3706ZM8.35895 21.9022C8.35895 21.7152 7.71879 21.3695 7.59734 21.4909C7.46338 21.6249 8.05495 22.2355 8.21992 22.1335C8.29639 22.0863 8.35895 21.9822 8.35895 21.9022ZM9.80315 20.8681L10.2043 20.6439L9.444 20.3055C8.83722 20.0355 8.61572 20.0035 8.34711 20.1473C7.97694 20.3454 7.99401 20.3834 8.63855 20.7966C9.18118 21.1445 9.29613 21.1515 9.80315 20.8681ZM12.278 19.9852C12.5034 19.8995 14.4036 19.5052 16.5008 19.1091C22.1037 18.0506 24.5167 17.2559 25.3521 16.1938C25.6732 15.7856 25.786 15.3166 25.6063 15.1369C25.5606 15.0912 24.8927 15.3665 24.122 15.7487C22.4508 16.5775 20.1031 17.1955 15.7199 17.9603C12.4434 18.5321 9.96362 19.1248 9.96362 19.3361C9.96362 19.4651 11.3505 20.1056 11.6782 20.1279C11.7828 20.1351 12.0527 20.0708 12.278 19.9852ZM7.23568 19.3348C7.23568 19.1477 6.59552 18.802 6.47407 18.9234C6.34011 19.0574 6.93168 19.668 7.09665 19.566C7.17312 19.5188 7.23568 19.4147 7.23568 19.3348ZM9.00944 18.2109C9.96203 17.7249 12.2657 17.1567 15.4997 16.6099C17.0884 16.3413 19.2908 15.9016 20.394 15.6328C22.4975 15.1202 24.6253 14.2688 24.4622 14.0049C24.4096 13.9197 24.1279 13.7503 23.8363 13.6284C23.347 13.424 23.1783 13.4485 21.6495 13.9455C20.7383 14.2417 19.3068 14.6066 18.4684 14.7563C14.6276 15.442 11.8595 16.0182 10.6055 16.3931C9.21851 16.8078 7.39614 17.67 7.39614 17.9116C7.39614 18.0171 8.12511 18.5022 8.32522 18.5298C8.3508 18.5333 8.6587 18.3899 9.00944 18.2109ZM8.17624 15.8574C9.52581 15.2585 11.4927 14.7388 14.7444 14.122C19.0497 13.3054 20.9371 12.9016 21.0842 12.7655C21.2563 12.6065 19.5765 12.278 18.5911 12.278C17.2547 12.278 14.3297 12.7639 11.7752 13.4101C8.05286 14.3518 6.11241 15.3919 6.11241 16.4453C6.11241 17.0847 6.26147 17.1304 6.81666 16.6611C7.09125 16.4291 7.70306 16.0674 8.17624 15.8574ZM25.3044 12.6867C25.1908 12.234 24.8681 12.1549 24.575 12.508C24.4202 12.6945 24.4696 12.7828 24.8362 12.9753C25.3772 13.2593 25.4387 13.2215 25.3044 12.6867ZM23.2467 11.8678C23.4428 11.7304 23.6033 11.5565 23.6033 11.4813C23.6033 11.4062 23.1694 11.1982 22.6392 11.0191L21.675 10.6935L21.0191 11.0661L20.3632 11.4386L21.3815 11.7612C22.6602 12.1662 22.8085 12.1747 23.2467 11.8678ZM23.9242 10.3825C23.9242 10.3107 23.7102 10.047 23.4487 9.79636C23.0459 9.41053 22.9345 9.37274 22.7212 9.54972C22.3694 9.8417 22.4888 10.0568 23.1316 10.2891C23.8117 10.5348 23.9242 10.5481 23.9242 10.3825Z" fill="white"/>
</svg>
