<svg width="32" height="32" viewBox="0 0 32 32" fill="none" xmlns="http://www.w3.org/2000/svg">
    <path fill-rule="evenodd" clip-rule="evenodd" d="M6 6H26V26.0004H6V6Z" fill="#FFF200"/>
    <path fill-rule="evenodd" clip-rule="evenodd" d="M26 6H6V26.0004H26V6ZM7 25.0004V7H25V25.0004H7ZM10.3032 23.7571L7.95512 21.3635L13.5707 15.8277L12.466 14.723V12.5246L11.9022 12.099V13.7795L10.9931 14.5389L8.4498 11.7995L7.62134 12.4899C7.70199 9.70501 10.0385 6.85026 12.3171 8.72641L15.3439 11.6494L14.6304 12.2942L15.9883 13.6294L17.3925 12.2599L16.8284 11.5807L19.5909 8.8418C21.9617 6.54005 24.8276 10.6948 24.3325 12.5246L23.4925 11.8802L20.8801 14.4926L20.0053 13.7791V12.0299L19.3262 12.6053V14.8379L18.2441 15.8852L23.8726 21.5128L21.4902 23.8721L15.8047 18.1754L10.3032 23.7571Z" fill="black"/>
</svg>
