<svg width="32" height="33" viewBox="0 0 32 33" fill="none" xmlns="http://www.w3.org/2000/svg">
    <path fill-rule="evenodd" clip-rule="evenodd" d="M16.015 16.2179L12.1965 13.8316V16.7025L16.015 19.0888L25.1543 12.3737C24.8307 11.6631 24.4257 10.9968 23.9521 10.3859L16.015 16.2185V16.2179Z" fill="white"/>
    <path fill-rule="evenodd" clip-rule="evenodd" d="M26 16.501C26 15.8895 25.9444 15.2906 25.8395 14.7094L23.6869 16.2958C23.6884 16.3636 23.6895 16.4326 23.6895 16.501C23.6895 20.741 20.2397 24.1909 16 24.1909C11.7598 24.1909 8.30999 20.7415 8.30999 16.501C8.30999 12.261 11.7598 8.81104 15.9995 8.81104C17.6066 8.81104 19.0999 9.3071 20.3352 10.153L22.2801 8.71966C20.5633 7.33226 18.3787 6.50098 16 6.50098C10.4768 6.50098 6 10.978 6 16.501C6 22.0239 10.4773 26.501 16 26.501C21.5227 26.501 25.9995 22.0239 25.9995 16.5015" fill="white"/>
</svg>
