<svg width="32" height="33" viewBox="0 0 32 33" fill="none" xmlns="http://www.w3.org/2000/svg">
    <path d="M16 5C9.91705 5 5 9.91705 5 16C5 22.0829 9.91705 27 16 27C22.0829 27 27 22.0829 27 16C27 9.91705 22.0829 5 16 5ZM14.4793 20.6636L13.6682 23.0461C10.6267 22.0323 8.59908 19.1429 8.59908 15.8986C8.59908 12.6544 10.6267 9.81567 13.7189 8.75115L14.53 11.1336C12.5023 11.7926 11.1843 13.7189 11.1843 15.8479C11.0829 18.0783 12.4516 20.0046 14.4793 20.6636ZM18.2304 23.0968L17.47 20.6636C19.5484 20.0046 20.917 18.0783 20.917 15.8986C20.917 13.7189 19.5484 11.8433 17.5207 11.1843L18.3318 8.75115C21.424 9.76498 23.5023 12.6544 23.5023 15.8986C23.5023 19.2442 21.3733 22.1336 18.2304 23.0968Z" fill="white"/>
</svg>
