<svg width="32" height="32" viewBox="0 0 32 32" fill="none" xmlns="http://www.w3.org/2000/svg">
    <path d="M16 4.5C9.91705 4.5 5 9.41705 5 15.5C5 21.5829 9.91705 26.5 16 26.5C22.0829 26.5 27 21.5829 27 15.5C27 9.41705 22.0829 4.5 16 4.5ZM14.4793 20.1636L13.6682 22.5461C10.6267 21.5323 8.59908 18.6429 8.59908 15.3986C8.59908 12.1544 10.6267 9.31567 13.7189 8.25115L14.53 10.6336C12.5023 11.2926 11.1843 13.2189 11.1843 15.3479C11.0829 17.5783 12.4516 19.5046 14.4793 20.1636ZM18.2304 22.5968L17.47 20.1636C19.5484 19.5046 20.917 17.5783 20.917 15.3986C20.917 13.2189 19.5484 11.3433 17.5207 10.6843L18.3318 8.25115C21.424 9.26498 23.5023 12.1544 23.5023 15.3986C23.5023 18.7442 21.3733 21.6336 18.2304 22.5968Z" fill="#00BEF0"/>
</svg>
