<svg width="32" height="32" viewBox="0 0 32 32" fill="none" xmlns="http://www.w3.org/2000/svg">
<path d="M13.3334 13.5C13.0573 13.5 12.8334 13.7239 12.8334 14C12.8334 14.2762 13.0573 14.5 13.3334 14.5H14.6667C14.9429 14.5 15.1667 14.2762 15.1667 14C15.1667 13.7239 14.9429 13.5 14.6667 13.5H13.3334Z" fill="#252525"/>
<path d="M13.3334 16.1667C13.0573 16.1667 12.8334 16.3905 12.8334 16.6667C12.8334 16.9428 13.0573 17.1667 13.3334 17.1667H18.6667C18.9429 17.1667 19.1667 16.9428 19.1667 16.6667C19.1667 16.3905 18.9429 16.1667 18.6667 16.1667H13.3334Z" fill="#252525"/>
<path d="M13.3334 18.8333C13.0573 18.8333 12.8334 19.0572 12.8334 19.3333C12.8334 19.6095 13.0573 19.8333 13.3334 19.8333H18.6667C18.9429 19.8333 19.1667 19.6095 19.1667 19.3333C19.1667 19.0572 18.9429 18.8333 18.6667 18.8333H13.3334Z" fill="#252525"/>
<path fill-rule="evenodd" clip-rule="evenodd" d="M12.0001 8.83334C11.5139 8.83334 11.0475 9.0265 10.7037 9.37031C10.3599 9.71413 10.1667 10.1804 10.1667 10.6667V21.3333C10.1667 21.8196 10.3599 22.2859 10.7037 22.6297C11.0475 22.9735 11.5139 23.1667 12.0001 23.1667H20.0001C20.4863 23.1667 20.9526 22.9735 21.2964 22.6297C21.6403 22.2859 21.8334 21.8196 21.8334 21.3333V13.3333C21.8334 13.2007 21.7807 13.0736 21.687 12.9798L17.687 8.97979C17.5932 8.88602 17.466 8.83334 17.3334 8.83334H12.0001ZM11.4108 10.0774C11.5671 9.92114 11.7791 9.83334 12.0001 9.83334H16.8334L16.8334 13.3333C16.8334 13.466 16.8861 13.5931 16.9799 13.6869C17.0736 13.7807 17.2008 13.8333 17.3334 13.8333H20.8334V21.3333C20.8334 21.5544 20.7456 21.7663 20.5893 21.9226C20.4331 22.0789 20.2211 22.1667 20.0001 22.1667H12.0001C11.7791 22.1667 11.5671 22.0789 11.4108 21.9226C11.2545 21.7663 11.1667 21.5544 11.1667 21.3333V10.6667C11.1667 10.4457 11.2545 10.2337 11.4108 10.0774Z" fill="#252525"/>
</svg>
