<svg width="32" height="32" viewBox="0 0 32 32" fill="none" xmlns="http://www.w3.org/2000/svg">
<path d="M10.5 16.5L12 15L15 18.0001L19.9613 12.1064L21.5 13.5001L15 21.0001L10.5 16.5Z" fill="currentColor"/>
<path fill-rule="evenodd" clip-rule="evenodd" d="M26 16C26 21.5228 21.5228 26 16 26C10.4772 26 6 21.5228 6 16C6 10.4772 10.4772 6 16 6C21.5228 6 26 10.4772 26 16ZM24 16C24 20.4183 20.4183 24 16 24C11.5817 24 8 20.4183 8 16C8 11.5817 11.5817 8 16 8C20.4183 8 24 11.5817 24 16Z" fill="currentColor"/>
</svg>
