<svg width="32" height="32" viewBox="0 0 32 32" fill="none" xmlns="http://www.w3.org/2000/svg">
<path fill-rule="evenodd" clip-rule="evenodd" d="M20.2222 23.1234L22.9667 25.8789L24.3753 24.4647L7.4971 7.51904L6.08852 8.93326L8.32497 11.1786C8.10291 11.3912 7.89389 11.6058 7.69775 11.8195C6.57103 13.0475 5.65208 14.4602 5 16C5.65209 17.5398 6.57103 18.9525 7.69775 20.1804C9.41974 22.0572 12.1341 24 15.9562 24C17.5717 24 18.9908 23.6584 20.2222 23.1234ZM18.6781 21.5731L17.7676 20.659C17.2062 20.8792 16.5953 21 15.9562 21C13.2058 21 10.9761 18.7614 10.9761 16C10.9761 15.3584 11.0965 14.745 11.3158 14.1814L9.72857 12.5879C9.52307 12.7825 9.32894 12.981 9.14594 13.1805C8.12489 14.2933 7.47282 15.4196 7.17368 16C7.47282 16.5804 8.12489 17.7067 9.14594 18.8195C10.6353 20.4428 12.8616 22 15.9562 22C16.9511 22 17.857 21.8416 18.6781 21.5731ZM12.9721 15.8444C12.9695 15.8959 12.9682 15.9478 12.9682 16C12.9682 17.6569 14.306 19 15.9562 19C16.0082 19 16.0599 18.9987 16.1113 18.996L12.9721 15.8444Z" fill="currentColor"/>
<path d="M24.2807 20.1805C24.07 20.4082 23.8447 20.6369 23.6044 20.863L22.1951 19.4482C22.4166 19.242 22.6251 19.0313 22.8209 18.8195C23.8501 17.7068 24.5074 16.5804 24.809 16C24.5074 15.4196 23.8501 14.2933 22.8209 13.1805C21.3196 11.5572 19.0756 10 15.9562 10C14.9552 10 14.045 10.163 13.2212 10.4384L11.6835 8.89453C12.9145 8.34921 14.3358 8.00001 15.9562 8C19.8089 8.00003 22.5449 9.94282 24.2807 11.8195C25.4164 13.0475 26.3427 14.4602 27 16C26.3427 17.5398 25.4164 18.9525 24.2807 20.1805Z" fill="currentColor"/>
<path d="M20.9363 16C20.9363 16.6483 20.8134 17.2678 20.5897 17.8363L18.9391 16.1791C18.9425 16.1198 18.9443 16.0601 18.9443 16C18.9443 14.3431 17.6065 13 15.9562 13C15.8963 13 15.8369 13.0018 15.7779 13.0053L14.1272 11.348C14.6934 11.1234 15.3105 11 15.9562 11C18.7067 11 20.9363 13.2386 20.9363 16Z" fill="currentColor"/>
</svg>
