<svg width="32" height="32" viewBox="0 0 32 32" fill="none" xmlns="http://www.w3.org/2000/svg">
<path d="M19.3613 9C21.3709 9 22.7999 10.0862 23.5068 11.5557C24.2253 13.0494 24.1878 14.9245 23.2002 16.4443C21.593 18.9172 20.001 20.4351 16.6836 22.4355L15.9961 22.8428L15.3086 22.4355C11.9912 20.4351 10.3992 18.9172 8.79199 16.4443C7.80767 14.9295 7.77641 13.0571 8.50293 11.5615C9.21837 10.0889 10.657 9 12.668 9C13.5279 9.00003 14.4267 9.30915 15.375 9.99609L15.9834 10.4365L16.5762 9.97559C17.4138 9.32348 18.3413 9.00004 19.3613 9Z" stroke="currentColor" stroke-width="2"/>
</svg>
