<svg width="32" height="32" viewBox="0 0 32 32" fill="none" xmlns="http://www.w3.org/2000/svg">
<path fill-rule="evenodd" clip-rule="evenodd" d="M8 9C8 8.44772 8.44772 8 9 8H14C14.5523 8 15 8.44772 15 9V14C15 14.5523 14.5523 15 14 15H9C8.44772 15 8 14.5523 8 14V9ZM10 13V10H13V13H10Z" fill="currentColor"/>
<path fill-rule="evenodd" clip-rule="evenodd" d="M8 18C8 17.4477 8.44772 17 9 17H14C14.5523 17 15 17.4477 15 18V23C15 23.5523 14.5523 24 14 24H9C8.44772 24 8 23.5523 8 23V18ZM10 22V19H13V22H10Z" fill="currentColor"/>
<path fill-rule="evenodd" clip-rule="evenodd" d="M18 8C17.4477 8 17 8.44772 17 9V14C17 14.5523 17.4477 15 18 15H23C23.5523 15 24 14.5523 24 14V9C24 8.44772 23.5523 8 23 8H18ZM19 10V13H22V10H19Z" fill="currentColor"/>
<path fill-rule="evenodd" clip-rule="evenodd" d="M17 18C17 17.4477 17.4477 17 18 17H23C23.5523 17 24 17.4477 24 18V23C24 23.5523 23.5523 24 23 24H18C17.4477 24 17 23.5523 17 23V18ZM19 22V19H22V22H19Z" fill="currentColor"/>
</svg>
