<?xml version="1.0" encoding="UTF-8"?>
<svg width="32px" height="32px" viewBox="0 0 32 32" version="1.1" xmlns="http://www.w3.org/2000/svg" xmlns:xlink="http://www.w3.org/1999/xlink">
    <!-- Generator: Sketch 59.1 (86144) - https://sketch.com -->
    <title>Icons/24/icon-delete-24</title>
    <desc>Created with Sketch.</desc>
    <g id="Icons/24/icon-delete-24" stroke="none" stroke-width="1" fill="none" fill-rule="evenodd">
        <path d="M15.6748532,8.01281497 L17.6235933,8.46271708 L17.1352053,10.574815 L22.0788238,11.6835739 L21.1674496,21.2835309 C21.0212404,22.8236253 19.7278971,24 18.180878,24 L18.180878,24 L13.7655644,24 C12.2525946,24 10.9763916,22.8733907 10.7887308,21.3721042 L10.7887308,21.3721042 L9.86721778,14 L18,14 L18,16 L12.1327822,16 L12.7732866,21.1240347 C12.8358402,21.6244636 13.2612412,22 13.7655644,22 L13.7655644,22 L18.180878,22 C18.696551,22 19.1276655,21.6078751 19.1764019,21.0945103 L19.1764019,21.0945103 L19.9211762,13.2494314 L9.78120531,10.9757709 L10.2187947,9.02422908 L15.1832053,10.136815 L15.6748532,8.01281497 Z" id="Combined-Shape" fill="#252525" fill-rule="nonzero"></path>
    </g>
</svg>