<svg width="32" height="32" viewBox="0 0 32 32" fill="currentColor" xmlns="http://www.w3.org/2000/svg">
<path d="M15.0005 18L14.9004 13H17.1005L17.0005 18H15.0005Z" fill="currentColor"/>
<path d="M16.0004 19C16.6057 19 17.0968 19.4889 17.1003 20.0934C17.0968 20.6978 16.6057 21.1867 16.0004 21.1867C15.3951 21.1867 14.904 20.6978 14.9004 20.0934C14.904 19.4889 15.3951 19 16.0004 19Z" fill="currentColor"/>
<path d="M14.9004 20.0934L14.9004 20.1V20.0867L14.9004 20.0934Z" fill="currentColor"/>
<path d="M17.1003 20.0934L17.1004 20.0867V20.1L17.1003 20.0934Z" fill="currentColor"/>
<path fill-rule="evenodd" clip-rule="evenodd" d="M5.8672 24C5.48204 24 5.24151 23.5828 5.43449 23.2495L15.5673 5.74741C15.7598 5.41476 16.2401 5.41476 16.4327 5.74741L26.5655 23.2495C26.7585 23.5828 26.5179 24 26.1328 24H5.8672ZM16 8.99172L23.5311 22H8.46887L16 8.99172Z" fill="currentColor"/>
</svg>
