<svg width="32" height="32" viewBox="0 0 32 32" fill="currentColor" xmlns="http://www.w3.org/2000/svg">
<path fill-rule="evenodd" clip-rule="evenodd" d="M12 5H14V7H18V5H20V7H21C22.6569 7 24 8.34315 24 10V22C24 23.6569 22.6569 25 21 25H16V23H21C21.5523 23 22 22.5523 22 22V13H10V17H8V10C8 8.34315 9.34315 7 11 7H12V5ZM22 10V11H10V10C10 9.44772 10.4477 9 11 9H21C21.5523 9 22 9.44772 22 10Z" fill="currentColor"/>
<path d="M12 15H15V17H12V15Z" fill="currentColor"/>
<path d="M17 19H20V21H17V19Z" fill="currentColor"/>
<path d="M20 15H17V17H20V15Z" fill="currentColor"/>
<path d="M10 21V18H12V21H15V23H12V26H10V23H7V21H10Z" fill="currentColor"/>
</svg>
