<svg width="32" height="32" viewBox="0 0 32 32" fill="none" xmlns="http://www.w3.org/2000/svg">
<path d="M7 16V14H9V16H7Z" fill="currentColor"/>
<path d="M7 18V26L11.7261 22.2191C11.9034 22.0773 12.1237 22 12.3508 22H22C23.6569 22 25 20.6569 25 19V11C25 9.34315 23.6569 8 22 8H10C8.34315 8 7 9.34315 7 11V12H9V11C9 10.4477 9.44772 10 10 10H22C22.5523 10 23 10.4477 23 11V19C23 19.5523 22.5523 20 22 20H12.3508C11.6696 20 11.0086 20.2318 10.4767 20.6574L9 21.8387V18H7Z" fill="currentColor"/>
<path d="M21 12H11V14H21V12Z" fill="currentColor"/>
<path d="M11 16H19V18H11V16Z" fill="currentColor"/>
</svg>
