<svg width="32" height="32" viewBox="0 0 32 32" fill="none" xmlns="http://www.w3.org/2000/svg">
<path fill-rule="evenodd" clip-rule="evenodd" d="M13.2425 13.5015C12.4504 12.6527 11.8918 11.5095 11.8917 10.0002C11.8916 8.01587 13.4623 6.00023 15.8915 6C17.7142 5.99983 18.9522 6.78887 19.5846 7.96329C19.9366 8.61705 20.074 9.3406 20.0594 10.0226L21.3115 10.0325L23.8916 12.5822L23.8916 17.4141L14.8809 26.4249L7.68164 19.0053L13.2425 13.5015ZM15.8917 8C17.069 7.99989 17.581 8.46086 17.8236 8.91148C17.9985 9.23615 18.071 9.62826 18.0595 10.0067L16.7837 9.99665L14.6641 12.0945C14.1851 11.5566 13.8917 10.8725 13.8917 10.0001C13.8916 8.98344 14.6991 8.00011 15.8917 8ZM14.8486 14.7259C15.0108 14.8145 15.1742 14.8958 15.337 14.9703C16.185 15.3579 17.0591 15.5825 17.7941 15.6969C18.4975 15.8064 19.1788 15.8313 19.6217 15.7427C20.1633 15.6344 20.5145 15.1076 20.4062 14.566C20.2979 14.0245 19.7711 13.6732 19.2295 13.7815C19.1311 13.8012 18.725 13.8178 18.1018 13.7207C17.567 13.6375 16.9503 13.4822 16.3564 13.2335L17.5995 12.0032L20.4835 12.026L21.8916 13.4176V16.5857L14.9024 23.575L10.496 19.0338L14.8486 14.7259Z" fill="currentColor"/>
</svg>
