<svg width="32" height="32" viewBox="0 0 32 32" fill="none" xmlns="http://www.w3.org/2000/svg">
<path fill-rule="evenodd" clip-rule="evenodd" d="M16 26C21.5228 26 26 21.5228 26 16C26 10.4772 21.5228 6 16 6C10.4772 6 6 10.4772 6 16C6 21.5228 10.4772 26 16 26ZM20.669 12.2975L18.9451 20.4124C18.8189 21.001 18.5246 21.1692 17.978 20.8749L15.3712 18.9408L14.1098 20.1601C13.8996 20.3283 13.7314 20.4124 13.5632 20.4124L13.7734 17.7214L18.6508 13.2646C18.7348 13.1805 18.7348 13.1384 18.6928 13.0964C18.6087 13.0543 18.4826 13.0543 18.3144 13.1805L12.3018 16.9646L9.69497 16.1657C9.48474 16.1237 9.3586 16.0396 9.31656 15.9555C9.27451 15.8714 9.27451 15.7873 9.3586 15.6612C9.4427 15.5351 9.61088 15.451 9.82111 15.3669L19.9542 11.4566C20.2064 11.3725 20.3746 11.3725 20.5428 11.5407C20.711 11.7089 20.753 11.9612 20.669 12.2975Z" fill="currentColor"/>
</svg>
