<?xml version="1.0" encoding="UTF-8"?>
<svg width="32px" height="32px" viewBox="0 0 32 32" version="1.1" xmlns="http://www.w3.org/2000/svg" xmlns:xlink="http://www.w3.org/1999/xlink">
    <!-- Generator: Sketch 59.1 (86144) - https://sketch.com -->
    <title>Icons/24/icon-settings-24</title>
    <desc>Created with Sketch.</desc>
    <g id="Icons/24/icon-settings-24" stroke="none" stroke-width="1" fill="none" fill-rule="evenodd">
        <path d="M20,16 L20,18 C20,18.5522847 20.4477153,19 21,19 L25,19 L25,21 L21,21 C20.4477153,21 20,21.4477153 20,22 L20,24 L18,24 L18,16 L20,16 Z M16,19 L16,21 L7,21 L7,19 L16,19 Z M14,8 L14,16 L12,16 L12,14 C12,13.4477153 11.5522847,13 11,13 L11,13 L7,13 L7,11 L11,11 C11.5522847,11 12,10.5522847 12,10 L12,10 L12,8 L14,8 Z M25,11 L25,13 L16,13 L16,11 L25,11 Z" id="Combined-Shape" fill="#252525" fill-rule="nonzero"></path>
    </g>
</svg>