<svg width="32" height="32" viewBox="0 0 32 32" fill="none" xmlns="http://www.w3.org/2000/svg"><path d="M10 24H8V22.5C8 20.0147 10.0147 18 12.5 18H19.5C21.9853 18 24 20.0147 24 22.5V24H22V22.5C22 21.1193 20.8807 20 19.5 20H12.5C11.1193 20 10 21.1193 10 22.5V24ZM16 16C13.7909 16 12 14.2091 12 12C12 9.79086 13.7909 8 16 8C18.2091 8 20 9.79086 20 12C20 14.2091 18.2091 16 16 16ZM16 14C17.1046 14 18 13.1046 18 12C18 10.8954 17.1046 10 16 10C14.8954 10 14 10.8954 14 12C14 13.1046 14.8954 14 16 14Z" fill="#252525"/></svg>
