<svg width="32" height="32" viewBox="0 0 32 32" fill="currentColor" xmlns="http://www.w3.org/2000/svg">
<path d="M20 19H18V21.0001L20 21.0002V19Z" fill="currentColor"/>
<path d="M18 15H20V17H18V15Z" fill="currentColor"/>
<path fill-rule="evenodd" clip-rule="evenodd" d="M20 11.0006V9.00069C21.6667 9.00064 23.3333 9.00045 25 9V23.0004L10.0001 23.0004C8.34315 23.0004 7 21.6572 7 20.0004V12.0004C7 10.3435 8.34315 9.00036 10 9.00036L18 9.0007V11.0006L20 11.0006ZM23 11.0004V21.0004L20 21.0002V23H18V21.0001L9.99995 21.0002C9.44778 21.0002 9.00015 20.5525 9 20.0004L9.00015 12.0004C9.00015 11.4482 9.44778 11.0006 9.99995 11.0006L18 11.0006V13H20V11.0006L23 11.0004Z" fill="currentColor"/>
</svg>
