<svg width="32" height="32" viewBox="0 0 32 32" fill="currentColor" xmlns="http://www.w3.org/2000/svg">
<path fill-rule="evenodd" clip-rule="evenodd" d="M14.5037 9H15V6H17V9H17.4962C19.4294 9 21.0859 10.3825 21.4317 12.2845L23.1982 22H8.80176L10.5682 12.2845C10.914 10.3825 12.5706 9 14.5037 9ZM12.536 12.6422C12.7089 11.6912 13.5371 11 14.5037 11H17.4962C18.4628 11 19.2911 11.6912 19.464 12.6422L20.8018 20H11.1982L12.536 12.6422Z" fill="currentColor"/>
<path d="M17 25V23H15V25C15 25.5523 15.4477 26 16 26C16.5523 26 17 25.5523 17 25Z" fill="currentColor"/>
</svg>
