<svg width="32" height="32" viewBox="0 0 32 32" fill="currentColor" xmlns="http://www.w3.org/2000/svg">
<path fill-rule="evenodd" clip-rule="evenodd" d="M8 8H15V15H8V8ZM10 10H13V13H10V10Z" fill="currentColor"/>
<path fill-rule="evenodd" clip-rule="evenodd" d="M8 17H15V24H8V17ZM10 19H13V22H10V19Z" fill="currentColor"/>
<path fill-rule="evenodd" clip-rule="evenodd" d="M17 8V15H24V8H17ZM22 10H19V13H22V10Z" fill="currentColor"/>
<path d="M17 17H19V19H21V21H22V19H21V17H24V24H22V23H19V24H17V22H19V21H17V17Z" fill="currentColor"/>
</svg>
