<svg width="32" height="32" viewBox="0 0 32 32" xmlns="http://www.w3.org/2000/svg">
<path fill-rule="evenodd" clip-rule="evenodd" d="M16 6.22852L23.9999 12.5142L24 24.0003C24 24.2655 23.8946 24.5198 23.7071 24.7074C23.5196 24.8949 23.2652 25.0003 23 25.0003H18C17.4477 25.0003 17 24.5526 17 24.0003V19.5603H15V24.0003C15 24.5526 14.5523 25.0003 14 25.0003H9C8.44772 25.0003 8 24.5526 8 24.0003V12.5142L16 6.22852ZM10 13.4863V23.0003H13V17.5603H19V23.0003H22L21.9999 13.4863L16 8.77202L10 13.4863Z" fill="currentColor"/>
</svg>
