<svg width="32" height="32" viewBox="0 0 32 32" fill="none" xmlns="http://www.w3.org/2000/svg">
<path d="M17 20V17H15V20H17Z" fill="currentColor"/>
<path fill-rule="evenodd" clip-rule="evenodd" d="M11 11C11 8.23858 13.2386 6 16 6C18.7614 6 21 8.23858 21 11V13C22.6569 13 24 14.3431 24 16V22C24 23.6569 22.6569 25 21 25H11C9.34315 25 8 23.6569 8 22V16C8 14.3431 9.34315 13 11 13H19V11C19 9.34315 17.6569 8 16 8C14.3431 8 13 9.34315 13 11H11ZM11 15C10.4477 15 10 15.4477 10 16V22C10 22.5523 10.4477 23 11 23H21C21.5523 23 22 22.5523 22 22V16C22 15.4477 21.5523 15 21 15H11Z" fill="currentColor"/>
</svg>
