<svg width="32" height="32" viewBox="0 0 32 32" fill="currentColor" xmlns="http://www.w3.org/2000/svg">
<path fill-rule="evenodd" clip-rule="evenodd" d="M12 12C12 10.8954 12.8954 10 14 10C15.1046 10 16 10.8954 16 12C16 13.1046 15.1046 14 14 14C12.8954 14 12 13.1046 12 12ZM14 8C11.7909 8 10 9.79086 10 12C10 14.2091 11.7909 16 14 16C16.2091 16 18 14.2091 18 12C18 9.79086 16.2091 8 14 8ZM11 18C9.9031 18 8.87542 18.4851 8.13539 19.3073C7.39848 20.1261 7 21.2161 7 22.3333V24C7 24.5523 7.44772 25 8 25C8.55228 25 9 24.5523 9 24V22.3333C9 21.6825 9.23366 21.0767 9.62197 20.6453C10.0072 20.2173 10.5056 20 11 20H17C17.4944 20 17.9928 20.2173 18.378 20.6453C18.7663 21.0767 19 21.6825 19 22.3333V24C19 24.5523 19.4477 25 20 25C20.5523 25 21 24.5523 21 24V22.3333C21 21.2161 20.6015 20.1261 19.8646 19.3073C19.1246 18.4851 18.0969 18 17 18H11ZM21.5318 19.25C21.6698 18.7153 22.2153 18.3937 22.75 18.5318C23.6796 18.7718 24.5032 19.3138 25.0915 20.0726C25.6797 20.8314 25.9993 21.7641 26 22.7243V24C26 24.5523 25.5523 25 25 25C24.4477 25 24 24.5523 24 24V22.7254C23.9995 22.2086 23.8275 21.7064 23.5108 21.2979C23.1941 20.8893 22.7506 20.5975 22.25 20.4682C21.7153 20.3302 21.3937 19.7847 21.5318 19.25Z" fill="currentColor"/>
<path d="M18.712 10C18.712 9.44772 19.1598 9 19.712 9C21.645 9 23.212 10.567 23.212 12.5C23.212 14.433 21.645 16 19.712 16C19.5359 16 19.3622 15.9869 19.192 15.9615C18.6457 15.8799 18.2691 15.371 18.3506 14.8248C18.4322 14.2785 18.9411 13.9018 19.4874 13.9834C19.5601 13.9943 19.6351 14 19.712 14C20.5405 14 21.212 13.3284 21.212 12.5C21.212 11.6716 20.5405 11 19.712 11C19.1598 11 18.712 10.5523 18.712 10Z" fill="currentColor"/>
</svg>
