<svg width="32" height="32" viewBox="0 0 32 32" fill="none" xmlns="http://www.w3.org/2000/svg">
<path fill-rule="evenodd" clip-rule="evenodd" d="M20.8891 7.20729C20.5554 6.01991 19.4907 5 18 5C16.5093 5 15.4446 6.01991 15.1109 7.20729C14.7758 7.07473 14.4035 7 14 7C12.1839 7 11 8.51382 11 10L11 15.2534L9.15732 14.762C8.15604 14.5395 7.11049 14.8439 6.38521 15.5692L5 16.9544L11.351 24.634C12.1105 25.5021 13.2079 26 14.3613 26H21C23.2091 26 25 24.2091 25 22V10C25 8.51382 23.8161 7 22 7C21.5965 7 21.2242 7.07473 20.8891 7.20729ZM18 7C17.4161 7 17 7.48618 17 8V16L15 16V10C15 9.48618 14.5839 9 14 9C13.4161 9 13 9.48618 13 10L13 17.7466L8.72346 16.7144C8.34339 16.6299 8.00221 16.7806 7.73729 17.0456L12.8561 23.317C13.2359 23.751 13.7846 24 14.3613 24H21C22.1046 24 23 23.1046 23 22V10C23 9.48618 22.5839 9 22 9C21.4169 9 21.001 9.48498 21 9.99809L21 10L21 16H19L19 10L19 9.99673V8C19 7.48618 18.5839 7 18 7Z" fill="currentColor"/>
</svg>
