<svg width="32" height="32" viewBox="0 0 32 32" fill="currentColor" xmlns="http://www.w3.org/2000/svg">
<path d="M17.4097 10.3387L15.2884 12.46L13.8742 11.0458L15.9955 8.92446C17.9481 6.97184 21.1139 6.97184 23.0666 8.92446C25.0192 10.8771 25.0192 14.0429 23.0666 15.9955L20.9452 18.1168L19.531 16.7026L21.6523 14.5813C22.8239 13.4097 22.8239 11.5102 21.6523 10.3387C20.4808 9.1671 18.5813 9.1671 17.4097 10.3387Z" fill="currentColor"/>
<path d="M14.5813 21.6524L16.7026 19.5311L18.1168 20.9453L15.9955 23.0666C14.0429 25.0192 10.877 25.0192 8.92443 23.0666C6.97181 21.114 6.97181 17.9481 8.92443 15.9955L11.0457 13.8742L12.46 15.2884L10.3386 17.4097C9.16707 18.5813 9.16707 20.4808 10.3386 21.6524C11.5102 22.824 13.4097 22.824 14.5813 21.6524Z" fill="currentColor"/>
<path d="M18.8237 11.7531L11.7527 18.8241L13.1669 20.2383L20.238 13.1673L18.8237 11.7531Z" fill="currentColor"/>
</svg>
