<svg width="32" height="32" viewBox="0 0 32 32" fill="none" xmlns="http://www.w3.org/2000/svg">
<path fill-rule="evenodd" clip-rule="evenodd" d="M16 6C21.5228 6 26 10.4772 26 16C26 21.5228 21.5228 26 16 26C10.4772 26 6 21.5228 6 16C6 10.4772 10.4772 6 16 6ZM16 24C16 24 15.9948 24 15.9847 23.9969C15.9736 23.9935 15.9515 23.9852 15.9186 23.9649C15.8494 23.9225 15.7455 23.8359 15.6177 23.6738C15.3575 23.3436 15.0794 22.8038 14.8274 22.0477C14.3973 20.7574 14.0955 18.9972 14.019 17H17.981C17.9045 18.9972 17.6027 20.7574 17.1726 22.0477C16.9206 22.8038 16.6425 23.3436 16.3823 23.6738C16.2545 23.8359 16.1506 23.9225 16.0814 23.9649C16.0484 23.9852 16.0264 23.9935 16.0153 23.9969C16.0049 24.0001 16 24 16 24ZM13.2452 23.5131C13.1313 23.2483 13.0264 22.9694 12.93 22.6802C12.4218 21.1555 12.0949 19.1737 12.0177 17L8.06189 17C8.43722 20.0099 10.4846 22.5005 13.2452 23.5131ZM8.06189 15L12.0177 15C12.0949 12.8263 12.4218 10.8445 12.93 9.31981C13.0264 9.03057 13.1313 8.7517 13.2452 8.48695C10.4846 9.49947 8.43722 11.9901 8.06189 15ZM18.7548 23.5131C21.5154 22.5005 23.5628 20.0099 23.9381 17L19.9823 17C19.9051 19.1737 19.5782 21.1555 19.07 22.6802C18.9736 22.9694 18.8687 23.2483 18.7548 23.5131ZM23.9381 15C23.5628 11.9901 21.5154 9.49947 18.7548 8.48695C18.8687 8.7517 18.9736 9.03058 19.07 9.31981C19.5782 10.8445 19.9051 12.8263 19.9823 15L23.9381 15ZM16.0153 8.00305C16.0052 7.99998 16.0001 8 16.0001 8C16.0001 8 15.9948 7.99998 15.9847 8.00305C15.9736 8.00645 15.9515 8.01483 15.9186 8.03507C15.8494 8.07752 15.7455 8.16408 15.6177 8.32624C15.3575 8.65642 15.0794 9.19616 14.8274 9.95227C14.3973 11.2426 14.0955 13.0028 14.019 15H17.981C17.9045 13.0028 17.6027 11.2426 17.1726 9.95227C16.9206 9.19616 16.6425 8.65642 16.3823 8.32624C16.2545 8.16408 16.1506 8.07752 16.0814 8.03507C16.0485 8.01483 16.0264 8.00645 16.0153 8.00305Z" fill="currentColor"/>
</svg>
