<svg width="32" height="32" viewBox="0 0 32 32" fill="currentColor" xmlns="http://www.w3.org/2000/svg">
<path d="M19.3614 8C24.2056 8 26.4163 13.33 24.0382 16.9893C22.2163 19.7924 20.3867 21.4417 16.5001 23.7061L15.9962 24L15.4923 23.7061C11.8485 21.5831 10.0125 20.0013 8.296 17.502L7.9542 16.9893C5.57859 13.3338 7.82315 8 12.6681 8L12.877 8.00488C13.8517 8.0491 14.8139 8.40157 15.7599 9.04395L15.962 9.18652C16.9687 8.40279 18.1107 8.00004 19.3614 8ZM19.3614 10C18.572 10 17.8591 10.2442 17.1905 10.7646L16.005 11.6875L14.7892 10.8057C13.9707 10.2128 13.2723 10 12.6681 10C11.0687 10 9.96347 10.8434 9.40244 11.998C8.81896 13.1991 8.84973 14.6972 9.63096 15.8994C11.1628 18.2564 12.6564 19.6849 15.9962 21.6797C19.336 19.6849 20.8296 18.2564 22.3614 15.8994C23.1479 14.6892 23.1826 13.1869 22.6065 11.9893C22.0537 10.8399 20.9589 10 19.3614 10Z" fill="currentColor"/>
</svg>
