<svg width="32" height="32" viewBox="0 0 32 32" fill="none" xmlns="http://www.w3.org/2000/svg">
<path d="M10 7H16C17.6569 7 19 8.34315 19 10V12H17V10C17 9.44772 16.5523 9 16 9H10C9.44772 9 9 9.44772 9 10V22C9 22.5523 9.44772 23 10 23H16L16.1166 22.9933C16.614 22.9355 17 22.5128 17 22V20H19V22C18.9088 23.5748 17.5977 25 16 25H10C8.34315 25 7 23.6569 7 22V10C7 8.34315 8.34315 7 10 7ZM22.6573 11.6569L27 16L22.6713 20.3282L21.2573 18.9142L23.4858 16.9995L11.9858 17V14.9951L23.4858 14.9995L21.2433 13.0709L22.6573 11.6569Z" fill="#252525"/>
</svg>
