<svg width="32" height="32" viewBox="0 0 32 32" fill="none" xmlns="http://www.w3.org/2000/svg">
<path d="M25 14V7L22.364 9.63603C21.2614 8.53345 19.8836 7.72894 18.3599 7.31492C16.2793 6.74957 14.0649 6.94993 12.1195 7.87955C10.1742 8.80917 8.62717 10.4063 7.76001 12.3803C6.89286 14.3543 6.76317 16.574 7.39453 18.6355C8.0259 20.6971 9.37637 22.4635 11.2002 23.6133C13.0241 24.7631 15.2001 25.22 17.3324 24.9008C19.4647 24.5816 21.4116 23.5076 22.8188 21.874C24.007 20.4947 24.7438 18.7939 24.9443 17H22.9282C22.7387 18.3132 22.1785 19.553 21.3035 20.5687C20.209 21.8392 18.6948 22.6746 17.0363 22.9229C15.3779 23.1711 13.6854 22.8158 12.2668 21.9215C10.8483 21.0271 9.79792 19.6533 9.30686 18.0498C8.8158 16.4464 8.91667 14.72 9.59112 13.1847C10.2656 11.6493 11.4688 10.4071 12.9818 9.6841C14.4949 8.96106 16.2172 8.80522 17.8355 9.24494C19.0206 9.56695 20.0922 10.1927 20.9498 11.0502L18 14H25Z" fill="currentColor"/>
</svg>
