<svg width="32" height="32" viewBox="0 0 32 32" xmlns="http://www.w3.org/2000/svg"><title>Icons/24/icon-ticket-24</title><path fill="#252525" fill-rule="nonzero" d="M17.0002 20.9998C17.5524 20.9998 18 20.5522 18 20H20C20.0002 20.5522 20.4478 20.9998 21 20.9998H22.0001C22.5524 20.9998 23 20.5522 23 20V12C23 11.4478 22.5524 11.0002 22.0002 11.0002H21C20.4478 11.0002 20.0001 11.4478 20.0001 12H18C18 11.4477 17.5523 11.0002 17 11.0002H9.99995C9.44778 11.0002 9.00015 11.4478 9.00015 12L9 20C9.00015 20.5522 9.44778 20.9998 9.99995 20.9998H17.0002ZM10.0001 23C8.34315 23 7 21.6569 7 20V12C7 10.3431 8.34315 9 10 9H17C17.7685 9 18.4693 9.28883 19.0001 9.76383C19.5308 9.28883 20.2317 9 21 9H22C23.657 9 25.0002 10.3431 25.0002 12L25 20C25.0002 21.6569 23.657 23 22.0001 23H21.0001C20.2317 23 19.5308 22.7112 19.0001 22.2362C18.4693 22.7112 17.7685 23 17.0001 23H10.0001ZM18 14H20V18H18V14Z"/></svg>
