<svg width="32" height="32" viewBox="0 0 32 32" fill="none" xmlns="http://www.w3.org/2000/svg">
<path d="M16.0004 19C16.6057 19 17.0968 19.4889 17.1004 20.0934C17.0968 20.6978 16.6057 21.1867 16.0004 21.1867C15.3951 21.1867 14.904 20.6978 14.9004 20.0934C14.904 19.4889 15.3951 19 16.0004 19Z" fill="currentColor"/>
<path d="M14.9004 20.0934L14.9004 20.1V20.0867L14.9004 20.0934Z" fill="currentColor"/>
<path d="M17.1004 20.0934L17.1004 20.0867V20.1L17.1004 20.0934Z" fill="currentColor"/>
<path d="M14.9 14H13C13 12.7652 13.9148 10.9961 16.0154 10.9961C17.9323 10.9961 19 12.3601 19 14C19 14.9237 18.4463 15.7043 17.9193 16.1641C17.8718 16.2054 17.8219 16.2475 17.7708 16.2904C17.4137 16.5907 17 16.9386 17 17.4486V18H15.0004C15.0012 17.9838 15.0026 17.8714 15.0026 17.2344C15.0026 16.4017 15.5207 15.9574 16.0134 15.5348C16.0246 15.5252 16.0358 15.5156 16.047 15.506C16.573 15.0544 17.1 14.602 17.1 14C17.1 13.2515 16.5936 12.9001 16 12.9001C15.3533 12.9001 14.9 13.453 14.9 14Z" fill="currentColor"/>
<path fill-rule="evenodd" clip-rule="evenodd" d="M16 26C21.5228 26 26 21.5228 26 16C26 10.4772 21.5228 6 16 6C10.4772 6 6 10.4772 6 16C6 21.5228 10.4772 26 16 26ZM16 24C20.4183 24 24 20.4183 24 16C24 11.5817 20.4183 8 16 8C11.5817 8 8 11.5817 8 16C8 20.4183 11.5817 24 16 24Z" fill="currentColor"/>
</svg>
