<svg width="32" height="32" viewBox="0 0 32 32" fill="none" xmlns="http://www.w3.org/2000/svg">
<path fill-rule="evenodd" clip-rule="evenodd" d="M12.3195 10.6263L9.25722 11.8512C8.4979 12.1549 8 12.8903 8 13.7081V20C8 21.1046 8.89543 22 10 22H22C23.1046 22 24 21.1046 24 20V13.7081C24 12.8903 23.5021 12.1549 22.7428 11.8512L19.6805 10.6263L17.9296 8H14.0704L12.3195 10.6263ZM13 6L11 9L8.51444 9.99423C6.9958 10.6017 6 12.0725 6 13.7081V20C6 22.2091 7.79086 24 10 24H22C24.2091 24 26 22.2091 26 20V13.7081C26 12.0725 25.0042 10.6017 23.4856 9.99422L21 9L19 6H13Z" fill="currentColor"/>
<path fill-rule="evenodd" clip-rule="evenodd" d="M21 16C21 18.7614 18.7614 21 16 21C13.2386 21 11 18.7614 11 16C11 13.2386 13.2386 11 16 11C18.7614 11 21 13.2386 21 16ZM16 19C17.6569 19 19 17.6569 19 16C19 14.3431 17.6569 13 16 13C14.3431 13 13 14.3431 13 16C13 17.6569 14.3431 19 16 19Z" fill="currentColor"/>
</svg>
