<svg width="32" height="32" viewBox="0 0 32 32" fill="none" xmlns="http://www.w3.org/2000/svg">
<path d="M18.3599 7.31492C19.8836 7.72894 21.2614 8.53345 22.364 9.63603L20.9498 11.0502C20.0922 10.1927 19.0206 9.56695 17.8355 9.24494C16.2172 8.80522 14.4949 8.96106 12.9818 9.6841C11.4688 10.4071 10.2656 11.6493 9.59112 13.1847C8.91667 14.72 8.8158 16.4464 9.30686 18.0498C9.79792 19.6533 10.8483 21.0271 12.2668 21.9215C13.6854 22.8158 15.3779 23.1711 17.0363 22.9229C18.6948 22.6746 20.209 21.8392 21.3035 20.5687C22.1785 19.553 22.7387 18.3132 22.9282 17H24.9443C24.7438 18.7939 24.007 20.4947 22.8188 21.874C21.4116 23.5076 19.4647 24.5816 17.3324 24.9008C15.2001 25.22 13.0241 24.7631 11.2002 23.6133C9.37637 22.4635 8.0259 20.6971 7.39453 18.6355C6.76317 16.574 6.89286 14.3543 7.76001 12.3803C8.62717 10.4063 10.1742 8.80917 12.1195 7.87955C14.0649 6.94993 16.2793 6.74957 18.3599 7.31492Z" fill="currentColor"/>
</svg>
