<svg width="32" height="32" viewBox="0 0 32 32" fill="none" xmlns="http://www.w3.org/2000/svg">
<path fill-rule="evenodd" clip-rule="evenodd" d="M8.78105 7.78105C9.28115 7.28095 9.95943 7 10.6667 7H18C18.2533 7 18.4971 7.09612 18.6823 7.26894L23.6823 11.9356C23.885 12.1247 24 12.3895 24 12.6667V22.3333C24 23.0406 23.719 23.7188 23.219 24.2189C22.7189 24.719 22.0406 25 21.3333 25H10.6667C9.19772 25 8 23.8023 8 22.3333L8 9.66667C8 8.95942 8.28095 8.28115 8.78105 7.78105ZM10.6667 9C10.4899 9 10.3203 9.07024 10.1953 9.19526C10.0702 9.32029 10 9.48986 10 9.66667L10 22.3333C10 22.6977 10.3023 23 10.6667 23H21.3333C21.5101 23 21.6797 22.9298 21.8047 22.8047C21.9298 22.6797 22 22.5101 22 22.3333V13.2667L17.5294 10.8824C17.2036 10.7086 17 10.3693 17 10V9H10.6667Z" fill="currentColor"/>
<path d="M12 17H16V15H12V17Z" fill="currentColor"/>
<path d="M12 19V21H20V19H12Z" fill="currentColor"/>
</svg>
