<?xml version="1.0" encoding="UTF-8"?>
<svg width="32px" height="32px" viewBox="0 0 32 32" version="1.1" xmlns="http://www.w3.org/2000/svg" xmlns:xlink="http://www.w3.org/1999/xlink">
    <!-- Generator: Sketch 59.1 (86144) - https://sketch.com -->
    <title>Icons/24/icon-card-24</title>
    <desc>Created with Sketch.</desc>
    <g id="Icons/24/icon-card-24" stroke="none" stroke-width="1" fill="none" fill-rule="evenodd">
        <path d="M22,9 C23.6568542,9 25,10.3431458 25,12 L25,20 C25,21.6568542 23.6568542,23 22,23 L10,23 C8.34314575,23 7,21.6568542 7,20 L7,12 C7,10.3431458 8.34314575,9 10,9 L22,9 Z M22,11 L10,11 C9.44771525,11 9,11.4477153 9,12 L9,13 L21,13 L21,15 L9,15 L9,20 C9,20.5522847 9.44771525,21 10,21 L22,21 C22.5522847,21 23,20.5522847 23,20 L23,12 C23,11.4477153 22.5522847,11 22,11 Z" id="Combined-Shape" fill="#252525" fill-rule="nonzero"></path>
    </g>
</svg>