<svg width="94" height="108" viewBox="0 0 94 108" fill="none" xmlns="http://www.w3.org/2000/svg">
<path d="M46.999 94.5712C38.0953 94.5712 29.5563 91.0342 23.2604 84.7384C16.9646 78.4425 13.4276 69.9035 13.4276 60.9998C13.4276 52.0961 16.9646 43.5571 23.2604 37.2612C29.5563 30.9653 38.0953 27.4284 46.999 27.4284V13.9998C34.5338 13.9998 22.5792 18.9516 13.765 27.7658C4.95079 36.58 -0.000976562 48.5346 -0.000976562 60.9998C-0.000976563 73.465 4.95079 85.4196 13.765 94.2338C22.5792 103.048 34.5338 108 46.999 108V94.5712Z" fill="#D2D2D2"/>
<path d="M46.999 80.5712C55.9027 80.5712 64.4417 77.0342 70.7376 70.7384C77.0335 64.4425 80.5704 55.9035 80.5704 46.9998C80.5704 38.0961 77.0335 29.5571 70.7376 23.2612C64.4417 16.9653 55.9027 13.4284 46.999 13.4284V-0.000209808C59.4642 -0.000209808 71.4188 4.95156 80.233 13.7658C89.0472 22.58 93.999 34.5346 93.999 46.9998C93.999 59.465 89.0472 71.4196 80.233 80.2338C71.4188 89.048 59.4642 93.9998 46.999 93.9998V80.5712Z" fill="#BEBEBE"/>
<path d="M46.999 47.0061C45.181 46.9507 43.3703 47.2587 41.6743 47.9119C39.9784 48.5651 38.4316 49.5501 37.1259 50.8086C35.8202 52.0671 34.7821 53.5733 34.0732 55.2381C33.3643 56.9028 32.999 58.6921 32.999 60.4998C32.999 62.3075 33.3643 64.0968 34.0732 65.7615C34.7821 67.4262 35.8202 68.9325 37.1259 70.191C38.4316 71.4495 39.9784 72.4345 41.6743 73.0877C43.3703 73.7409 45.181 74.0489 46.999 73.9934V47.0061Z" fill="#ACACAC"/>
<path d="M46.999 34.0061C48.817 33.9507 50.6277 34.2587 52.3237 34.9119C54.0197 35.5651 55.5664 36.5501 56.8721 37.8086C58.1778 39.0671 59.2159 40.5733 59.9248 42.2381C60.6337 43.9028 60.999 45.6921 60.999 47.4998C60.999 49.3075 60.6337 51.0968 59.9248 52.7615C59.2159 54.4262 58.1778 55.9325 56.8721 57.191C55.5664 58.4495 54.0197 59.4345 52.3237 60.0877C50.6277 60.7409 48.817 61.0489 46.999 60.9934V34.0061Z" fill="#D2D2D2"/>
</svg>
