<svg width="32" height="32" viewBox="0 0 32 32" fill="none" xmlns="http://www.w3.org/2000/svg">
<path fill-rule="evenodd" clip-rule="evenodd" d="M16 7C13.7909 7 12 8.79086 12 11V12C12 14.2091 13.7909 16 16 16C18.2091 16 20 14.2091 20 12V11C20 8.79086 18.2091 7 16 7ZM14 11C14 9.89543 14.8954 9 16 9C17.1046 9 18 9.89543 18 11V12C18 13.1046 17.1046 14 16 14C14.8954 14 14 13.1046 14 12V11Z" fill="black"/>
<path d="M8 23H10V21.5C10 20.1193 11.1193 19 12.5 19H19.5C20.8807 19 22 20.1193 22 21.5V23H24V21.5C24 19.0147 21.9853 17 19.5 17H12.5C10.0147 17 8 19.0147 8 21.5V23Z" fill="black"/>
</svg>
