<svg width="32" height="32" viewBox="0 0 32 32" fill="none" xmlns="http://www.w3.org/2000/svg">
<path fill-rule="evenodd" clip-rule="evenodd" d="M15 8C13.3431 8 12 9.34315 12 11V12H11.0005C9.34392 12 8 13.3428 8 15V21C8 22.6569 9.34315 24 11 24H17C18.6569 24 20 22.6569 20 21V20H21C22.6569 20 24 18.6569 24 17V11C24 9.34315 22.6569 8 21 8H15ZM18 20H15C13.3431 20 12 18.6569 12 17V14H11.0005C10.4479 14 10 14.448 10 15V21C10 21.5523 10.4477 22 11 22H17C17.5523 22 18 21.5523 18 21V20ZM14 11C14 10.4477 14.4477 10 15 10H21C21.5523 10 22 10.4477 22 11V17C22 17.5523 21.5523 18 21 18H15C14.4477 18 14 17.5523 14 17V11Z" fill="black"/>
</svg>
