<svg width="32" height="32" viewBox="0 0 32 32" fill="none" xmlns="http://www.w3.org/2000/svg">
<path d="M14.2507 18.7639L18.5502 16.1164L14.2507 13.4689V18.7639Z" fill="black"/>
<path fill-rule="evenodd" clip-rule="evenodd" d="M16 26C21.5228 26 26 21.5228 26 16C26 10.4772 21.5228 6 16 6C10.4772 6 6 10.4772 6 16C6 21.5228 10.4772 26 16 26ZM22.6978 12.5597C22.5378 11.9451 22.0667 11.4589 21.4623 11.2938C20.369 11.0002 15.9959 11.0002 15.9959 11.0002C15.9959 11.0002 11.7027 10.9819 10.6094 11.2754C10.005 11.4406 9.42728 11.9451 9.26729 12.5597C8.97397 13.6789 9.00063 15.9998 9.00063 15.9998C9.00063 15.9998 8.97397 18.3207 9.26729 19.4399C9.42728 20.0545 10.0139 20.559 10.6094 20.7241C11.7027 21.0269 15.9959 20.9993 15.9959 20.9993C15.9959 20.9993 20.289 21.0177 21.3823 20.7241C21.9867 20.559 22.5467 20.0545 22.7067 19.4399C23 18.3299 23 15.9998 23 15.9998C23 15.9998 22.9911 13.6789 22.6978 12.5597Z" fill="black"/>
</svg>
