<svg width="32" height="32" viewBox="0 0 32 32" fill="none" xmlns="http://www.w3.org/2000/svg">
<path d="M20.5634 24.7658C18.6411 24.7658 17.3314 25.0225 16.0111 25.0225C11.0344 25.0225 7 20.9877 7 16.0111C7 11.0344 11.0344 7 16.0111 7C20.9877 7 25.022 11.0344 25.022 16.0111C25.022 17.702 24.5566 19.2845 23.7463 20.6366C23.7199 20.6806 23.6532 20.6653 23.6462 20.6145C23.3369 18.4 21.984 17.1797 20.015 16.8238C19.8441 16.7929 19.8123 16.6877 20.0383 16.6682C20.639 16.6162 21.4949 16.6251 21.9301 16.7035C21.9564 16.4765 21.9678 16.2452 21.9678 16.0111C21.9678 12.7212 19.3008 10.0542 16.0111 10.0542C12.7212 10.0542 10.0542 12.7212 10.0542 16.0111C10.0542 19.301 12.7212 21.9678 16.0111 21.9678C16.1048 21.9678 16.1982 21.969 16.2908 21.9646C16.1915 21.3861 16.1608 20.7981 16.1789 20.3538C16.1936 19.9905 16.2671 19.9406 16.4312 20.2233C17.2556 21.644 18.4385 22.9379 20.7379 23.4446C22.6179 23.8589 24.503 24.3488 26.5412 26.9222C26.7224 27.1509 26.4459 27.3796 26.2381 27.1955C24.1642 25.358 22.2904 24.7658 20.5634 24.7658ZM21.2342 21.4941C21.635 21.8331 21.757 22.236 21.5449 22.5203C21.427 22.6761 21.2358 22.7621 21.0068 22.7621C20.7819 22.7621 20.5527 22.6788 20.3936 22.5399C20.0291 22.2215 19.922 21.7049 20.16 21.4115C20.253 21.2968 20.4041 21.2336 20.5851 21.2336C20.8053 21.2336 21.0358 21.3263 21.2342 21.4941ZM23.0839 20.6332C23.1428 21.0282 23.018 21.1917 22.8927 21.1917C22.7561 21.1917 22.5844 21.0316 22.3819 20.7158C22.1821 20.404 22.109 20.0463 22.208 19.8655C22.2735 19.7458 22.4104 19.6938 22.5831 19.7592C22.9175 19.8855 23.0488 20.3974 23.0839 20.6332Z" fill="black"/>
</svg>
