<svg width="32" height="32" viewBox="0 0 32 32" fill="none" xmlns="http://www.w3.org/2000/svg">
<path fill-rule="evenodd" clip-rule="evenodd" d="M9.61138 11L15.282 15.8214C15.6749 16.227 16.3255 16.227 16.7184 15.8214L22.3893 11H9.61138ZM7.18924 11.3741C6.32885 10.4859 6.95821 9 8.19479 9H23.806C25.0425 9 25.6719 10.486 24.8115 11.3741L18.1549 17.213C16.9761 18.4298 15.0242 18.4298 13.8455 17.2129L7.18924 11.3741Z" fill="black"/>
<path d="M9.00018 21H23.0002V15.2L25.0002 13.42V21C25.0002 22.1046 24.1047 23 23.0002 23H9.00018C7.89561 23 7.00018 22.1046 7.00018 21V13.42L9.00018 15.2V21Z" fill="black"/>
</svg>
