<svg width="32" height="32" viewBox="0 0 32 32" fill="none" xmlns="http://www.w3.org/2000/svg">
<path d="M18.9999 11.5L20.4099 12.91L17.4099 15.9999L20.4099 19.0899L18.9999 20.4999L15.9999 17.4099L12.9998 20.4999L11.5898 19.0899L14.5899 15.9999L11.5898 12.91L12.9998 11.5L15.9999 14.5899L18.9999 11.5Z" fill="black"/>
<path fill-rule="evenodd" clip-rule="evenodd" d="M26 16C26 21.5228 21.5228 26 16 26C10.4772 26 6 21.5228 6 16C6 10.4772 10.4772 6 16 6C21.5228 6 26 10.4772 26 16ZM24 16C24 20.4183 20.4183 24 16 24C11.5817 24 8 20.4183 8 16C8 11.5817 11.5817 8 16 8C20.4183 8 24 11.5817 24 16Z" fill="black"/>
</svg>
