<svg width="32" height="32" viewBox="0 0 32 32" fill="none" xmlns="http://www.w3.org/2000/svg">
<path fill-rule="evenodd" clip-rule="evenodd" d="M15.0862 10.4999L17.3791 8.20696C18.5507 7.03539 20.4502 7.03538 21.6217 8.20696L22.2933 8.87854C23.4649 10.0501 23.4649 11.9496 22.2933 13.1212L20.0005 15.4141L15.0862 10.4999ZM17.9146 10.4998L20.0005 12.5856L20.8791 11.707C21.2696 11.3164 21.2696 10.6833 20.8791 10.2928L20.2075 9.62117C19.817 9.23065 19.1838 9.23065 18.7933 9.62117L17.9146 10.4998Z" fill="black"/>
<path fill-rule="evenodd" clip-rule="evenodd" d="M16.2933 9.29274L17.7075 10.707L11.3953 17.0192L10.3097 20.9998H24.0004V22.9998H7.69116L9.60552 15.9805L16.2933 9.29274Z" fill="black"/>
<path fill-rule="evenodd" clip-rule="evenodd" d="M13.7933 18.7927L19.2933 13.2927L20.7075 14.707L15.2075 20.207L13.7933 18.7927Z" fill="black"/>
</svg>
