<svg width="32" height="32" viewBox="0 0 32 32" fill="none" xmlns="http://www.w3.org/2000/svg">
<path fill-rule="evenodd" clip-rule="evenodd" d="M16.0029 26C21.5258 26 26.0029 21.5228 26.0029 16C26.0029 10.4772 21.5258 6 16.0029 6C10.4801 6 6.00293 10.4772 6.00293 16C6.00293 21.5228 10.4801 26 16.0029 26ZM13.9417 21.0301C18.1348 21.0301 20.4278 17.5563 20.4278 14.5441C20.4278 14.4454 20.4258 14.3471 20.4213 14.2494C20.8663 13.9276 21.2533 13.5262 21.5585 13.0691C21.15 13.2505 20.7105 13.3728 20.2493 13.4279C20.72 13.1458 21.0813 12.6992 21.2517 12.1669C20.8112 12.428 20.3235 12.618 19.8043 12.7202C19.3883 12.2772 18.7959 12 18.1403 12C16.8813 12 15.8604 13.0209 15.8604 14.2795C15.8604 14.4584 15.8804 14.6323 15.9195 14.7992C14.0249 14.704 12.3449 13.7968 11.2207 12.4175C11.0248 12.7543 10.912 13.1458 10.912 13.5632C10.912 14.3542 11.3145 15.0524 11.9264 15.4608C11.5525 15.4493 11.2012 15.3465 10.894 15.1756C10.8934 15.1851 10.8934 15.1947 10.8934 15.2047C10.8934 16.3088 11.6793 17.2305 12.7223 17.4396C12.5309 17.4916 12.3294 17.5197 12.1214 17.5197C11.9745 17.5197 11.8317 17.5052 11.6929 17.4786C11.9831 18.3843 12.8246 19.0434 13.8225 19.062C13.0421 19.6734 12.0593 20.0378 10.9912 20.0378C10.8073 20.0378 10.6258 20.0272 10.4474 20.0062C11.4563 20.6527 12.6542 21.0301 13.9417 21.0301Z" fill="black"/>
</svg>
