<svg width="32" height="32" viewBox="0 0 32 32" fill="none" xmlns="http://www.w3.org/2000/svg">
<path d="M16.0955 7C17.5215 7 18.8783 7.3267 20.0957 7.91112C20.2867 7.99726 20.4789 8.10036 20.6692 8.20355L19.8344 8.94301L18.5829 7.6535L16.4264 9.54456L15.1566 8.18614L11.1912 11.7108L13.73 14.4789L12.7389 15.3383L15.2436 18.1064L14.2524 18.9655L17.8353 22.9027L19.9558 20.977L21.8002 23.0407C21.4347 23.3159 21.0347 23.5915 20.6004 23.8318C19.2784 24.571 17.7477 25 16.1131 25C11.0865 25 7.00006 20.9605 7.00006 15.9923C6.98231 11.0576 11.0694 7 16.0955 7ZM14.4257 15.4417L16.5997 13.516L18.548 15.665L16.3735 17.5905L14.4257 15.4417ZM15.974 19.1554L18.1303 17.2127L20.0957 19.3616L17.9216 21.2873L15.974 19.1554ZM12.8787 11.7798L15.0521 9.85413L17 12.0032L14.8258 13.9288L12.8787 11.7798ZM16.8606 10.7479L18.4782 9.30382L19.9394 10.9028L18.3219 12.364L16.8606 10.7479ZM19.748 17.3671L21.365 15.9229L22.8261 17.5386L21.2085 18.9837L19.748 17.3671ZM21.1739 20.6169L22.7915 19.1724L24.2515 20.7713L22.6345 22.2323L21.1739 20.6169ZM21.8349 13.1893L22.913 12.2264L23.8866 13.2928L22.8087 14.2553L21.8349 13.1893ZM20.4435 10.0086L21.5217 9.02888L22.4961 10.1118L21.417 11.0746L20.4435 10.0086ZM23.2086 16.3702L24.2868 15.4074L25.2781 16.4734L24.1828 17.436L23.2086 16.3702ZM18.3565 13.9804L19.9742 12.5362L21.4347 14.1348L19.8178 15.5793L18.3565 13.9804Z" fill="#252525"/>
</svg>
