<svg width="32" height="32" viewBox="0 0 32 32" fill="none" xmlns="http://www.w3.org/2000/svg">
<path fill-rule="evenodd" clip-rule="evenodd" d="M16 26C21.5228 26 26 21.5228 26 16C26 10.4772 21.5228 6 16 6C10.4772 6 6 10.4772 6 16C6 21.5228 10.4772 26 16 26ZM21.5689 20.4744C21.9638 20.4744 22.168 20.2626 22.0319 19.8523C21.9093 19.442 21.4464 18.8476 20.8473 18.1412C20.6834 17.9425 20.4783 17.7331 20.2958 17.5468L20.2871 17.5379C20.1094 17.3572 19.9542 17.1986 19.8807 17.0944C19.8081 16.9935 19.7682 16.9147 19.7536 16.8427C19.7271 16.7129 19.7841 16.6076 19.8807 16.4434C19.8807 16.4434 21.5962 13.9262 21.7731 13.0768C21.8685 12.7663 21.7731 12.5401 21.3511 12.5401H19.9488C19.5948 12.5401 19.4313 12.7374 19.3361 12.9504C19.3361 12.9504 18.6145 14.7601 17.607 15.9345C17.2802 16.2738 17.1305 16.3869 16.9535 16.3869C16.9196 16.3869 16.8765 16.368 16.8374 16.3226C16.7823 16.2594 16.7356 16.1451 16.7356 15.9622V13.0635C16.7356 12.9226 16.7196 12.8117 16.6833 12.7275C16.6247 12.5911 16.5124 12.5256 16.3272 12.5256H14.1216C13.9037 12.5256 13.7675 12.6953 13.7675 12.865C13.7675 13.0004 13.8414 13.0963 13.9355 13.2187C14.0874 13.416 14.2921 13.6821 14.3257 14.2933V16.4434C14.3257 16.9103 14.2441 16.9946 14.0671 16.9946C13.5905 16.9946 12.4332 15.1704 11.7389 13.0912C11.6028 12.6953 11.4665 12.5256 11.1126 12.5256H9.71028C9.64527 12.5256 9.58872 12.5312 9.53965 12.5412C9.29069 12.5911 9.23372 12.7585 9.23372 12.9359C9.23372 13.3318 9.71028 15.2414 11.4529 17.7875C12.6102 19.5262 14.2577 20.4599 15.7417 20.4599C16.6403 20.4599 16.7493 20.2481 16.7493 19.8944V18.5792C16.7493 18.1689 16.8309 18.0835 17.1169 18.0835C17.3211 18.0835 17.6887 18.1978 18.5191 19.0317C18.7933 19.3211 19.002 19.5628 19.1731 19.7613C19.5967 20.2526 19.7884 20.4744 20.1665 20.4744H21.5689Z" fill="black"/>
</svg>
