<svg width="32" height="32" viewBox="0 0 32 32" fill="none" xmlns="http://www.w3.org/2000/svg">
<path fill-rule="evenodd" clip-rule="evenodd" d="M20.9363 16C20.9363 13.2386 18.7067 11 15.9562 11C13.2058 11 10.9761 13.2386 10.9761 16C10.9761 18.7614 13.2058 21 15.9562 21C18.7067 21 20.9363 18.7614 20.9363 16ZM15.9562 13C17.6065 13 18.9443 14.3431 18.9443 16C18.9443 17.6569 17.6065 19 15.9562 19C14.306 19 12.9682 17.6569 12.9682 16C12.9682 14.3431 14.306 13 15.9562 13Z" fill="black"/>
<path fill-rule="evenodd" clip-rule="evenodd" d="M15.9562 24C12.1341 24 9.41974 22.0572 7.69775 20.1804C6.57103 18.9525 5.65209 17.5398 5 16C5.65208 14.4602 6.57103 13.0475 7.69775 11.8195C9.41974 9.94282 12.1341 8.00003 15.9562 8C19.8089 8.00003 22.5449 9.94282 24.2807 11.8195C25.4164 13.0475 26.3427 14.4602 27 16C26.3427 17.5398 25.4164 18.9525 24.2807 20.1805C22.5449 22.0572 19.8089 24 15.9562 24ZM15.9562 10C12.8616 10 10.6353 11.5572 9.14594 13.1805C8.12489 14.2933 7.47282 15.4196 7.17368 16C7.47282 16.5804 8.12489 17.7067 9.14594 18.8195C10.6353 20.4428 12.8616 22 15.9562 22C19.0756 22 21.3196 20.4428 22.8209 18.8195C23.8501 17.7068 24.5074 16.5804 24.809 16C24.5074 15.4196 23.8501 14.2933 22.8209 13.1805C21.3196 11.5572 19.0756 10 15.9562 10Z" fill="black"/>
</svg>
