<svg width="32" height="32" viewBox="0 0 32 32" fill="none" xmlns="http://www.w3.org/2000/svg">
<path fill-rule="evenodd" clip-rule="evenodd" d="M16 8C12.5523 8 10 10.5523 10 14C10 17.9035 13.055 21.2767 16 23.5C18.945 21.2767 22 17.9035 22 14C22 10.5523 19.4477 8.00003 16 8ZM24 14C24 19 20 23.1518 16.0006 26C12 23.1516 8 19 8 14C8 9.44771 11.4477 6 16 6C20.5523 6 24 9.44771 24 14ZM16 16C14.8954 16 14 15.1046 14 14C14 12.8954 14.8954 12 16 12C17.1046 12 18 12.8954 18 14C18 15.1046 17.1046 16 16 16Z" fill="black"/>
</svg>
