<svg width="32" height="32" viewBox="0 0 32 32" fill="none" xmlns="http://www.w3.org/2000/svg">
<path fill-rule="evenodd" clip-rule="evenodd" d="M12.5818 8.2895C14.0968 7.82155 15.7306 7.92354 17.1757 8.57626C18.6208 9.22899 19.7774 10.3874 20.4279 11.8335C21.0784 13.2796 21.1778 14.9136 20.7075 16.4279L18.7975 15.8347C19.1231 14.7863 19.0543 13.6551 18.6039 12.654C18.1536 11.6528 17.3528 10.8508 16.3524 10.399C15.352 9.94707 14.2209 9.87646 13.172 10.2004C12.1231 10.5244 11.2289 11.2206 10.6575 12.1579C10.0862 13.0953 9.87719 14.2092 10.0699 15.2899C10.2626 16.3706 10.8437 17.3436 11.7037 18.0258C12.5638 18.7079 13.6436 19.0521 14.7398 18.9936C15.2898 18.9643 15.8249 18.8345 16.3205 18.6153C17.5015 18.0929 19.2685 17.9184 20.4666 19.1165L24.1429 22.7929L22.7287 24.2071L19.0524 20.5307C18.6975 20.1759 17.9571 20.0783 17.1296 20.4443C16.4138 20.761 15.6409 20.9484 14.8464 20.9908C13.263 21.0753 11.7033 20.5781 10.461 19.5927C9.21861 18.6074 8.37926 17.202 8.10094 15.641C7.82261 14.0799 8.12449 12.471 8.94975 11.117C9.77502 9.76305 11.0667 8.75745 12.5818 8.2895Z" fill="black"/>
</svg>
