<svg width="32" height="32" viewBox="0 0 32 32" fill="none" xmlns="http://www.w3.org/2000/svg">
<path d="M13 8C11.9 8 11 8.9 11 10C11 11.1 11.9 12 13 12C14.1 12 15 11.1 15 10C15 8.9 14.1 8 13 8Z" fill="black"/>
<path d="M19 8C17.9 8 17 8.9 17 10C17 11.1 17.9 12 19 12C20.1 12 21 11.1 21 10C21 8.9 20.1 8 19 8Z" fill="black"/>
<path d="M17 16C17 14.9 17.9 14 19 14C20.1 14 21 14.9 21 16C21 17.1 20.1 18 19 18C17.9 18 17 17.1 17 16Z" fill="black"/>
<path d="M19 20C17.9 20 17 20.9 17 22C17 23.1 17.9 24 19 24C20.1 24 21 23.1 21 22C21 20.9 20.1 20 19 20Z" fill="black"/>
<path d="M11 16C11 14.9 11.9 14 13 14C14.1 14 15 14.9 15 16C15 17.1 14.1 18 13 18C11.9 18 11 17.1 11 16Z" fill="black"/>
<path d="M13 20C11.9 20 11 20.9 11 22C11 23.1 11.9 24 13 24C14.1 24 15 23.1 15 22C15 20.9 14.1 20 13 20Z" fill="black"/>
</svg>
