<svg width="32" height="32" viewBox="0 0 32 32" fill="none" xmlns="http://www.w3.org/2000/svg">
<path fill-rule="evenodd" clip-rule="evenodd" d="M17.8975 5L18.9177 5.51012C19.6947 5.89865 20.1321 6.7444 20 7.60309L19.1656 12.0006H23.1057C25.0838 12.0006 26.5205 13.8815 26 15.7899L24.0909 22.7899C23.7349 24.0951 22.5495 25.0006 21.1966 25.0006H7V12.0006H9V23.0006H21.1966C21.6476 23.0006 22.0427 22.6987 22.1614 22.2637L24.0705 15.2637C24.244 14.6275 23.7651 14.0006 23.1057 14.0006H16.8344L17.9285 7.91502L13.2652 12.6042C13.0947 12.789 13 13.0311 13 13.2825V21.0006H11V13.2825C11 12.5284 11.2841 11.8019 11.7956 11.2477L17.8975 5Z" fill="black"/>
</svg>
