<svg width="32" height="32" viewBox="0 0 32 32" fill="none" xmlns="http://www.w3.org/2000/svg">
<path fill-rule="evenodd" clip-rule="evenodd" d="M14.1025 27L13.0823 26.4899C12.3052 26.1014 11.8679 25.2556 12 24.3969L12.8344 19.9995H8.89428C6.91616 19.9995 5.47951 18.1185 5.99998 16.2101L7.90908 9.2101C8.26504 7.90491 9.45051 6.99945 10.8034 6.99945H25V19.9995H23V8.99945H10.8034C10.3524 8.99945 9.95726 9.30127 9.8386 9.73633L7.92951 16.7363C7.75602 17.3725 8.2349 17.9995 8.89428 17.9995H15.1656L14.0715 24.085L18.7348 19.3958C18.9053 19.211 19 18.9689 19 18.7175V10.9995H21V18.7175C21 19.4717 20.7159 20.1982 20.2044 20.7523L14.1025 27Z" fill="black"/>
</svg>
