<svg width="48" height="48" viewBox="0 0 48 48" fill="none" xmlns="http://www.w3.org/2000/svg">
    <path d="M35.5 4H12.5C10.0195 4 8 6.01953 8 8.5V39.5C8 41.9805 10.0195 44 12.5 44H35.5C37.9805 44 40 41.9805 40 39.5V8.5C40 6.01953 37.9805 4 35.5 4ZM16.5 12H23.5C24.3281 12 25 12.6719 25 13.5C25 14.3281 24.3281 15 23.5 15H16.5C15.6719 15 15 14.3281 15 13.5C15 12.6719 15.6719 12 16.5 12ZM27.5 36H16.5C15.6719 36 15 35.3281 15 34.5C15 33.6719 15.6719 33 16.5 33H27.5C28.3281 33 29 33.6719 29 34.5C29 35.3281 28.3281 36 27.5 36ZM31.5 30H16.5C15.6719 30 15 29.3281 15 28.5C15 27.6719 15.6719 27 16.5 27H31.5C32.3281 27 33 27.6719 33 28.5C33 29.3281 32.3281 30 31.5 30ZM31.5 24H16.5C15.6719 24 15 23.3281 15 22.5C15 21.6719 15.6719 21 16.5 21H31.5C32.3281 21 33 21.6719 33 22.5C33 23.3281 32.3281 24 31.5 24Z" fill="#643FFF"/>
</svg>
