<svg width="48" height="48" viewBox="0 0 48 48" fill="none" xmlns="http://www.w3.org/2000/svg">
    <path d="M12 5C9.43359 5 7.23047 6.74219 5.9375 9.21094C4.64844 11.6797 4 14.9609 4 19C4 22.2656 4.61719 25.543 6.07812 28.2109C6.16016 28.3594 6.28125 28.4844 6.37109 28.6289C5.35156 29.7969 4.60937 30.5625 4.60937 30.5625C4.08594 31.0586 3.86719 31.7969 4.03906 32.4961C4.21484 33.1953 4.74609 33.7461 5.44141 33.9414C6.13281 34.1367 6.87891 33.9453 7.39062 33.4375C7.39062 33.4375 8.08203 32.7617 9.09375 31.6172C10.3359 32.4727 11.8047 33 13.4531 33C17.2383 33 20.6562 31.1445 23.4375 28.6992C24.4102 29.4648 25.5898 30 27 30C28.8359 30 30.4023 29.1367 31.5742 28.0781C32.7461 27.0195 33.625 25.7344 34.3438 24.5078C34.418 24.375 34.4492 24.2852 34.5195 24.1562C34.6992 24.7031 34.8398 25.2656 35.0938 25.7852C35.3086 26.2266 35.5547 26.6602 35.9688 27.0898C36.3828 27.5156 37.0977 28 38 28C39.1875 28 39.957 27.2305 40.3594 26.7109C40.7578 26.1914 41.0117 25.6992 41.2891 25.2031C41.8477 24.207 42.4453 23.2266 43.2695 22.5469C44.125 21.8438 44.2461 20.582 43.5469 19.7305C42.8438 18.875 41.582 18.7539 40.7305 19.4531C39.4805 20.4805 38.7578 21.6328 38.1992 22.5977C38.125 22.3633 38.0508 22.2266 37.9844 21.9727C37.7617 21.1484 37.5625 20.293 37.375 19.582C37.2852 19.2305 37.1992 18.918 37.0703 18.582C37.0078 18.418 36.9453 18.2461 36.7656 17.9766C36.5898 17.707 36.1992 17 35 17C33.6953 17 33.4766 17.6328 33.2969 17.8594C33.1172 18.0898 33.0273 18.2539 32.9336 18.4258C32.7461 18.7695 32.5781 19.1328 32.3789 19.5586C31.9805 20.4062 31.4844 21.4688 30.8906 22.4922C30.293 23.5156 29.5859 24.4805 28.8906 25.1094C28.1992 25.7383 27.6133 26 27 26C26.6406 26 26.3828 25.8516 26.1172 25.707C28.3438 22.9531 30 19.9531 30 17C30 15.8594 29.6758 14.7305 28.9531 13.7617C28.2266 12.7891 26.9453 12 25.5 12C23.8164 12 22.125 13.0234 21.2344 14.5625C20.3477 16.1016 20 18.0391 20 20.5C20 21.9375 20.3477 23.6602 21.0469 25.3359C18.7305 27.4336 15.9883 29 13.4531 29C12.7266 29 12.1523 28.7539 11.5977 28.4375C11.9727 27.9453 12.2656 27.6602 12.6445 27.1094C15.2617 23.332 18 18.2578 18 12.7852C18 11.1094 17.6836 9.36328 16.7812 7.83203C15.8789 6.30078 14.1211 5 12 5ZM12 9C12.7031 9 12.9453 9.19922 13.3359 9.86328C13.7266 10.5273 14 11.6758 14 12.7852C14 16.8594 11.7383 21.3945 9.35547 24.832C9.28516 24.9375 9.23047 24.9805 9.16016 25.082C8.46875 23.3398 8 21.2344 8 19C8 15.4062 8.63281 12.6875 9.48438 11.0625C10.3359 9.44141 11.1289 9 12 9ZM25.5 16C25.6484 16 25.6211 15.9883 25.7461 16.1562C25.8711 16.3203 26 16.6953 26 17C26 18.0469 25.2617 19.7227 24.2266 21.4648C24.1875 21.1445 24 20.7539 24 20.5C24 18.4609 24.3594 17.1484 24.6992 16.5625C25.0391 15.9766 25.0938 16 25.5 16ZM6 39C5.27734 38.9883 4.60938 39.3672 4.24609 39.9922C3.87891 40.6133 3.87891 41.3867 4.24609 42.0078C4.60938 42.6328 5.27734 43.0117 6 43H42C42.7227 43.0117 43.3906 42.6328 43.7539 42.0078C44.1211 41.3867 44.1211 40.6133 43.7539 39.9922C43.3906 39.3672 42.7227 38.9883 42 39H6Z" fill="#643FFF"/>
</svg>
