<svg width="48" height="48" viewBox="0 0 48 48" fill="none" xmlns="http://www.w3.org/2000/svg">
    <path d="M8.5 6C6.58594 6 5 7.58594 5 9.5V26.5C5 28.4141 6.58594 30 8.5 30H39.5C41.4141 30 43 28.4141 43 26.5V9.5C43 7.58594 41.4141 6 39.5 6H8.5ZM11 9H37C37 10.6602 38.3398 12 40 12V24C38.3398 24 37 25.3398 37 27H11C11 25.3398 9.66016 24 8 24V12C9.66016 12 11 10.6602 11 9ZM24 11C20.6914 11 18 14.1406 18 18C18 21.8594 20.6914 25 24 25C27.3086 25 30 21.8594 30 18C30 14.1406 27.3086 11 24 11ZM12 16C10.8945 16 10 16.8945 10 18C10 19.1055 10.8945 20 12 20C13.1055 20 14 19.1055 14 18C14 16.8945 13.1055 16 12 16ZM36 16C34.8945 16 34 16.8945 34 18C34 19.1055 34.8945 20 36 20C37.1055 20 38 19.1055 38 18C38 16.8945 37.1055 16 36 16ZM23.9766 31.9805C23.1484 31.9922 22.4883 32.6719 22.5 33.5V38.8789L21.0625 37.4375C20.6836 37.0469 20.125 36.8906 19.6016 37.0273C19.0742 37.1641 18.6641 37.5742 18.5273 38.1016C18.3906 38.625 18.5469 39.1836 18.9375 39.5625L22.8125 43.4336C23.0938 43.8047 23.5391 44.0195 24.0039 44.0195C24.4727 44.0156 24.9141 43.7969 25.1992 43.4219L29.0625 39.5625C29.4531 39.1836 29.6094 38.625 29.4727 38.1016C29.3359 37.5742 28.9258 37.1641 28.3984 37.0273C27.875 36.8906 27.3164 37.0469 26.9375 37.4375L25.5 38.8789V33.5C25.5039 33.0938 25.3477 32.7031 25.0586 32.418C24.7734 32.1289 24.3828 31.9727 23.9766 31.9805Z" fill="#643FFF"/>
</svg>
