<svg width="32" height="32" viewBox="-6 -6 32 32" fill="none" xmlns="http://www.w3.org/2000/svg">
    <path fill-rule="evenodd" clip-rule="evenodd" d="M10 20C15.5228 20 20 15.5228 20 10C20 4.47715 15.5228 0 10 0C4.47715 0 0 4.47715 0 10C0 15.5228 4.47715 20 10 20ZM14.669 6.29752L12.9451 14.4124C12.8189 15.001 12.5246 15.1692 11.978 14.8749L9.37117 12.9408L8.10979 14.1601C7.89956 14.3283 7.73138 14.4124 7.5632 14.4124L7.77343 11.7214L12.6508 7.26458C12.7348 7.18048 12.7348 7.13844 12.6928 7.09639C12.6087 7.05435 12.4826 7.05435 12.3144 7.18049L6.30182 10.9646L3.69497 10.1657C3.48474 10.1237 3.3586 10.0396 3.31656 9.95552C3.27451 9.87143 3.27451 9.78733 3.3586 9.6612C3.4427 9.53506 3.61088 9.45097 3.82111 9.36687L13.9542 5.4566C14.2064 5.37251 14.3746 5.37251 14.5428 5.5407C14.711 5.70888 14.753 5.96115 14.669 6.29752Z" fill="#643FFF"/>
</svg>
