<svg width="32" height="32" viewBox="-6 -6 32 32" fill="none" xmlns="http://www.w3.org/2000/svg">
    <path fill-rule="evenodd" clip-rule="evenodd" d="M10 20C15.5228 20 20 15.5228 20 10C20 4.47715 15.5228 0 10 0C4.47715 0 0 4.47715 0 10C0 15.5228 4.47715 20 10 20ZM15.5689 14.4744C15.9638 14.4744 16.168 14.2626 16.0319 13.8523C15.9093 13.442 15.4464 12.8476 14.8473 12.1412C14.6834 11.9425 14.4783 11.7331 14.2958 11.5468L14.2871 11.5379C14.1094 11.3572 13.9542 11.1986 13.8807 11.0944C13.8081 10.9935 13.7682 10.9147 13.7536 10.8427C13.7271 10.7129 13.7841 10.6076 13.8807 10.4434C13.8807 10.4434 15.5962 7.9262 15.7731 7.07677C15.8685 6.76627 15.7731 6.54006 15.3511 6.54006H13.9488C13.5948 6.54006 13.4313 6.73744 13.3361 6.95035C13.3361 6.95035 12.6145 8.76011 11.607 9.93445C11.2802 10.2738 11.1305 10.3869 10.9535 10.3869C10.9196 10.3869 10.8765 10.368 10.8374 10.3226C10.7823 10.2594 10.7356 10.1451 10.7356 9.96218V7.06346C10.7356 6.92263 10.7196 6.81174 10.6833 6.72746C10.6247 6.59107 10.5124 6.52564 10.3272 6.52564H8.12156C7.90365 6.52564 7.76753 6.6953 7.76753 6.86497C7.76753 7.00039 7.84135 7.09632 7.93553 7.2187C8.08736 7.41601 8.29211 7.68208 8.32573 8.29325V10.4434C8.32573 10.9103 8.24409 10.9946 8.06708 10.9946C7.59052 10.9946 6.43323 9.17041 5.73891 7.09119C5.60279 6.6953 5.46653 6.52564 5.11265 6.52564H3.71028C3.64527 6.52564 3.58872 6.53118 3.53965 6.54116C3.29069 6.59107 3.23372 6.75851 3.23372 6.93594C3.23372 7.33182 3.71028 9.24138 5.45294 11.7875C6.61024 13.5262 8.25768 14.4599 9.74168 14.4599C10.6403 14.4599 10.7493 14.2481 10.7493 13.8944V12.5792C10.7493 12.1689 10.8309 12.0835 11.1169 12.0835C11.3211 12.0835 11.6887 12.1978 12.5191 13.0317C12.7933 13.3211 13.002 13.5628 13.1731 13.7613C13.5967 14.2526 13.7884 14.4744 14.1665 14.4744H15.5689Z" fill="#643FFF"/>
</svg>
